<svg width="209" height="209" viewBox="0 0 209 209" fill="none" xmlns="http://www.w3.org/2000/svg">
<g clip-path="url(#clip0_52754_38061)">
<path d="M104.5 0L111.059 21.1577L120.847 1.28657L124.016 23.2099L136.792 5.11459L136.492 27.2637L151.942 11.3898L148.181 33.2193L165.924 19.9577L158.794 40.9301L178.393 30.6073L168.07 50.2061L189.042 43.0764L175.781 60.8191L197.61 57.058L181.736 72.5077L203.885 72.2077L185.79 84.984L207.713 88.1526L187.842 97.9408L209 104.5L187.842 111.059L207.713 120.847L185.79 124.016L203.885 136.792L181.736 136.492L197.61 151.942L175.781 148.181L189.042 165.924L168.07 158.794L178.393 178.393L158.794 168.07L165.924 189.042L148.181 175.781L151.942 197.61L136.492 181.736L136.792 203.885L124.016 185.79L120.847 207.713L111.059 187.842L104.5 209L97.9408 187.842L88.1526 207.713L84.984 185.79L72.2077 203.885L72.5077 181.736L57.058 197.61L60.8191 175.781L43.0764 189.042L50.2061 168.07L30.6073 178.393L40.9301 158.794L19.9577 165.924L33.2193 148.181L11.3898 151.942L27.2637 136.492L5.11459 136.792L23.2099 124.016L1.28657 120.847L21.1577 111.059L0 104.5L21.1577 97.9408L1.28657 88.1526L23.2099 84.984L5.11459 72.2077L27.2637 72.5077L11.3898 57.058L33.2193 60.8191L19.9577 43.0764L40.9301 50.2061L30.6073 30.6073L50.2061 40.9301L43.0764 19.9577L60.8191 33.2193L57.058 11.3898L72.5077 27.2637L72.2077 5.11459L84.984 23.2099L88.1526 1.28657L97.9408 21.1577L104.5 0Z" fill="#CEFC00"/>
<path d="M110.582 21.3057L110.953 22.5039L111.508 21.3789L120.583 2.9541L123.521 23.2812L123.701 24.5234L124.425 23.498L136.27 6.72168L135.992 27.2568L135.976 28.5117L136.851 27.6123L151.175 12.8945L147.688 33.1348L147.475 34.3711L148.48 33.6201L164.931 21.3232L158.32 40.7695L157.917 41.957L159.027 41.3721L177.197 31.8018L167.628 49.9727L167.043 51.083L168.23 50.6797L187.676 44.0684L175.38 60.5195L174.629 61.5254L175.865 61.3115L196.104 57.8242L181.388 72.1494L180.488 73.0244L181.743 73.0078L202.277 72.7295L185.502 84.5752L184.477 85.2988L185.719 85.4785L206.045 88.416L187.621 97.4922L186.495 98.0469L187.694 98.418L207.311 104.5L187.694 110.582L186.495 110.953L187.621 111.508L206.045 120.583L185.719 123.521L184.477 123.701L185.502 124.425L202.277 136.27L181.743 135.992L180.488 135.976L181.388 136.851L196.104 151.175L175.865 147.688L174.629 147.475L175.38 148.48L187.676 164.931L168.23 158.32L167.043 157.917L167.628 159.027L177.197 177.197L159.027 167.628L157.917 167.043L158.32 168.23L164.931 187.676L148.48 175.38L147.475 174.629L147.688 175.865L151.175 196.104L136.851 181.388L135.976 180.488L135.992 181.743L136.27 202.277L124.425 185.502L123.701 184.477L123.521 185.719L120.583 206.045L111.508 187.621L110.953 186.495L110.582 187.694L104.5 207.311L98.418 187.694L98.0469 186.495L97.4922 187.621L88.416 206.045L85.4785 185.719L85.2988 184.477L84.5752 185.502L72.7295 202.277L73.0078 181.743L73.0244 180.488L72.1494 181.388L57.8242 196.104L61.3115 175.865L61.5254 174.629L60.5195 175.38L44.0684 187.676L50.6797 168.23L51.083 167.043L49.9727 167.628L31.8018 177.197L41.3721 159.027L41.957 157.917L40.7695 158.32L21.3232 164.931L33.6201 148.48L34.3711 147.475L33.1348 147.688L12.8945 151.175L27.6123 136.851L28.5117 135.976L27.2568 135.992L6.72168 136.27L23.498 124.425L24.5234 123.701L23.2812 123.521L2.9541 120.583L21.3789 111.508L22.5039 110.953L21.3057 110.582L1.68848 104.5L21.3057 98.418L22.5039 98.0469L21.3789 97.4922L2.9541 88.416L23.2812 85.4785L24.5234 85.2988L23.498 84.5752L6.72168 72.7295L27.2568 73.0078L28.5117 73.0244L27.6123 72.1494L12.8945 57.8242L33.1348 61.3115L34.3711 61.5254L33.6201 60.5195L21.3232 44.0684L40.7695 50.6797L41.957 51.083L41.3721 49.9727L31.8018 31.8018L49.9727 41.3721L51.083 41.957L50.6797 40.7695L44.0684 21.3232L60.5195 33.6201L61.5254 34.3711L61.3115 33.1348L57.8242 12.8945L72.1494 27.6123L73.0244 28.5117L73.0078 27.2568L72.7295 6.72168L84.5752 23.498L85.2988 24.5234L85.4785 23.2812L88.416 2.9541L97.4922 21.3789L98.0469 22.5039L98.418 21.3057L104.5 1.68848L110.582 21.3057Z" stroke="black" stroke-opacity="0.05"/>
<path d="M47.9801 120.207C47.7293 120.275 47.4699 120.368 47.2019 120.486C46.9367 120.589 46.6895 120.719 46.4604 120.875C45.5967 121.464 45.0915 122.105 44.9449 122.799C44.7982 123.493 45.0253 124.28 45.6262 125.162C45.8906 125.55 46.1896 125.856 46.5233 126.08C46.851 126.295 47.2015 126.431 47.5749 126.486C47.9482 126.541 48.3326 126.518 48.728 126.417C49.1322 126.309 49.5282 126.123 49.916 125.858C50.3302 125.576 50.6831 125.232 50.9748 124.827C51.2752 124.415 51.4795 124.005 51.5877 123.595L52.5732 124.047C52.5219 124.237 52.4428 124.452 52.3358 124.693C52.2288 124.933 52.088 125.191 51.9133 125.465C51.7415 125.724 51.5267 125.987 51.2691 126.253C51.0204 126.513 50.7241 126.76 50.3804 126.994C49.8075 127.385 49.2467 127.651 48.6979 127.793C48.1519 127.92 47.6313 127.932 47.1362 127.831C46.635 127.721 46.1653 127.505 45.7271 127.184C45.2828 126.855 44.8835 126.43 44.5289 125.91C44.1504 125.355 43.8888 124.81 43.7442 124.276C43.6085 123.736 43.5868 123.221 43.6794 122.732C43.772 122.243 43.9743 121.782 44.2864 121.35C44.5924 120.909 45.001 120.514 45.5122 120.166C46.1644 119.721 46.7323 119.418 47.2158 119.256C47.7081 119.088 48.1434 118.979 48.5215 118.928L48.5353 118.976L49.7881 120.814L48.8363 121.463L47.9801 120.207ZM51.1886 117.284C51.4173 116.805 51.7366 116.355 52.1465 115.933C52.5563 115.512 52.9903 115.145 53.4486 114.833C53.8981 114.526 54.3119 114.347 54.6901 114.296C55.0771 114.239 55.428 114.271 55.7429 114.392C56.0605 114.498 56.3449 114.678 56.5961 114.933C56.8501 115.173 57.0762 115.438 57.2745 115.729C57.5028 116.064 57.7374 116.427 57.9781 116.818C58.2188 117.209 58.464 117.597 58.7135 117.982C59.014 118.423 59.3258 118.823 59.6491 119.184L60.5348 118.58L61.1207 119.439L59.3624 120.638L58.5675 119.728L58.5014 119.773C58.5026 119.888 58.4923 120.044 58.4707 120.239C58.4491 120.435 58.3922 120.654 58.3 120.898C58.2107 121.126 58.0727 121.369 57.886 121.625C57.6993 121.882 57.4385 122.124 57.1036 122.352C56.4514 122.797 55.8217 122.981 55.2144 122.904C54.6071 122.828 54.1051 122.499 53.7086 121.917C53.4021 121.468 53.2437 121.027 53.2333 120.595C53.2317 120.157 53.3619 119.733 53.6239 119.322C53.8859 118.911 54.2679 118.515 54.7699 118.134C55.2807 117.747 55.8952 117.38 56.6135 117.032C56.3811 116.597 56.1572 116.259 55.9417 116.018C55.729 115.763 55.5113 115.595 55.2885 115.515C55.0746 115.428 54.8453 115.423 54.6005 115.5C54.3586 115.561 54.0922 115.691 53.8013 115.89C53.4047 116.16 53.0648 116.476 52.7816 116.837C52.4923 117.189 52.2458 117.518 52.0418 117.825L51.1886 117.284ZM56.7641 121.286C57.0109 121.118 57.213 120.922 57.3705 120.699C57.5279 120.475 57.6439 120.248 57.7184 120.016C57.7929 119.785 57.835 119.562 57.8446 119.349C57.8482 119.127 57.8314 118.932 57.7942 118.764L57.1632 117.838C56.6509 118.072 56.2008 118.32 55.813 118.585C55.4252 118.849 55.1204 119.121 54.8984 119.402C54.6705 119.673 54.5373 119.951 54.4988 120.236C54.4603 120.52 54.5372 120.804 54.7295 121.086C54.9278 121.376 55.199 121.566 55.5431 121.654C55.89 121.727 56.297 121.605 56.7641 121.286ZM57.746 112.058L59.3191 110.985L58.4269 109.676L59.2597 108.683L60.3503 110.282L63.88 107.876L64.4839 108.762L60.9542 111.168L63.0812 114.288C63.5198 114.931 63.9985 115.302 64.5173 115.4C65.0449 115.492 65.5995 115.34 66.1812 114.944C66.5778 114.673 66.8704 114.364 67.0591 114.016C67.2566 113.662 67.4143 113.315 67.5321 112.977L68.4075 113.523C68.2673 113.98 68.0324 114.43 67.7027 114.874C67.3818 115.313 66.9966 115.685 66.5471 115.992C66.1946 116.232 65.8236 116.407 65.4342 116.518C65.0597 116.631 64.6813 116.663 64.2991 116.614C63.917 116.565 63.5442 116.425 63.1809 116.195C62.8115 115.956 62.4707 115.608 62.1582 115.15L59.923 111.871L58.3498 112.943L57.746 112.058ZM71.7605 103.994C71.5097 104.062 71.2503 104.155 70.9823 104.273C70.7171 104.376 70.47 104.506 70.2408 104.662C69.3771 105.251 68.872 105.893 68.7253 106.586C68.5787 107.28 68.8058 108.068 69.4066 108.949C69.671 109.337 69.9701 109.643 70.3037 109.867C70.6314 110.083 70.9819 110.218 71.3553 110.274C71.7286 110.329 72.113 110.306 72.5084 110.204C72.9126 110.096 73.3086 109.91 73.6964 109.646C74.1106 109.363 74.4635 109.019 74.7552 108.614C75.0557 108.203 75.26 107.792 75.3682 107.383L76.3536 107.834C76.3023 108.024 76.2232 108.239 76.1162 108.48C76.0093 108.721 75.8684 108.978 75.6938 109.252C75.5219 109.511 75.3072 109.774 75.0496 110.04C74.8008 110.3 74.5046 110.547 74.1608 110.781C73.588 111.172 73.0271 111.438 72.4783 111.58C71.9323 111.707 71.4117 111.72 70.9166 111.618C70.4154 111.508 69.9458 111.293 69.5075 110.972C69.0633 110.642 68.6639 110.217 68.3094 109.697C67.9308 109.142 67.6693 108.597 67.5247 108.063C67.3889 107.523 67.3673 107.009 67.4598 106.52C67.5524 106.03 67.7547 105.57 68.0668 105.138C68.3729 104.697 68.7815 104.302 69.2926 103.953C69.9448 103.509 70.5127 103.205 70.9962 103.044C71.4885 102.876 71.9238 102.766 72.302 102.715L72.3158 102.764L73.5686 104.601L72.6167 105.25L71.7605 103.994ZM71.4401 98.8487L73.5024 97.4426L75.8638 100.906L75.9299 100.861C75.9928 100.366 76.1478 99.9122 76.395 99.4984C76.6362 99.0758 77.0256 98.6812 77.5632 98.3147C77.9862 98.0263 78.382 97.821 78.7506 97.6988C79.1279 97.5706 79.4887 97.5506 79.8328 97.6388C80.1857 97.7209 80.5428 97.9228 80.9041 98.2445C81.2595 98.5574 81.6384 99.0091 82.041 99.5995L84.6367 103.407L83.6055 104.11L81.145 100.501C80.8867 100.122 80.6393 99.8064 80.403 99.5544C80.1666 99.3024 79.9192 99.129 79.6609 99.034C79.4053 98.9243 79.1343 98.896 78.8479 98.9493C78.5614 99.0025 78.2464 99.1463 77.9026 99.3807C77.6647 99.5429 77.4612 99.7462 77.2921 99.9906C77.117 100.226 76.9836 100.485 76.8919 100.767C76.803 101.034 76.7601 101.322 76.7633 101.629C76.7693 101.922 76.83 102.21 76.9453 102.493L79.8114 106.697L78.7935 107.391L73.0883 99.0224L72.0439 99.7344L71.4401 98.8487ZM97.0135 94.9688L94.0122 90.5666C93.886 90.3815 93.757 90.2113 93.6252 90.0558C93.4962 89.8856 93.3602 89.7524 93.2172 89.6562C93.077 89.5452 92.9314 89.4831 92.7804 89.4699C92.6382 89.4507 92.4922 89.4921 92.3423 89.5943C92.0427 89.7986 91.8712 90.0962 91.8279 90.4872C91.7935 90.8722 91.8495 91.2858 91.9961 91.728L95.0966 96.2757L94.0919 96.9607L89.5854 90.3507L90.2728 89.882L91.0209 90.5533L91.0738 90.5172C91.0718 90.3249 91.0714 90.1445 91.0726 89.9758C91.0766 89.7923 91.1015 89.6205 91.1472 89.4602C91.2016 89.294 91.2888 89.1378 91.4086 88.9916C91.5223 88.8365 91.6938 88.6809 91.9229 88.5247C92.0551 88.4346 92.2068 88.3635 92.3778 88.3114C92.5429 88.2505 92.7127 88.2251 92.8874 88.2351C93.0649 88.2303 93.2457 88.2683 93.43 88.3493C93.6143 88.4302 93.7887 88.563 93.9534 88.7477C93.9217 88.2658 93.9632 87.8437 94.0778 87.4816C94.2012 87.1135 94.4832 86.7792 94.9239 86.4787C95.2147 86.2805 95.4813 86.1697 95.7237 86.1465C95.9749 86.1172 96.212 86.1621 96.4351 86.2811C96.6611 86.3853 96.8788 86.5531 97.0883 86.7847C97.3006 87.0014 97.5119 87.264 97.7222 87.5725L100.94 92.292L99.9351 92.977L96.8707 88.4822C96.7445 88.2971 96.6185 88.1313 96.4928 87.9846C96.361 87.8292 96.2266 87.7078 96.0896 87.6205C95.9614 87.5271 95.8292 87.4753 95.693 87.4648C95.5656 87.4484 95.4314 87.4883 95.2904 87.5844C94.9819 87.7947 94.806 88.0953 94.7628 88.4863C94.7195 88.8773 94.8012 89.338 95.0079 89.8684L98.0182 94.2839L97.0135 94.9688ZM104.894 88.105L105.396 87.7625L103.223 81.0529L104.294 80.3229L106.503 87.5114C106.617 87.886 106.753 88.3032 106.911 88.7631C107.085 89.2258 107.196 89.6921 107.245 90.162C107.295 90.6319 107.242 91.094 107.087 91.5482C106.932 92.0025 106.598 92.4039 106.087 92.7524C105.973 92.8305 105.84 92.9014 105.69 92.9651C105.549 93.0228 105.401 93.0716 105.248 93.1117C105.1 93.1606 104.956 93.1946 104.814 93.2138C104.672 93.233 104.557 93.2342 104.468 93.2174L104.189 92.0132C104.272 92.0212 104.373 92.0172 104.491 92.0012C104.618 91.9792 104.743 91.9453 104.867 91.8997C105.006 91.8568 105.134 91.8081 105.251 91.7537C105.375 91.708 105.472 91.6611 105.543 91.6131C106.204 91.1624 106.272 90.2963 105.747 89.0148L104.861 89.6187L97.5783 84.9014L98.7681 84.0903L104.894 88.105ZM119.321 71.5688C119.071 71.6365 118.811 71.7294 118.543 71.8476C118.278 71.9509 118.031 72.0807 117.802 72.237C116.938 72.8258 116.433 73.4671 116.286 74.161C116.14 74.8548 116.367 75.6424 116.968 76.5237C117.232 76.9115 117.531 77.2175 117.865 77.4419C118.192 77.6574 118.543 77.7928 118.916 77.8481C119.29 77.9034 119.674 77.8802 120.069 77.7785C120.473 77.6707 120.869 77.4847 121.257 77.2203C121.671 76.9379 122.024 76.594 122.316 76.1886C122.617 75.7772 122.821 75.3668 122.929 74.9574L123.914 75.4087C123.863 75.5986 123.784 75.8139 123.677 76.0546C123.57 76.2954 123.429 76.5528 123.255 76.8268C123.083 77.0859 122.868 77.3485 122.61 77.6145C122.362 77.8745 122.065 78.1216 121.722 78.356C121.149 78.7465 120.588 79.0127 120.039 79.1545C119.493 79.2815 118.973 79.2943 118.477 79.1929C117.976 79.0827 117.507 78.8672 117.068 78.5463C116.624 78.2166 116.225 77.7918 115.87 77.2718C115.492 76.7165 115.23 76.1719 115.086 75.6379C114.95 75.0979 114.928 74.5833 115.021 74.0942C115.113 73.6051 115.316 73.1444 115.628 72.7122C115.934 72.2711 116.342 71.8764 116.854 71.5279C117.506 71.0832 118.074 70.78 118.557 70.6182C119.049 70.4503 119.485 70.3408 119.863 70.2895L119.877 70.3382L121.129 72.1758L120.178 72.8247L119.321 71.5688ZM122.53 68.6455C122.759 68.1668 123.078 67.7167 123.488 67.2953C123.898 66.8739 124.332 66.507 124.79 66.1945C125.239 65.8881 125.653 65.7093 126.031 65.658C126.418 65.6007 126.769 65.6326 127.084 65.7536C127.402 65.8597 127.686 66.0402 127.937 66.295C128.191 66.535 128.418 66.8004 128.616 67.0912C128.844 67.4261 129.079 67.7891 129.319 68.1801C129.56 68.571 129.805 68.959 130.055 69.344C130.355 69.7847 130.667 70.1853 130.99 70.5458L131.876 69.942L132.462 70.8013L130.704 72L129.909 71.0896L129.843 71.1347C129.844 71.25 129.834 71.4055 129.812 71.601C129.79 71.7964 129.733 72.016 129.641 72.2595C129.552 72.4883 129.414 72.7308 129.227 72.9872C129.041 73.2436 128.78 73.4859 128.445 73.7142C127.793 74.1589 127.163 74.3429 126.556 74.2664C125.948 74.1899 125.446 73.8608 125.05 73.2791C124.743 72.8296 124.585 72.3889 124.575 71.9571C124.573 71.5192 124.703 71.0948 124.965 70.6838C125.227 70.2728 125.609 69.8768 126.111 69.4959C126.622 69.1089 127.236 68.7416 127.955 68.3939C127.722 67.9585 127.499 67.6206 127.283 67.3802C127.07 67.125 126.853 66.9572 126.63 66.8766C126.416 66.7901 126.187 66.7851 125.942 66.8616C125.7 66.9233 125.433 67.0532 125.143 67.2515C124.746 67.5219 124.406 67.8376 124.123 68.1985C123.834 68.5506 123.587 68.8801 123.383 69.1869L122.53 68.6455ZM128.105 72.6482C128.352 72.48 128.554 72.2841 128.712 72.0606C128.869 71.8371 128.985 71.6095 129.06 71.378C129.134 71.1465 129.176 70.9241 129.186 70.711C129.19 70.4891 129.173 70.294 129.135 70.1257L128.505 69.2003C127.992 69.4335 127.542 69.6822 127.154 69.9466C126.767 70.211 126.462 70.4834 126.24 70.7638C126.012 71.0354 125.879 71.3134 125.84 71.5978C125.802 71.8822 125.879 72.1655 126.071 72.4475C126.269 72.7383 126.54 72.9278 126.884 73.016C127.231 73.0893 127.638 72.9667 128.105 72.6482ZM137.758 64.5767C137.565 64.2947 137.308 64.1539 136.985 64.1543C136.657 64.1458 136.3 64.2087 135.913 64.3429C135.521 64.4683 135.104 64.6235 134.662 64.8086C134.229 64.9876 133.805 65.1222 133.388 65.2123C132.972 65.3024 132.579 65.3124 132.208 65.2423C131.832 65.1634 131.505 64.9212 131.229 64.5158C131 64.1809 130.876 63.8464 130.854 63.5123C130.842 63.1722 130.904 62.8461 131.04 62.534C131.169 62.2132 131.369 61.9093 131.638 61.6225C131.901 61.3269 132.205 61.0619 132.549 60.8276C133.165 60.407 133.748 60.1258 134.297 59.984C134.849 59.8274 135.314 59.7426 135.692 59.7298L135.837 60.8511C135.438 60.8908 135.019 60.9572 134.579 61.0506C134.142 61.1291 133.668 61.3426 133.157 61.6911C132.963 61.8233 132.784 61.9775 132.62 62.1537C132.459 62.3152 132.326 62.4896 132.222 62.6771C132.126 62.8586 132.075 63.0484 132.068 63.2467C132.064 63.4302 132.125 63.6145 132.251 63.7996C132.407 64.0287 132.638 64.1299 132.942 64.103C133.246 64.0762 133.592 63.9957 133.978 63.8615C134.358 63.7185 134.765 63.5575 135.198 63.3784C135.634 63.1846 136.063 63.047 136.485 62.9657C136.907 62.8844 137.31 62.8876 137.692 62.9753C138.075 63.0631 138.404 63.3097 138.681 63.7151C139.095 64.3232 139.195 64.9908 138.981 65.7179C138.775 66.4389 138.192 67.1269 137.232 67.7819C136.941 67.9801 136.636 68.149 136.318 68.2884C136 68.4278 135.688 68.5375 135.381 68.6176C135.074 68.6977 134.783 68.754 134.508 68.7865C134.228 68.8101 133.982 68.8097 133.772 68.7852L133.715 67.5654C133.892 67.5991 134.109 67.6131 134.363 67.6075C134.611 67.5931 134.871 67.5578 135.143 67.5018C135.415 67.4457 135.687 67.363 135.961 67.2536C136.244 67.1383 136.509 66.9965 136.756 66.8282C136.994 66.666 137.202 66.4982 137.381 66.3247C137.562 66.1364 137.705 65.9486 137.81 65.7611C137.908 65.5648 137.957 65.3705 137.955 65.1782C137.955 64.9711 137.89 64.7706 137.758 64.5767ZM147.536 59.3041C147.474 59.5533 147.374 59.8147 147.238 60.0883C147.111 60.3559 146.949 60.6209 146.754 60.8833C146.558 61.1456 146.335 61.395 146.083 61.6314C145.845 61.8705 145.586 62.0862 145.304 62.2785C144.775 62.639 144.254 62.8781 143.74 62.9959C143.221 63.1048 142.722 63.1026 142.245 62.9892C141.761 62.867 141.305 62.6425 140.875 62.3156C140.446 61.9887 140.051 61.5608 139.69 61.032C139.312 60.4768 139.05 59.9322 138.906 59.3982C138.77 58.8582 138.748 58.3436 138.841 57.8545C138.933 57.3654 139.136 56.9047 139.448 56.4725C139.754 56.0314 140.162 55.6366 140.674 55.2881C141.044 55.0358 141.443 54.8349 141.87 54.6855C142.297 54.5361 142.741 54.5048 143.2 54.5918C143.663 54.6639 144.131 54.8869 144.605 55.2606C145.074 55.6256 145.541 56.1977 146.008 56.9768L140.892 60.4648C141.432 61.258 142.049 61.7087 142.743 61.8169C143.439 61.9103 144.144 61.7136 144.858 61.2269C145.096 61.0647 145.312 60.879 145.505 60.6699C145.701 60.446 145.877 60.2223 146.035 59.9987C146.192 59.7752 146.317 59.5609 146.41 59.3558C146.511 59.1447 146.579 58.9694 146.613 58.83L147.536 59.3041ZM141.295 56.1426C141.004 56.3409 140.747 56.561 140.525 56.803C140.312 57.0389 140.155 57.3009 140.054 57.5889C139.956 57.8621 139.922 58.1628 139.952 58.4909C139.985 58.8041 140.101 59.1446 140.3 59.5124L144.412 56.7094C143.971 56.1577 143.475 55.8375 142.924 55.7485C142.376 55.6447 141.833 55.7761 141.295 56.1426ZM72.5923 130.789C72.4001 130.507 72.1427 130.367 71.8202 130.367C71.4917 130.358 71.1344 130.421 70.7482 130.556C70.356 130.681 69.939 130.836 69.4971 131.021C69.0641 131.2 68.6394 131.335 68.2232 131.425C67.807 131.515 67.4136 131.525 67.0431 131.455C66.6665 131.376 66.34 131.134 66.0636 130.728C65.8353 130.394 65.7105 130.059 65.6893 129.725C65.6769 129.385 65.7386 129.059 65.8744 128.747C66.0042 128.426 66.2037 128.122 66.4729 127.835C66.7361 127.54 67.0396 127.275 67.3833 127.04C68.0003 126.62 68.5831 126.338 69.132 126.197C69.6836 126.04 70.1487 125.955 70.5272 125.942L70.672 127.064C70.273 127.103 69.8536 127.17 69.4137 127.263C68.9767 127.342 68.5026 127.555 67.9914 127.904C67.7975 128.036 67.6186 128.19 67.4548 128.366C67.2937 128.528 67.1609 128.702 67.0564 128.89C66.9606 129.071 66.9093 129.261 66.9025 129.459C66.8985 129.643 66.9596 129.827 67.0858 130.012C67.242 130.241 67.4723 130.343 67.7768 130.316C68.0812 130.289 68.4266 130.208 68.8127 130.074C69.1929 129.931 69.5995 129.77 70.0326 129.591C70.4684 129.397 70.8975 129.26 71.3197 129.178C71.7419 129.097 72.1443 129.1 72.5269 129.188C72.9095 129.276 73.2389 129.522 73.5153 129.928C73.9299 130.536 74.03 131.203 73.8157 131.93C73.6102 132.652 73.0271 133.34 72.0664 133.994C71.7756 134.193 71.4711 134.362 71.1531 134.501C70.835 134.64 70.5225 134.75 70.2157 134.83C69.9088 134.91 69.618 134.967 69.3432 134.999C69.0623 135.023 68.8168 135.022 68.6065 134.998L68.5494 133.778C68.7273 133.812 68.9434 133.826 69.1978 133.82C69.4461 133.806 69.7061 133.77 69.9777 133.714C70.2493 133.658 70.5222 133.576 70.7962 133.466C71.079 133.351 71.3438 133.209 71.5906 133.041C71.8285 132.879 72.0368 132.711 72.2155 132.537C72.397 132.349 72.54 132.161 72.6446 131.974C72.7431 131.777 72.7914 131.583 72.7894 131.391C72.7902 131.184 72.7245 130.983 72.5923 130.789ZM71.8489 124.228L73.4221 123.156L72.5298 121.847L73.3627 120.853L74.4532 122.453L77.983 120.046L78.5868 120.932L75.0571 123.338L77.1841 126.458C77.6228 127.102 78.1015 127.472 78.6202 127.571C79.1478 127.663 79.7025 127.51 80.2841 127.114C80.6807 126.843 80.9734 126.534 81.1621 126.186C81.3596 125.832 81.5172 125.486 81.635 125.147L82.5105 125.693C82.3703 126.15 82.1353 126.601 81.8056 127.045C81.4847 127.483 81.0995 127.855 80.65 128.162C80.2975 128.402 79.9265 128.578 79.5372 128.688C79.1626 128.802 78.7842 128.834 78.4021 128.784C78.0199 128.735 77.6472 128.595 77.2838 128.365C76.9145 128.127 76.5736 127.778 76.2611 127.32L74.0259 124.041L72.4528 125.114L71.8489 124.228ZM84.1647 115.832L86.042 114.552L89.1154 119.06C89.4098 119.492 89.7186 119.888 90.0419 120.248L90.9276 119.644L91.5135 120.504L89.7552 121.703L88.9495 120.606L88.8966 120.642C88.9258 121.177 88.8321 121.693 88.6153 122.189C88.3986 122.686 88.0214 123.117 87.4838 123.483C87.0784 123.76 86.6972 123.949 86.3403 124.05C85.9982 124.154 85.6565 124.155 85.3152 124.052C84.9739 123.949 84.6299 123.738 84.2834 123.419C83.9309 123.091 83.5594 122.641 83.1688 122.068L81.186 119.16L80.3003 119.764L79.6964 118.878L81.6133 117.571L84.0558 121.154C84.3021 121.515 84.5377 121.832 84.7624 122.105C84.9899 122.363 85.2213 122.56 85.4564 122.697C85.6855 122.825 85.9287 122.878 86.1859 122.858C86.4459 122.823 86.7345 122.697 87.0518 122.481C87.5101 122.168 87.8045 121.748 87.9351 121.22C88.0746 120.686 88.0792 120.134 87.949 119.564L85.6147 116.14L84.7686 116.717L84.1647 115.832ZM90.1039 107.91L92.2455 106.449L97.0134 113.443C97.0674 113.522 97.1409 113.62 97.2339 113.738C97.3208 113.846 97.4137 113.964 97.5127 114.09C97.6204 114.21 97.7282 114.33 97.8359 114.451C97.9377 114.562 98.0304 114.66 98.1141 114.745L98.9999 114.141L99.5857 115L97.8275 116.199L97.0013 115.271L96.9484 115.307C96.9828 115.774 96.8843 116.255 96.6527 116.748C96.4239 117.227 96.0584 117.638 95.556 117.98C94.5601 118.659 93.6349 118.883 92.7805 118.652C91.9288 118.407 91.1004 117.694 90.2953 116.513C89.9167 115.957 89.6626 115.414 89.5328 114.883C89.397 114.343 89.3784 113.833 89.477 113.352C89.5783 112.857 89.7851 112.394 90.0971 111.961C90.4092 111.529 90.8208 111.139 91.332 110.79C91.5171 110.664 91.6831 110.557 91.8302 110.47C91.986 110.377 92.1316 110.297 92.267 110.23C92.4024 110.164 92.535 110.112 92.6648 110.075C92.7974 110.024 92.9418 109.97 93.0981 109.915L91.8182 108.038L90.7078 108.795L90.1039 107.91ZM95.124 116.977C95.6616 116.611 95.9915 116.186 96.1137 115.702C96.2299 115.21 96.156 114.647 95.8921 114.014L93.8011 110.947C93.517 110.947 93.2306 111 92.9418 111.106C92.6618 111.207 92.3235 111.392 91.9269 111.663C91.2218 112.143 90.8078 112.729 90.6848 113.42C90.5557 114.102 90.7917 114.883 91.3925 115.764C91.6389 116.126 91.9011 116.444 92.1791 116.719C92.4599 116.98 92.7533 117.173 93.0593 117.3C93.3742 117.421 93.7045 117.461 94.0502 117.419C94.3959 117.377 94.7539 117.23 95.124 116.977ZM101.114 113.958L100.51 113.073L102.81 111.504L99.5118 106.666L97.2115 108.234L96.6076 107.348L99.9655 105.059L103.868 110.783L106.115 109.251L106.719 110.137L101.114 113.958ZM97.2711 104.146C97.1089 103.908 97.05 103.652 97.0945 103.376C97.1329 103.092 97.2756 102.865 97.5223 102.697C97.7779 102.523 98.0495 102.467 98.3372 102.529C98.6276 102.576 98.8539 102.719 99.0161 102.957C99.1724 103.186 99.2164 103.44 99.1483 103.719C99.089 103.991 98.9316 104.215 98.676 104.389C98.4292 104.557 98.1724 104.616 97.9056 104.566C97.6388 104.515 97.4273 104.375 97.2711 104.146ZM114.078 103.9C114.016 104.149 113.916 104.41 113.78 104.684C113.653 104.952 113.491 105.217 113.296 105.479C113.1 105.741 112.877 105.991 112.625 106.227C112.388 106.466 112.128 106.682 111.846 106.874C111.317 107.235 110.796 107.474 110.282 107.592C109.763 107.701 109.264 107.698 108.787 107.585C108.303 107.463 107.847 107.238 107.417 106.911C106.988 106.584 106.593 106.157 106.232 105.628C105.854 105.073 105.592 104.528 105.448 103.994C105.312 103.454 105.29 102.939 105.383 102.45C105.475 101.961 105.678 101.5 105.99 101.068C106.296 100.627 106.705 100.232 107.216 99.8839C107.586 99.6315 107.985 99.4306 108.412 99.2812C108.84 99.1318 109.283 99.1006 109.742 99.1875C110.205 99.2596 110.673 99.4826 111.147 99.8564C111.616 100.221 112.083 100.793 112.55 101.573L107.434 105.061C107.974 105.854 108.591 106.304 109.285 106.413C109.981 106.506 110.686 106.309 111.4 105.823C111.638 105.66 111.854 105.475 112.047 105.266C112.243 105.042 112.419 104.818 112.577 104.594C112.734 104.371 112.859 104.157 112.952 103.952C113.053 103.74 113.121 103.565 113.155 103.426L114.078 103.9ZM107.837 100.738C107.546 100.937 107.29 101.157 107.067 101.399C106.854 101.635 106.697 101.897 106.596 102.185C106.498 102.458 106.464 102.759 106.494 103.087C106.527 103.4 106.643 103.74 106.842 104.108L110.954 101.305C110.513 100.753 110.017 100.433 109.466 100.344C108.918 100.24 108.375 100.372 107.837 100.738ZM120.153 98.364C119.961 98.082 119.704 97.9411 119.381 97.9415C119.053 97.9331 118.695 97.996 118.309 98.1302C117.917 98.2555 117.5 98.4108 117.058 98.5958C116.625 98.7749 116.2 98.9094 115.784 98.9996C115.368 99.0897 114.974 99.0997 114.604 99.0296C114.227 98.9506 113.901 98.7085 113.625 98.3031C113.396 97.9681 113.271 97.6336 113.25 97.2995C113.238 96.9594 113.299 96.6334 113.435 96.3213C113.565 96.0004 113.765 95.6966 114.034 95.4098C114.297 95.1141 114.6 94.8492 114.944 94.6148C115.561 94.1942 116.144 93.913 116.693 93.7712C117.244 93.6146 117.71 93.5299 118.088 93.5171L118.233 94.6384C117.834 94.678 117.414 94.7445 116.975 94.8378C116.538 94.9163 116.063 95.1298 115.552 95.4783C115.358 95.6105 115.18 95.7647 115.016 95.941C114.855 96.1024 114.722 96.2769 114.617 96.4644C114.521 96.6458 114.47 96.8357 114.463 97.034C114.459 97.2175 114.52 97.4017 114.647 97.5868C114.803 97.816 115.033 97.9171 115.338 97.8903C115.642 97.8635 115.987 97.783 116.374 97.6488C116.754 97.5058 117.16 97.3448 117.593 97.1657C118.029 96.9718 118.458 96.8342 118.881 96.7529C119.303 96.6716 119.705 96.6749 120.088 96.7626C120.47 96.8503 120.8 97.0969 121.076 97.5023C121.491 98.1104 121.591 98.778 121.377 99.5051C121.171 100.226 120.588 100.914 119.627 101.569C119.336 101.767 119.032 101.936 118.714 102.076C118.396 102.215 118.083 102.325 117.777 102.405C117.47 102.485 117.179 102.541 116.904 102.574C116.623 102.597 116.378 102.597 116.167 102.572L116.11 101.353C116.288 101.386 116.504 101.4 116.759 101.395C117.007 101.38 117.267 101.345 117.539 101.289C117.81 101.233 118.083 101.15 118.357 101.041C118.64 100.926 118.905 100.784 119.151 100.615C119.389 100.453 119.598 100.285 119.776 100.112C119.958 99.9237 120.101 99.7358 120.205 99.5483C120.304 99.3521 120.352 99.1578 120.35 98.9655C120.351 98.7584 120.285 98.5579 120.153 98.364ZM129.934 89.4691C129.206 88.4027 128.91 87.3718 129.045 86.3763C129.174 85.372 129.753 84.5184 130.785 83.8154C131.34 83.4368 131.879 83.2049 132.402 83.1196C132.927 83.0195 133.427 83.0335 133.902 83.1617C134.377 83.2899 134.82 83.5235 135.232 83.8624C135.652 84.1953 136.028 84.6041 136.358 85.0889C136.719 85.6177 136.976 86.1461 137.129 86.674C137.277 87.1932 137.316 87.6958 137.247 88.1817C137.178 88.6676 136.998 89.1325 136.707 89.5763C136.418 90.0054 136.019 90.3941 135.507 90.7426C134.961 91.1152 134.425 91.3515 133.899 91.4516C133.368 91.5429 132.865 91.5245 132.39 91.3963C131.915 91.2681 131.468 91.0375 131.047 90.7046C130.635 90.3657 130.264 89.9539 129.934 89.4691ZM131.031 88.7211C131.241 89.0295 131.487 89.314 131.767 89.5744C132.057 89.8288 132.37 90.0223 132.705 90.1549C133.041 90.2875 133.392 90.3386 133.759 90.3081C134.134 90.2717 134.516 90.1213 134.903 89.8569C135.609 89.3762 135.99 88.7998 136.048 88.1276C136.109 87.4406 135.851 86.674 135.274 85.8279C135.058 85.5106 134.808 85.2292 134.525 84.9836C134.244 84.7232 133.931 84.5297 133.587 84.4031C133.251 84.2705 132.895 84.2225 132.52 84.2589C132.153 84.2893 131.776 84.4367 131.388 84.7011C130.683 85.1818 130.302 85.7582 130.244 86.4304C130.186 87.1026 130.448 87.8662 131.031 88.7211ZM137.66 82.749C137.606 82.6696 137.533 82.5713 137.44 82.4539C137.35 82.3217 137.255 82.1925 137.156 82.0663C137.051 81.9313 136.945 81.8037 136.837 81.6835C136.738 81.5573 136.647 81.4518 136.563 81.3669L135.677 81.9707L135.092 81.1114L136.863 79.9037L137.712 80.8934L137.778 80.8483C137.764 80.6384 137.78 80.4149 137.824 80.1777C137.872 79.9258 137.954 79.6764 138.07 79.4296C138.179 79.1741 138.329 78.9299 138.519 78.6972C138.709 78.4644 138.936 78.2579 139.201 78.0777C139.606 77.8013 139.993 77.602 140.361 77.4798C140.739 77.3516 141.107 77.333 141.466 77.424C141.828 77.5001 142.194 77.696 142.564 78.0117C142.928 78.3186 143.311 78.7672 143.714 79.3577L146.301 83.1519L145.269 83.8549L142.818 80.259C142.319 79.5275 141.825 79.0578 141.334 78.8499C140.844 78.642 140.286 78.7513 139.66 79.1779C139.431 79.3341 139.239 79.5358 139.085 79.783C138.934 80.0153 138.821 80.2665 138.747 80.5365C138.673 80.8065 138.639 81.0879 138.645 81.3808C138.645 81.6648 138.689 81.938 138.777 82.2004L141.607 86.3514L140.589 87.0454L137.66 82.749ZM88.3532 130.888L90.4948 129.428L95.2627 136.422C95.3167 136.501 95.3903 136.599 95.4832 136.717C95.5701 136.825 95.663 136.943 95.762 137.069C95.8697 137.189 95.9775 137.309 96.0853 137.429C96.187 137.541 96.2797 137.639 96.3635 137.724L97.2492 137.12L97.835 137.979L96.0768 139.178L95.2506 138.25L95.1977 138.286C95.2321 138.753 95.1336 139.234 94.902 139.727C94.6733 140.206 94.3077 140.616 93.8053 140.959C92.8094 141.638 91.8843 141.862 91.0298 141.631C90.1781 141.386 89.3497 140.672 88.5446 139.491C88.166 138.936 87.9119 138.393 87.7821 137.862C87.6463 137.322 87.6277 136.812 87.7263 136.331C87.8276 135.836 88.0344 135.372 88.3464 134.94C88.6585 134.508 89.0702 134.118 89.5813 133.769C89.7664 133.643 89.9325 133.536 90.0795 133.449C90.2353 133.355 90.3809 133.276 90.5163 133.209C90.6517 133.143 90.7843 133.091 90.9141 133.054C91.0467 133.002 91.1911 132.949 91.3474 132.894L90.0675 131.017L88.9571 131.774L88.3532 130.888ZM93.3733 139.956C93.9109 139.589 94.2409 139.164 94.3631 138.681C94.4792 138.189 94.4054 137.626 94.1414 136.992L92.0504 133.925C91.7664 133.925 91.4799 133.979 91.1911 134.085C90.9111 134.186 90.5728 134.371 90.1762 134.642C89.4711 135.122 89.0571 135.708 88.9341 136.399C88.8051 137.08 89.041 137.862 89.6418 138.743C89.8882 139.105 90.1504 139.423 90.4284 139.698C90.7092 139.958 91.0026 140.152 91.3087 140.279C91.6235 140.4 91.9538 140.44 92.2995 140.398C92.6452 140.356 93.0032 140.208 93.3733 139.956ZM104.401 132.283C104.338 132.532 104.239 132.793 104.103 133.067C103.975 133.335 103.814 133.6 103.618 133.862C103.423 134.124 103.199 134.374 102.947 134.61C102.71 134.849 102.45 135.065 102.168 135.257C101.64 135.618 101.118 135.857 100.605 135.975C100.085 136.084 99.5867 136.081 99.1092 135.968C98.6257 135.846 98.1693 135.621 97.7398 135.294C97.3104 134.967 96.9154 134.54 96.5549 134.011C96.1764 133.456 95.9148 132.911 95.7702 132.377C95.6344 131.837 95.6128 131.322 95.7054 130.833C95.7979 130.344 96.0002 129.883 96.3123 129.451C96.6184 129.01 97.027 128.615 97.5382 128.267C97.9083 128.015 98.3071 127.814 98.7346 127.664C99.162 127.515 99.6055 127.484 100.065 127.571C100.527 127.643 100.996 127.866 101.47 128.239C101.938 128.604 102.406 129.176 102.872 129.956L97.7561 133.444C98.2969 134.237 98.914 134.687 99.6074 134.796C100.304 134.889 101.009 134.692 101.723 134.206C101.961 134.043 102.176 133.858 102.369 133.649C102.565 133.425 102.742 133.201 102.899 132.977C103.057 132.754 103.182 132.54 103.274 132.335C103.376 132.123 103.443 131.948 103.477 131.809L104.401 132.283ZM98.1595 129.121C97.8686 129.32 97.612 129.54 97.3897 129.782C97.1762 130.018 97.0191 130.28 96.9186 130.568C96.8208 130.841 96.787 131.142 96.817 131.47C96.8498 131.783 96.9658 132.123 97.1649 132.491L101.276 129.688C100.836 129.136 100.34 128.816 99.7885 128.727C99.2401 128.623 98.6971 128.755 98.1595 129.121ZM110.476 126.747C110.283 126.465 110.026 126.324 109.704 126.325C109.375 126.316 109.018 126.379 108.632 126.513C108.239 126.639 107.822 126.794 107.38 126.979C106.947 127.158 106.523 127.292 106.107 127.383C105.69 127.473 105.297 127.483 104.926 127.413C104.55 127.334 104.223 127.091 103.947 126.686C103.719 126.351 103.594 126.017 103.573 125.683C103.56 125.342 103.622 125.016 103.758 124.704C103.888 124.383 104.087 124.08 104.356 123.793C104.62 123.497 104.923 123.232 105.267 122.998C105.884 122.577 106.467 122.296 107.015 122.154C107.567 121.998 108.032 121.913 108.411 121.9L108.555 123.021C108.156 123.061 107.737 123.128 107.297 123.221C106.86 123.299 106.386 123.513 105.875 123.861C105.681 123.994 105.502 124.148 105.338 124.324C105.177 124.485 105.044 124.66 104.94 124.847C104.844 125.029 104.793 125.219 104.786 125.417C104.782 125.6 104.843 125.785 104.969 125.97C105.125 126.199 105.356 126.3 105.66 126.273C105.965 126.247 106.31 126.166 106.696 126.032C107.076 125.889 107.483 125.728 107.916 125.549C108.352 125.355 108.781 125.217 109.203 125.136C109.625 125.055 110.028 125.058 110.41 125.146C110.793 125.233 111.122 125.48 111.399 125.885C111.813 126.493 111.913 127.161 111.699 127.888C111.494 128.609 110.91 129.297 109.95 129.952C109.659 130.15 109.355 130.319 109.036 130.459C108.718 130.598 108.406 130.708 108.099 130.788C107.792 130.868 107.501 130.924 107.227 130.957C106.946 130.98 106.7 130.98 106.49 130.956L106.433 129.736C106.611 129.769 106.827 129.783 107.081 129.778C107.33 129.763 107.59 129.728 107.861 129.672C108.133 129.616 108.406 129.533 108.68 129.424C108.962 129.309 109.227 129.167 109.474 128.999C109.712 128.836 109.92 128.668 110.099 128.495C110.28 128.307 110.423 128.119 110.528 127.931C110.626 127.735 110.675 127.541 110.673 127.349C110.674 127.141 110.608 126.941 110.476 126.747ZM107.837 117.605L109.979 116.145L113.71 121.618L114.437 121.122L115.113 116.517L116.355 115.67L115.57 120.795L119.742 121.746L120.602 121.16L121.206 122.046L119.844 122.974L114.978 121.915L114.251 122.411L116.288 125.399L115.27 126.093L109.565 117.724L108.441 118.491L107.837 117.605ZM117.659 114.782L119.232 113.709L118.34 112.4L119.173 111.406L120.263 113.006L123.793 110.6L124.397 111.485L120.867 113.892L122.994 117.012C123.433 117.655 123.912 118.026 124.43 118.124C124.958 118.216 125.513 118.064 126.094 117.667C126.491 117.397 126.784 117.088 126.972 116.74C127.17 116.385 127.327 116.039 127.445 115.701L128.321 116.246C128.18 116.703 127.945 117.154 127.616 117.598C127.295 118.036 126.91 118.409 126.46 118.715C126.108 118.956 125.737 119.131 125.347 119.242C124.973 119.355 124.594 119.387 124.212 119.338C123.83 119.288 123.457 119.149 123.094 118.919C122.725 118.68 122.384 118.332 122.071 117.873L119.836 114.595L118.263 115.667L117.659 114.782ZM128.183 112.448C127.456 111.382 127.16 110.351 127.294 109.355C127.423 108.351 128.003 107.497 129.034 106.794C129.589 106.416 130.128 106.184 130.651 106.098C131.177 105.998 131.677 106.012 132.151 106.141C132.626 106.269 133.069 106.502 133.481 106.841C133.902 107.174 134.277 107.583 134.608 108.068C134.968 108.596 135.225 109.125 135.379 109.653C135.526 110.172 135.565 110.675 135.496 111.16C135.427 111.646 135.247 112.111 134.956 112.555C134.668 112.984 134.268 113.373 133.757 113.721C133.21 114.094 132.674 114.33 132.149 114.43C131.617 114.522 131.114 114.503 130.639 114.375C130.165 114.247 129.717 114.016 129.296 113.683C128.884 113.344 128.513 112.933 128.183 112.448ZM129.28 111.7C129.49 112.008 129.736 112.293 130.017 112.553C130.306 112.808 130.619 113.001 130.955 113.134C131.29 113.266 131.642 113.317 132.008 113.287C132.383 113.25 132.765 113.1 133.153 112.836C133.858 112.355 134.239 111.779 134.298 111.106C134.358 110.419 134.101 109.653 133.524 108.807C133.307 108.489 133.057 108.208 132.774 107.962C132.493 107.702 132.18 107.509 131.836 107.382C131.5 107.249 131.145 107.201 130.769 107.238C130.403 107.268 130.026 107.416 129.638 107.68C128.933 108.161 128.551 108.737 128.493 109.409C128.435 110.081 128.697 110.845 129.28 111.7ZM135.949 105.701C135.895 105.621 135.822 105.523 135.729 105.406C135.639 105.273 135.544 105.144 135.445 105.018C135.34 104.883 135.234 104.755 135.126 104.635C135.027 104.509 134.936 104.404 134.852 104.319L133.966 104.922L133.381 104.063L135.139 102.864L135.902 103.7L135.968 103.655C135.996 103.184 136.121 102.724 136.344 102.275C136.57 101.811 136.948 101.399 137.476 101.038C138.419 100.396 139.306 100.172 140.136 100.367C140.967 100.563 141.785 101.251 142.59 102.432C142.968 102.987 143.227 103.547 143.366 104.11C143.508 104.659 143.534 105.19 143.445 105.703C143.355 106.216 143.156 106.7 142.847 107.156C142.539 107.612 142.129 108.014 141.617 108.362C141.432 108.488 141.259 108.594 141.097 108.678C140.95 108.766 140.806 108.838 140.664 108.896C140.538 108.956 140.405 109.008 140.267 109.051C140.128 109.094 139.975 109.134 139.806 109.171L141.699 111.947L140.681 112.641L135.949 105.701ZM137.962 102.121C137.698 102.301 137.48 102.521 137.308 102.78C137.145 103.033 137.025 103.302 136.948 103.587C136.88 103.866 136.855 104.141 136.872 104.413C136.89 104.685 136.952 104.927 137.057 105.139L139.112 108.153C139.396 108.153 139.684 108.112 139.976 108.029C140.271 107.931 140.617 107.747 141.014 107.477C141.719 106.996 142.126 106.382 142.237 105.635C142.342 104.88 142.09 104.057 141.484 103.167C140.973 102.418 140.429 101.943 139.853 101.742C139.28 101.526 138.65 101.652 137.962 102.121Z" fill="#1E102C"/>
</g>
<defs>
<clipPath id="clip0_52754_38061">
<rect width="209" height="209" fill="white"/>
</clipPath>
</defs>
</svg>
