<svg width="2016" height="635" viewBox="0 0 2016 635" fill="none" xmlns="http://www.w3.org/2000/svg">
<path d="M271.688 7.91406H287.438L297.281 10.8672L308.109 16.7734L318.938 25.6328L329.766 36.4609L339.609 50.2422L348.469 65.9922L354.375 82.7266L357.328 95.5234L359.297 105.367L364.219 116.195L368.156 134.898L371.109 162.461L373.078 215.617L377.016 223.492L380.953 236.289L382.922 248.102L383.906 261.883V305.195L391.781 299.289H395.719L400.641 278.617L404.578 268.773H407.531L415.406 283.539L422.297 304.211L426.234 321.93V241.211L429.188 225.461L434.109 212.664L440.016 204.789L444.938 206.758L446.906 200.852L453.797 191.008L459.703 186.086L466.594 185.102L472.5 188.055L479.391 195.93L485.297 207.742L489.234 221.523L490.219 229.398V311.102L492.188 333.742L494.156 343.586H496.125L501.047 328.82L505.969 305.195L514.828 248.102L520.734 223.492L527.625 204.789L530.578 198.883H533.531L534.516 205.773V257.945L531.562 301.258L521.719 402.648L519.75 441.039V471.555L521.719 499.117L525.656 484.352L533.531 443.008L536.484 423.32L537.469 394.773L542.391 350.477L549.281 307.164L558.141 216.602L565.031 162.461L567.984 159.508L570.938 167.383L574.875 190.023L576.844 205.773L587.672 182.148L596.531 167.383L605.391 157.539L612.281 151.633L619.172 148.68H632.953L640.828 152.617L646.734 157.539L654.609 170.336L660.516 187.07L666.422 212.664L670.359 233.336H674.297L679.219 248.102L682.172 266.805V292.398L686.109 304.211V306.18L688.078 305.195L695.953 274.68L698.906 271.727L702.844 276.648L708.75 288.461L713.672 304.211L717.609 330.789L718.594 339.648L720.562 325.867L725.484 314.055L732.375 306.18L736.312 305.195L741.234 317.992L746.156 339.648L749.109 362.289L751.078 394.773V439.07L756.984 441.039H764.859L772.734 436.117L777.656 431.195L786.516 419.383L794.391 405.602L795.375 373.117L799.312 342.602L805.219 312.086L813.094 286.492L820.969 265.82L826.875 254.992L835.734 245.148L843.609 241.211H850.5L858.375 245.148L866.25 253.023L875.109 268.773L882.984 288.461L896.766 331.773L903.656 348.508L907.594 352.445L913.5 351.461L919.406 342.602L927.281 327.836L939.094 311.102L946.969 303.227L950.906 301.258H961.734L969.609 307.164L977.484 322.914L981.422 338.664V354.414L977.484 369.18L969.609 385.914L952.875 413.477L948.938 419.383V427.258L952.875 432.18H961.734L968.625 429.227L977.484 422.336L987.328 410.523L997.172 396.742L1006.03 385.914L1017.84 374.102L1025.72 370.164L1032.61 371.148L1036.55 375.086L1048.36 402.648L1053.28 408.555V410.523L1057.22 412.492L1065.09 414.461L1072.97 411.508L1082.81 402.648L1089.7 394.773L1098.56 386.898L1107.42 381.977H1117.27L1138.92 392.805L1164.52 402.648L1195.03 411.508L1214.72 415.445L1226.53 416.43H1237.36L1259.02 414.461L1307.25 406.586L1345.64 402.648L1376.16 400.68L1445.06 398.711L1512.98 397.727H1764.98L2003.2 400.68L2015.02 401.664V404.617L1742.34 401.664H1520.86L1434.23 402.648L1375.17 404.617L1335.8 407.57L1296.42 412.492L1258.03 418.398L1249.17 419.383H1213.73L1193.06 415.445L1155.66 403.633L1134.98 395.758L1114.31 385.914L1105.45 386.898L1096.59 392.805L1085.77 404.617L1078.88 412.492L1071 418.398L1062.14 419.383L1055.25 416.43L1048.36 410.523L1042.45 400.68L1034.58 382.961L1030.64 378.039L1028.67 377.055H1021.78L1013.91 382.961L1006.03 391.82L992.25 410.523L984.375 420.367L979.453 426.273L968.625 434.148L963.703 436.117H951.891L943.031 430.211L942.047 427.258L949.922 411.508L963.703 387.883L972.562 369.18L976.5 356.383L977.484 351.461V339.648L973.547 326.852L967.641 315.039L962.719 309.133L956.812 306.18L948.938 307.164L943.031 312.086L932.203 328.82L918.422 354.414L915.469 357.367H906.609L900.703 353.43L895.781 343.586L883.969 305.195L876.094 282.555L866.25 260.898L859.359 251.055L853.453 246.133L851.484 245.148H844.594L837.703 249.086L830.812 256.961L821.953 275.664L813.094 300.273L807.188 322.914L801.281 358.352L799.312 383.945V394.773L803.25 389.852L814.078 369.18L821.953 357.367L829.828 347.523L836.719 340.633L845.578 337.68L851.484 340.633L856.406 346.539L863.297 361.305L875.109 396.742L885.938 430.211V436.117L880.031 445.961L872.156 453.836L862.312 457.773L857.391 458.758H834.75L822.938 455.805L813.094 449.898L806.203 442.023L800.297 430.211L795.375 413.477L785.531 429.227L776.672 439.07L768.797 443.992L765.844 444.977H755.016L750.094 443.008L749.109 455.805L745.172 473.523H741.234L733.359 462.695L726.469 447.93L721.547 429.227L718.594 407.57L713.672 335.711L709.734 309.133L704.812 290.43L700.875 281.57V279.602H698.906L694.969 295.352L690.047 307.164L687.094 312.086L684.141 311.102L681.188 303.227L674.297 333.742L665.438 362.289L653.625 392.805L641.812 417.414L637.875 424.305L630 458.758L623.109 479.43L615.234 495.18L608.344 506.008L597.516 517.82H593.578L588.656 494.195L585.703 476.477L571.922 480.414H563.062L555.188 477.461L550.266 473.523L545.344 465.648L540.422 450.883L538.453 441.039L528.609 490.258L522.703 512.898H519.75L517.781 501.086L515.812 474.508V435.133L517.781 401.664L522.703 349.492L528.609 288.461L530.578 254.992L531.562 209.711L530.578 208.727L524.672 226.445L519.75 248.102L510.891 305.195L504.984 330.789L499.078 348.508L497.109 352.445H494.156L489.234 338.664L486.281 323.898L485.297 310.117V294.367L486.281 272.711V233.336L482.344 216.602L476.438 200.852L469.547 191.008L465.609 189.039L460.688 190.023L455.766 194.945L448.875 209.711L447.891 213.648L453.797 228.414L458.719 246.133L462.656 271.727L466.594 325.867L469.547 358.352L473.484 382.961L476.438 392.805L481.359 393.789L486.281 389.852L490.219 391.82L498.094 405.602L503.016 420.367L504.984 433.164V452.852L502.031 473.523L496.125 494.195L490.219 509.945L482.344 525.695L474.469 536.523L468.562 543.414L460.688 548.336L451.828 549.32L445.922 545.383L440.016 538.492L435.094 526.68L431.156 507.977L427.219 474.508L426.234 457.773L425.25 342.602L418.359 309.133L413.438 291.414L406.547 275.664L403.594 283.539L398.672 307.164L397.688 314.055V366.227L395.719 405.602L394.734 417.414L393.75 420.367L390.797 419.383L387.844 409.539L386.859 411.508L377.016 496.164L372.094 524.711L367.172 544.398L361.266 560.148L354.375 570.977L348.469 574.914H340.594L333.703 570.977L327.797 564.086L323.859 553.258L321.891 544.398L307.125 559.164L299.25 565.07H296.297L290.391 553.258L286.453 538.492L284.484 517.82V514.867L280.547 513.883L273.656 506.008L265.781 490.258L260.859 474.508L257.906 457.773L256.922 447.93L249.047 463.68L240.188 475.492L233.297 482.383L219.516 491.242L207.703 496.164H205.734L202.781 505.023L199.828 510.93L200.812 524.711L206.719 567.039L207.703 588.695L205.734 605.43L201.797 617.242L197.859 621.18H190.969L183.094 616.258L173.25 606.414L165.375 595.586L159.469 597.555L143.719 603.461L124.031 607.398L102.375 609.367H92.5312L73.8281 607.398L61.0312 603.461L52.1719 598.539L45.2812 592.633L39.375 580.82L38.3906 576.883V562.117L42.3281 547.352L50.2031 531.602L60.0469 517.82L72.8438 502.07L85.6406 485.336L100.406 461.711L105.328 454.82H88.5938L76.7812 450.883L73.8281 448.914V472.539L70.875 486.32L66.9375 496.164L63 497.148L58.0781 481.398L56.1094 467.617V433.164L46.2656 419.383L34.4531 394.773L22.6406 359.336L16.7344 335.711L14.7656 322.914V300.273L17.7188 290.43L20.6719 285.508L21.6562 261.883L25.5938 244.164L31.5 229.398L39.375 214.633L51.1875 198.883L62.0156 187.07L71.8594 178.211L85.6406 169.352L95.4844 165.414L103.359 164.43L100.406 154.586V146.711L105.328 134.898L115.172 123.086L128.953 112.258L146.672 102.414L169.312 93.5547L189.984 86.6641L199.828 69.9297L211.641 53.1953L222.469 40.3984L231.328 30.5547L238.219 23.6641L251.016 14.8047L261.844 10.8672L271.688 7.91406Z" fill="#4B4063"/>
<path d="M626.062 150.648L635.906 152.617L643.781 159.508L649.688 168.367L655.594 182.148L660.516 199.867L667.406 235.305V243.18L659.531 262.867L653.625 282.555L648.703 307.164L644.766 338.664L638.859 398.711L635.906 420.367L629.016 432.18L619.172 444.977L610.312 454.82L602.438 461.711L590.625 470.57H588.656L585.703 451.867L581.766 416.43L578.812 379.023L576.844 336.695V213.648L584.719 192.977L592.594 177.227L599.484 167.383L606.375 159.508L617.203 152.617L626.062 150.648Z" fill="#1E102C"/>
<path d="M444.938 218.57H446.906L452.812 236.289L457.734 260.898L460.688 285.508L464.625 343.586L467.578 369.18L472.5 392.805L475.453 401.664L479.391 399.695L484.312 396.742L489.234 397.727L493.172 402.648L498.094 414.461L501.047 432.18V454.82L498.094 474.508L493.172 493.211L485.297 512.898L476.438 528.648L465.609 540.461L459.703 544.398L453.797 545.383L447.891 542.43L442.969 536.523L438.047 524.711L434.109 508.961L431.156 482.383L429.188 449.898V411.508H430.172L435.094 443.992L438.047 444.977L436.078 404.617L432.141 367.211L430.172 352.445V339.648L432.141 302.242L435.094 270.742L441 234.32L444.938 218.57Z" fill="#1E102C"/>
<path d="M118.125 445.961L120.094 447.93L125.016 480.414L130.922 507.977L137.812 532.586L144.703 552.273L152.578 569.992L163.406 591.648L151.594 597.555L136.828 602.477L123.047 605.43L116.156 606.414H88.5938L72.8438 603.461L61.0312 598.539L53.1562 592.633L47.25 585.742L42.3281 574.914L41.3438 562.117L44.2969 550.305L52.1719 534.555L63.9844 518.805L75.7969 505.023L85.6406 492.227L101.391 467.617L113.203 450.883L118.125 445.961Z" fill="#1E102C"/>
<path d="M189.984 263.852H191.953L203.766 286.492L213.609 310.117H217.547L228.375 301.258L237.234 290.43L241.172 294.367L242.156 296.336V307.164L235.266 353.43L227.391 395.758L221.484 421.352L214.594 443.008L208.688 457.773L201.797 470.57L195.891 476.477H193.922L191.953 468.602L182.109 406.586L170.297 341.617V339.648L167.344 342.602L164.391 351.461H163.406L164.391 330.789L168.328 304.211L172.266 288.461L175.219 282.555L188.016 266.805L189.984 263.852Z" fill="#1E102C"/>
<path d="M186.047 91.5859L187.031 94.5391L186.047 97.4922V106.352L191.953 118.164L201.797 130.961L209.672 144.742L215.578 160.492L218.531 175.258V196.914L207.703 205.773L196.875 219.555L193.922 222.508L182.109 209.711L169.312 198.883L159.469 192.977L147.656 191.008L141.75 179.195L135.844 172.305L124.031 166.398L107.297 163.445L104.344 156.555V146.711L108.281 135.883L116.156 125.055L127.969 115.211L143.719 106.352L163.406 98.4766L186.047 91.5859Z" fill="#1E102C"/>
<path d="M357.328 111.273L360.281 114.227L364.219 128.008L366.188 141.789L369.141 188.055V210.695L361.266 214.633L351.422 223.492L342.562 236.289L341.578 238.258H339.609L333.703 213.648L330.75 205.773L324.844 206.758L315 213.648L309.094 218.57L299.25 231.367L290.391 247.117L282.516 263.852L278.578 272.711L274.641 267.789L266.766 254.008L272.672 211.68L274.641 201.836L284.484 184.117L297.281 163.445L310.078 144.742L311.062 143.758H334.688L343.547 139.82L350.438 133.914L354.375 126.039L356.344 119.148L357.328 111.273Z" fill="#1E102C"/>
<path d="M363.234 217.586H368.156L370.125 219.555L371.109 236.289V323.898L368.156 333.742L356.344 362.289L344.531 397.727L336.656 427.258L328.781 464.664L324.844 489.273L322.875 509.945L321.891 538.492L310.078 552.273L300.234 560.148H297.281L293.344 551.289L289.406 531.602L288.422 514.867L296.297 506.008L304.172 489.273L312.047 463.68L316.969 443.008L319.922 421.352L320.906 392.805L330.75 394.773L335.672 391.82L340.594 383.945L344.531 367.211L345.516 359.336L346.5 338.664V318.977L344.531 282.555L340.594 246.133L348.469 232.352L355.359 223.492L361.266 218.57L363.234 217.586Z" fill="#1E102C"/>
<path d="M843.609 340.633L850.5 343.586L856.406 353.43L865.266 376.07L874.125 404.617L882 432.18V439.07L879.047 443.992L872.156 449.898L862.312 453.836L853.453 455.805H838.688L826.875 452.852L817.031 446.945L809.156 438.086L803.25 425.289L800.297 414.461L799.312 404.617L808.172 388.867L820.969 366.227L830.812 351.461L837.703 343.586L843.609 340.633Z" fill="#1E102C"/>
<path d="M573.891 224.477H574.875V350.477L577.828 401.664L581.766 441.039L585.703 469.586L584.719 473.523L576.844 477.461L572.906 478.445H565.031L557.156 474.508L551.25 467.617L546.328 457.773L542.391 442.023L540.422 420.367L547.312 364.258L553.219 304.211L561.094 268.773L569.953 236.289L573.891 224.477Z" fill="#1E102C"/>
<path d="M101.391 167.383H107.297L117.141 177.227L132.891 187.07L142.734 192.977L141.75 196.914L136.828 204.789L131.906 219.555L128.953 237.273L116.156 246.133L114.188 245.148L108.281 229.398L102.375 219.555L93.5156 209.711L90.5625 207.742L86.625 208.727L79.7344 222.508L74.8125 238.258L71.8594 255.977L69.8906 283.539L68.9062 302.242L64.9688 298.305L58.0781 289.445L55.125 286.492L60.0469 261.883V250.07L57.0938 244.164H51.1875L44.2969 249.086L38.3906 260.898L35.4375 276.648L32.4844 279.602L24.6094 282.555L23.625 281.57L24.6094 265.82L28.5469 248.102L33.4688 234.32L40.3594 220.539L49.2188 207.742L58.0781 196.914L71.8594 183.133L85.6406 173.289L96.4688 168.367L101.391 167.383Z" fill="#1E102C"/>
<path d="M274.641 9.88281H286.453L298.266 13.8203L309.094 20.7109L318.938 29.5703L327.797 39.4141L337.641 54.1797L347.484 72.8828L352.406 87.6484L354.375 99.4609H344.531L336.656 103.398L327.797 112.258L317.953 127.023L310.078 139.82L297.281 143.758L283.5 150.648H281.531L282.516 141.789L287.438 108.32L290.391 79.7734V46.3047L287.438 31.5391L282.516 21.6953L274.641 14.8047L269.719 11.8516V10.8672L274.641 9.88281Z" fill="#1E102C"/>
<path d="M276.609 18.7422L282.516 26.6172L286.453 40.3984L287.438 49.2578V84.6953L284.484 113.242L278.578 150.648L276.609 154.586H274.641L269.719 129.977L264.797 117.18L257.906 105.367L250.031 96.5078L239.203 89.6172L226.406 85.6797L216.562 84.6953L218.531 73.8672L224.438 59.1016L233.297 42.3672L243.141 29.5703L252 20.7109L260.859 14.8047H268.734L276.609 18.7422Z" fill="#1E102C"/>
<path d="M378 319.961H379.969L380.953 351.461L383.906 382.961L384.891 389.852L383.906 407.57L376.031 476.477L371.109 509.945L365.203 536.523L358.312 557.195L353.391 566.055L347.484 570.977L340.594 571.961L335.672 569.008L329.766 560.148L325.828 545.383V537.508L333.703 526.68L343.547 507.977L351.422 487.305L358.312 463.68L363.234 440.055L367.172 412.492L370.125 380.992L373.078 329.805L378 319.961Z" fill="#1E102C"/>
<path d="M264.797 328.82L267.75 331.773L277.594 346.539L287.438 359.336L299.25 373.117L298.266 383.945L291.375 431.195L287.438 470.57L285.469 508.961H281.531L274.641 501.086L268.734 488.289L263.812 469.586L260.859 445.961V432.18L263.812 416.43L265.781 397.727V369.18L262.828 347.523V338.664L264.797 328.82Z" fill="#1E102C"/>
<path d="M215.578 86.6641L229.359 87.6484L241.172 91.5859L250.031 98.4766L257.906 107.336L264.797 121.117L269.719 139.82L271.688 157.539L255.938 170.336L243.141 182.148L234.281 191.008L230.344 187.07L221.484 163.445L216.562 146.711L213.609 128.008V98.4766L215.578 86.6641Z" fill="#1E102C"/>
<path d="M131.906 432.18H133.875L145.688 467.617L154.547 491.242L167.344 519.789L179.156 544.398L183.094 560.148L182.109 571.961L177.188 581.805L169.312 588.695L165.375 589.68L157.5 575.898L146.672 550.305L135.844 517.82L128.953 490.258L123.047 454.82L122.062 442.023L131.906 432.18Z" fill="#1E102C"/>
<path d="M1025.72 370.164L1032.61 371.148L1036.55 375.086L1048.36 402.648L1053.28 408.555V410.523L1057.22 412.492L1065.09 414.461L1072.97 411.508L1082.81 402.648L1089.7 394.773L1098.56 386.898L1107.42 381.977H1117.27L1138.92 392.805L1164.52 402.648L1195.03 411.508L1214.72 415.445L1226.53 416.43H1237.36L1259.02 414.461L1307.25 406.586L1345.64 402.648L1376.16 400.68L1445.06 398.711L1512.98 397.727H1764.98L2003.2 400.68L2015.02 401.664V404.617L1742.34 401.664H1520.86L1434.23 402.648L1375.17 404.617L1335.8 407.57L1296.42 412.492L1258.03 418.398L1249.17 419.383H1213.73L1193.06 415.445L1155.66 403.633L1134.98 395.758L1114.31 385.914L1105.45 386.898L1096.59 392.805L1085.77 404.617L1078.88 412.492L1071 418.398L1062.14 419.383L1055.25 416.43L1048.36 410.523L1042.45 400.68L1034.58 382.961L1030.64 378.039L1028.67 377.055H1021.78L1013.91 382.961L1006.03 391.82L992.25 410.523L984.375 420.367L979.453 426.273L968.625 434.148L963.703 436.117H951.891L943.031 430.211L942.047 427.258L945.984 419.383L948.938 417.414V427.258L952.875 432.18H961.734L968.625 429.227L977.484 422.336L987.328 410.523L997.172 396.742L1006.03 385.914L1017.84 374.102L1025.72 370.164Z" fill="#4B4063"/>
<path d="M252 321.93L253.969 323.898L258.891 341.617V352.445L256.922 385.914V436.117L252 449.898L244.125 464.664L233.297 476.477L224.438 484.352L209.672 492.227H207.703L210.656 481.398L231.328 400.68L251.016 323.898L252 321.93Z" fill="#1E102C"/>
<path d="M323.859 209.711H328.781L332.719 219.555L337.641 242.195L336.656 247.117L328.781 265.82L316.969 301.258L309.094 329.805L307.125 331.773L297.281 308.148L285.469 285.508L281.531 279.602L282.516 271.727L296.297 244.164L306.141 228.414L317.953 214.633L323.859 209.711Z" fill="#1E102C"/>
<path d="M85.6406 349.492L89.5781 350.477L98.4375 369.18L116.156 413.477L117.141 416.43L118.125 430.211V440.055L111.234 446.945L101.391 451.867L93.5156 452.852L81.7031 449.898L73.8281 444.977L72.8438 412.492V373.117L80.7188 355.398L85.6406 349.492Z" fill="#1E102C"/>
<path d="M337.641 252.039L339.609 254.008L342.562 280.586L343.547 297.32V354.414L340.594 375.086L336.656 385.914L332.719 389.852H323.859L319.922 386.898L315 359.336L309.094 337.68L313.031 320.945L321.891 291.414L332.719 262.867L337.641 252.039Z" fill="#1E102C"/>
<path d="M369.141 337.68H370.125L369.141 360.32L365.203 401.664L360.281 436.117L354.375 463.68L347.484 487.305L339.609 506.992L331.734 522.742L325.828 532.586H324.844V506.008L328.781 477.461L335.672 442.023L345.516 402.648L357.328 367.211L368.156 339.648L369.141 337.68Z" fill="#1E102C"/>
<path d="M165.375 294.367L167.344 295.352L159.469 326.852L156.516 347.523L154.547 380.992L146.672 400.68L136.828 419.383L133.875 421.352L126 394.773L122.062 380.008L123.047 371.148L126 362.289L127.969 349.492L128.953 322.914L134.859 298.305L142.734 304.211H152.578L159.469 300.273L164.391 296.336L165.375 294.367Z" fill="#1E102C"/>
<path d="M154.547 480.414L159.469 485.336L167.344 492.227L179.156 498.133L187.031 511.914L191.953 517.82L194.906 518.805L195.891 516.836L196.875 517.82L200.812 548.336L202.781 572.945V599.523L199.828 613.305L196.875 617.242H189.984L180.141 609.367L169.312 595.586L168.328 591.648L178.172 582.789L182.109 576.883L185.062 567.039V558.18L182.109 546.367L172.266 523.727L160.453 498.133L154.547 483.367V480.414Z" fill="#1E102C"/>
<path d="M22.6406 291.414L24.6094 292.398L28.5469 301.258L35.4375 309.133L38.3906 334.727L42.3281 351.461L49.2188 365.242L53.1562 369.18H55.125L63.9844 357.367L67.9219 350.477H68.9062L69.8906 363.273V373.117L63.9844 395.758L59.0625 424.305L57.0938 427.258L47.25 412.492L39.375 397.727L30.5156 374.102L23.625 347.523L20.6719 331.773L19.6875 320.945V307.164L21.6562 294.367L22.6406 291.414Z" fill="#1E102C"/>
<path d="M668.391 248.102H669.375L676.266 283.539L677.25 287.477V296.336L673.312 321.93L667.406 346.539L661.5 366.227L651.656 390.836L643.781 407.57L639.844 414.461L638.859 411.508L645.75 358.352L651.656 312.086L658.547 276.648L665.438 254.008L668.391 248.102Z" fill="#1E102C"/>
<path d="M301.219 376.07L308.109 381.977L315.984 388.867L316.969 393.789V423.32L314.016 445.961L308.109 469.586L300.234 493.211L294.328 505.023L290.391 508.961H288.422V494.195L291.375 447.93L296.297 404.617L300.234 379.023L301.219 376.07Z" fill="#1E102C"/>
<path d="M731.391 311.102L735.328 312.086L740.25 327.836L745.172 359.336L747.141 380.992V434.148L742.219 429.227L734.344 413.477L728.438 395.758L723.516 374.102L722.531 365.242V338.664L725.484 323.898L730.406 312.086L731.391 311.102Z" fill="#1E102C"/>
<path d="M231.328 199.867L234.281 202.82L246.094 225.461L248.062 228.414V254.008L247.078 263.852L238.219 281.57H236.25L214.594 249.086L207.703 239.242L209.672 233.336L214.594 222.508L218.531 213.648L225.422 206.758L231.328 199.867Z" fill="#1E102C"/>
<path d="M157.5 234.32H167.344L176.203 240.227L182.109 248.102L170.297 283.539L166.359 289.445L156.516 299.289L150.609 302.242H144.703L137.812 296.336L136.828 291.414L146.672 250.07L148.641 240.227L153.562 236.289L157.5 234.32Z" fill="#1E102C"/>
<path d="M278.578 281.57L281.531 284.523L292.359 305.195L303.188 330.789L306.141 339.648L305.156 347.523L301.219 368.195L297.281 366.227L284.484 351.461L272.672 334.727L266.766 324.883L267.75 314.055L274.641 291.414L278.578 281.57Z" fill="#1E102C"/>
<path d="M167.344 347.523L169.312 348.508L181.125 416.43L189.984 473.523V478.445L184.078 477.461L179.156 473.523L172.266 462.695L168.328 442.023L165.375 417.414L163.406 391.82V361.305L167.344 347.523Z" fill="#1E102C"/>
<path d="M153.562 386.898L155.531 387.883L158.484 416.43L163.406 440.055L168.328 462.695L173.25 482.383L177.188 493.211V495.18L171.281 493.211L162.422 485.336L156.516 475.492L149.625 454.82L143.719 427.258L141.75 425.289L135.844 426.273L137.812 421.352L150.609 394.773L153.562 386.898Z" fill="#1E102C"/>
<path d="M99.4219 293.383L101.391 296.336L104.344 317.008L111.234 346.539L117.141 370.164V376.07L112.219 377.055L106.312 373.117L101.391 365.242L89.5781 343.586L84.6562 331.773L81.7031 320.945V314.055L84.6562 305.195L97.4531 295.352L99.4219 293.383Z" fill="#1E102C"/>
<path d="M631.969 431.195H632.953L631.969 441.039L626.062 461.711L619.172 480.414L609.328 499.117L601.453 508.961L598.5 511.914L595.547 510.93L590.625 486.32L589.641 473.523L603.422 463.68L615.234 452.852L624.094 443.008L631.969 431.195Z" fill="#1E102C"/>
<path d="M204.75 243.18H206.719L219.516 260.898L235.266 284.523L228.375 295.352L219.516 305.195L215.578 307.164L208.688 292.398L197.859 269.758L193.922 262.867L194.906 256.961L201.797 247.117L204.75 243.18Z" fill="#1E102C"/>
<path d="M88.5938 211.68L93.5156 213.648L100.406 221.523L108.281 237.273L112.219 250.07L105.328 260.898L102.375 270.742L100.406 289.445L90.5625 298.305L85.6406 300.273L90.5625 275.664L91.5469 267.789V253.023L88.5938 239.242L83.6719 230.383L81.7031 225.461L85.6406 214.633L88.5938 211.68Z" fill="#1E102C"/>
<path d="M39.375 312.086L47.25 314.055H58.0781L68.9062 313.07V340.633L58.0781 361.305L55.125 364.258L51.1875 363.273L46.2656 353.43L41.3438 335.711L39.375 322.914V312.086Z" fill="#1E102C"/>
<path d="M270.703 162.461H271.688V183.133L263.812 214.633L257.906 234.32L255.938 236.289L250.031 225.461L247.078 206.758L243.141 196.914L240.188 192.977L241.172 190.023L249.047 183.133L265.781 166.398L270.703 162.461Z" fill="#1E102C"/>
<path d="M149.625 193.961L158.484 194.945L168.328 200.852L178.172 209.711L186.047 217.586L191.953 225.461L189.984 231.367L184.078 244.164L179.156 239.242L171.281 233.336L168.328 232.352H157.5L151.594 235.305H149.625L150.609 227.43L158.484 221.523H160.453L158.484 210.695L153.562 200.852L149.625 195.93V193.961Z" fill="#1E102C"/>
<path d="M117.141 274.68L119.109 275.664L123.047 300.273L124.031 309.133V330.789L119.109 356.383L117.141 359.336L109.266 322.914L105.328 296.336V288.461L112.219 280.586L117.141 274.68Z" fill="#1E102C"/>
<path d="M345.516 102.414L352.406 103.398L354.375 105.367V117.18L351.422 127.023L345.516 134.898L339.609 139.82L333.703 141.789H324.844L315 140.805V136.867L326.812 119.148L335.672 109.305L342.562 103.398L345.516 102.414Z" fill="#1E102C"/>
<path d="M211.641 86.6641H212.625L211.641 98.4766V129.977L212.625 143.758L209.672 139.82L202.781 128.992L193.922 118.164L188.016 107.336L187.031 105.367V99.4609L191.953 90.6016L203.766 87.6484L211.641 86.6641Z" fill="#1E102C"/>
<path d="M720.562 377.055H721.547L725.484 398.711L730.406 415.445L737.297 429.227L743.203 437.102L747.141 440.055L745.172 463.68L743.203 467.617L739.266 465.648L733.359 455.805L727.453 440.055L722.531 415.445L720.562 394.773V377.055Z" fill="#1E102C"/>
<path d="M80.7188 231.367L84.6562 235.305L88.5938 251.055V268.773L85.6406 289.445L81.7031 304.211L78.75 305.195L76.7812 298.305L74.8125 282.555V257.945L78.75 235.305L80.7188 231.367Z" fill="#1E102C"/>
<path d="M248.062 18.7422L250.031 19.7266L241.172 28.5859L230.344 43.3516L222.469 58.1172L216.562 73.8672L213.609 83.7109L212.625 84.6953L193.922 86.6641L199.828 74.8516L213.609 54.1797L223.453 41.3828L234.281 29.5703L245.109 20.7109L248.062 18.7422Z" fill="#1E102C"/>
<path d="M305.156 143.758H307.125L305.156 148.68L290.391 173.289L276.609 196.914L274.641 198.883V188.055L276.609 171.32L280.547 155.57L294.328 147.695L305.156 143.758Z" fill="#1E102C"/>
<path d="M567.984 174.273L569.953 177.227L573.891 205.773V216.602L565.031 244.164L557.156 274.68H556.172L558.141 249.086L562.078 211.68L567 182.148L567.984 174.273Z" fill="#1E102C"/>
<path d="M265.781 259.914L269.719 264.836L276.609 276.648L275.625 282.555L265.781 312.086L263.812 317.008L261.844 314.055L256.922 301.258L264.797 261.883L265.781 259.914Z" fill="#1E102C"/>
<path d="M372.094 224.477L374.062 227.43L377.016 240.227L378.984 257.945V313.07L374.062 320.945H373.078L372.094 260.898V224.477Z" fill="#1E102C"/>
<path d="M38.3906 280.586L42.3281 281.57L44.2969 301.258L47.25 300.273L53.1562 289.445L60.0469 295.352L68.9062 308.148V310.117L61.0312 312.086H48.2344L39.375 310.117L38.3906 309.133V280.586Z" fill="#1E102C"/>
<path d="M391.781 303.227H392.766V327.836L386.859 377.055H385.875L383.906 360.32L382.922 345.555V313.07L389.812 305.195L391.781 303.227Z" fill="#1E102C"/>
<path d="M52.1719 246.133L56.1094 248.102V262.867L52.1719 282.555L47.25 281.57L38.3906 278.617L39.375 266.805L43.3125 255.977L47.25 250.07L52.1719 246.133Z" fill="#1E102C"/>
<path d="M60.0469 438.086L67.9219 443.992L70.875 446.945V468.602L67.9219 485.336L64.9688 492.227L63 489.273L60.0469 472.539V438.086Z" fill="#1E102C"/>
<path d="M143.719 196.914H146.672L147.656 203.805V222.508L145.688 228.414L134.859 234.32H132.891V226.445L136.828 208.727L140.766 200.852L143.719 196.914Z" fill="#1E102C"/>
<path d="M126.984 262.867H127.969L130.922 283.539L132.891 291.414V298.305L128.953 312.086L126.984 313.07L121.078 274.68V269.758L126.984 262.867Z" fill="#1E102C"/>
<path d="M68.9062 385.914H69.8906L70.875 441.039L66.9375 439.07L61.0312 432.18L63 414.461L67.9219 389.852L68.9062 385.914Z" fill="#1E102C"/>
<path d="M120.094 385.914L122.062 389.852L129.938 419.383L130.922 428.242L123.047 435.133H121.078V418.398L120.094 416.43V385.914Z" fill="#1E102C"/>
<path d="M439.031 211.68H441.984L440.016 221.523L436.078 242.195L431.156 282.555H430.172V252.039L432.141 230.383L436.078 215.617L439.031 211.68Z" fill="#1E102C"/>
<path d="M77.7656 327.836L80.7188 330.789L85.6406 340.633L84.6562 345.555L77.7656 355.398L73.8281 363.273H72.8438L71.8594 357.367V341.617L77.7656 327.836Z" fill="#1E102C"/>
<path d="M143.719 244.164L144.703 247.117L139.781 270.742L135.844 286.492L133.875 283.539L131.906 256.961L143.719 244.164Z" fill="#1E102C"/>
<path d="M110.25 167.383H119.109L130.922 172.305L139.781 180.18L143.719 187.07L142.734 190.023L121.078 177.227L110.25 168.367V167.383Z" fill="#1E102C"/>
<path d="M307.125 346.539L309.094 349.492L314.016 370.164L315 382.961L307.125 377.055L302.203 371.148L304.172 358.352L307.125 346.539Z" fill="#1E102C"/>
<path d="M211.641 461.711L212.625 464.664L205.734 488.289L202.781 494.195L195.891 495.18L194.906 481.398L201.797 476.477L208.688 466.633L211.641 461.711Z" fill="#1E102C"/>
<path d="M256.922 246.133L260.859 250.07L262.828 254.008L261.844 264.836L255.938 291.414L253.969 287.477V260.898L256.922 246.133Z" fill="#1E102C"/>
<path d="M175.219 472.539L180.141 477.461L187.031 481.398L190.969 482.383L192.938 492.227V496.164H182.109L178.172 486.32L175.219 475.492V472.539Z" fill="#1E102C"/>
<path d="M260.859 357.367H261.844L263.812 378.039V391.82L261.844 413.477L260.859 419.383L258.891 418.398V378.039L260.859 357.367Z" fill="#1E102C"/>
<path d="M126 241.211H127.969V257.945L121.078 265.82L119.109 263.852L116.156 250.07L121.078 245.148L126 241.211Z" fill="#1E102C"/>
<path d="M246.094 307.164L249.047 311.102L250.031 317.008L236.25 373.117H235.266L236.25 362.289L244.125 318.977L246.094 307.164Z" fill="#1E102C"/>
<path d="M31.5 280.586H34.4531L35.4375 307.164L29.5312 302.242L25.5938 294.367L24.6094 286.492L31.5 280.586Z" fill="#1E102C"/>
<path d="M112.219 254.008L114.188 255.977L117.141 267.789L116.156 271.727L107.297 282.555H105.328L106.312 268.773L110.25 256.961L112.219 254.008Z" fill="#1E102C"/>
<path d="M392.766 346.539H393.75V385.914L391.781 410.523H390.797L388.828 397.727V382.961L392.766 346.539Z" fill="#1E102C"/>
<path d="M144.703 230.383H146.672L145.688 239.242L135.844 248.102L131.906 252.039V238.258L140.766 232.352L144.703 230.383Z" fill="#1E102C"/>
<path d="M267.75 215.617H268.734V223.492L264.797 248.102H262.828L258.891 240.227L264.797 222.508L267.75 215.617Z" fill="#1E102C"/>
<path d="M215.578 204.789L216.562 208.727L213.609 215.617L201.797 230.383L198.844 228.414L200.812 223.492L210.656 210.695L215.578 204.789Z" fill="#1E102C"/>
<path d="M184.078 498.133H192.938L194.906 505.023V511.914L191.953 512.898L188.016 508.961L184.078 501.086V498.133Z" fill="#1E102C"/>
<path d="M107.297 378.039L116.156 380.008V400.68L114.188 398.711L107.297 378.039Z" fill="#1E102C"/>
<path d="M137.812 431.195L141.75 433.164L144.703 440.055L147.656 456.789L146.672 460.727L137.812 434.148V431.195Z" fill="#1E102C"/>
<path d="M672.328 241.211H674.297L676.266 247.117L678.234 262.867V274.68L676.266 270.742L671.344 244.164L672.328 241.211Z" fill="#1E102C"/>
<path d="M150.609 201.836L153.562 205.773L157.5 215.617L155.531 220.539L152.578 223.492H150.609V201.836Z" fill="#1E102C"/>
<path d="M254.953 310.117L257.906 314.055L262.828 324.883L260.859 333.742L258.891 331.773L253.969 317.008V311.102L254.953 310.117Z" fill="#1E102C"/>
<path d="M199.828 237.273L202.781 238.258L201.797 242.195L194.906 253.023L190.969 256.961L189.984 253.023L199.828 237.273Z" fill="#1E102C"/>
<path d="M249.047 282.555H250.031L252.984 300.273L252 309.133L249.047 305.195L247.078 301.258L249.047 282.555Z" fill="#1E102C"/>
<path d="M235.266 195.93L239.203 196.914L244.125 204.789L246.094 212.664L245.109 216.602L236.25 199.867L235.266 195.93Z" fill="#1E102C"/>
<path d="M221.484 176.242L223.453 177.227L228.375 190.023V191.992L221.484 193.961V176.242Z" fill="#1E102C"/>
<path d="M195.891 231.367L197.859 232.352L196.875 237.273L188.016 250.07L186.047 248.102L193.922 234.32L195.891 231.367Z" fill="#1E102C"/>
<path d="M244.125 278.617H245.109L244.125 291.414L241.172 290.43L240.188 284.523L244.125 278.617Z" fill="#1E102C"/>
<path d="M251.016 235.305L254.953 240.227L252.984 249.086L251.016 251.055V235.305Z" fill="#1E102C"/>
<path d="M45.2812 284.523L49.2188 285.508L50.2031 287.477L46.2656 296.336H45.2812V284.523Z" fill="#1E102C"/>
<path d="M228.375 194.945L230.344 195.93L221.484 205.773H220.5V200.852L226.406 195.93L228.375 194.945Z" fill="#1E102C"/>
<path d="M71.8594 316.023L75.7969 320.945L72.8438 330.789H71.8594V316.023Z" fill="#1E102C"/>
<path d="M71.8594 296.336L73.8281 298.305L74.8125 308.148H71.8594V296.336Z" fill="#1E102C"/>
</svg>
