<svg width="2518" height="807" viewBox="0 0 2518 807" fill="none" xmlns="http://www.w3.org/2000/svg">
<path d="M301.271 10.0576H321.286L333.796 13.8106L347.557 21.3167L361.317 32.5758L375.078 46.3369L387.588 63.851L398.847 83.8671L406.353 105.134L410.105 121.397L412.607 133.907L418.862 147.669L423.866 171.438L427.619 206.466L430.121 274.02L435.125 284.029L440.129 300.292L442.631 315.304L443.882 332.818V387.862L453.89 380.356H458.894L465.148 354.085L470.152 341.575H473.905L483.913 360.34L492.67 386.611L497.674 409.129V306.547L501.427 286.531L507.682 270.267L515.188 260.259L521.442 262.761L523.944 255.255L532.701 242.745L540.207 236.49L548.964 235.239L556.47 238.992L565.227 249L572.732 264.012L577.736 281.527L578.987 291.535V395.368L581.489 424.142L583.991 436.652H586.493L592.748 417.887L599.003 387.862L610.262 315.304L617.768 284.029L626.524 260.259L630.277 252.753H634.03L635.281 261.51V327.814L631.528 382.858L619.019 511.712L616.517 560.502V599.283L619.019 634.311L624.022 615.546L634.03 563.004L637.783 537.983L639.034 501.704L645.289 445.409L654.046 390.364L665.305 275.271L674.062 206.466L677.814 202.713L681.567 212.721L686.571 241.494L689.073 261.51L702.834 231.486L714.093 212.721L725.352 200.211L734.108 192.705L742.865 188.952H760.379L770.387 193.956L777.893 200.211L787.9 216.474L795.406 237.741L802.912 270.267L807.916 296.539H812.92L819.175 315.304L822.928 339.073V371.599L827.932 386.611V389.113L830.434 387.862L840.441 349.081L844.194 345.328L849.198 351.583L856.704 366.595L862.959 386.611L867.963 420.389L869.214 431.648L871.716 414.133L877.971 399.121L886.728 389.113L891.731 387.862L897.986 404.125L904.241 431.648L907.994 460.421L910.496 501.704V558L918.002 560.502H928.01L938.018 554.246L944.272 547.991L955.531 532.979L965.539 515.465L966.79 474.182L971.794 435.401L979.3 396.619L989.308 364.093L999.315 337.822L1006.82 324.061L1018.08 311.551L1028.09 306.547H1036.84L1046.85 311.551L1056.86 321.559L1068.12 341.575L1078.13 366.595L1095.64 421.64L1104.4 442.907L1109.4 447.911L1116.91 446.66L1124.41 435.401L1134.42 416.635L1149.43 395.368L1159.44 385.36L1164.44 382.858H1178.21L1188.21 390.364L1198.22 410.38L1203.22 430.397V450.413L1198.22 469.178L1188.21 490.445L1166.95 525.473L1161.94 532.979V542.987L1166.95 549.242H1178.21L1186.96 545.489L1198.22 536.732L1210.73 521.72L1223.24 504.206L1234.5 490.445L1249.51 475.433L1259.52 470.429L1268.28 471.68L1273.28 476.684L1288.29 511.712L1294.55 519.218V521.72L1299.55 524.222L1309.56 526.724L1319.57 522.971L1332.08 511.712L1340.83 501.704L1352.09 491.696L1363.35 485.441H1375.86L1403.38 499.202L1435.91 511.712L1474.69 522.971L1499.71 527.975L1514.72 529.226H1528.48L1556 526.724L1617.3 516.716L1666.09 511.712L1704.87 509.21L1792.43 506.708L1878.75 505.457H2199L2501.74 509.21L2516.75 510.461V514.214L2170.23 510.461H1888.76L1778.67 511.712L1703.62 514.214L1653.58 517.967L1603.54 524.222L1554.75 531.728L1543.49 532.979H1498.46L1472.18 527.975L1424.65 512.963L1398.38 502.955L1372.11 490.445L1360.85 491.696L1349.59 499.202L1335.83 514.214L1327.07 524.222L1317.06 531.728L1305.8 532.979L1297.05 529.226L1288.29 521.72L1280.79 509.21L1270.78 486.692L1265.77 480.437L1263.27 479.186H1254.51L1244.51 486.692L1234.5 497.951L1216.99 521.72L1206.98 534.23L1200.72 541.736L1186.96 551.744L1180.71 554.246H1165.7L1154.44 546.74L1153.19 542.987L1163.19 522.971L1180.71 492.947L1191.97 469.178L1196.97 452.915L1198.22 446.66V431.648L1193.22 415.384L1185.71 400.372L1179.46 392.866L1171.95 389.113L1161.94 390.364L1154.44 396.619L1140.68 417.887L1123.16 450.413L1119.41 454.166H1108.15L1100.64 449.162L1094.39 436.652L1079.38 387.862L1069.37 359.089L1056.86 331.567L1048.1 319.057L1040.6 312.802L1038.1 311.551H1029.34L1020.58 316.555L1011.83 326.563L1000.57 350.332L989.308 381.607L981.802 410.38L974.296 455.417L971.794 487.943V501.704L976.798 495.449L990.559 469.178L1000.57 454.166L1010.57 441.656L1019.33 432.899L1030.59 429.146L1038.1 432.899L1044.35 440.405L1053.11 459.17L1068.12 504.206L1081.88 546.74V554.246L1074.37 566.757L1064.37 576.765L1051.86 581.769L1045.6 583.02H1016.83L1001.82 579.267L989.308 571.761L980.551 561.753L973.045 546.74L966.79 525.473L954.28 545.489L943.021 558L933.014 564.255L929.261 565.506H915.5L909.245 563.004L907.994 579.267L902.99 601.785H897.986L887.979 588.024L879.222 569.259L872.967 545.489L869.214 517.967L862.959 426.644L857.955 392.866L851.7 369.097L846.696 357.838V355.336H844.194L839.19 375.352L832.936 390.364L829.183 396.619L825.43 395.368L821.677 385.36L812.92 424.142L801.661 460.421L786.649 499.202L771.638 530.477L766.634 539.234L756.626 583.02L747.869 609.291L737.861 629.307L729.104 643.068L715.344 658.08H710.34L704.085 628.056L700.332 605.538L682.818 610.542H671.56L661.552 606.789L655.297 601.785L649.042 591.777L642.787 573.012L640.285 560.502L627.775 623.052L620.27 651.825H616.517L614.015 636.813L611.513 603.036V552.995L614.015 510.461L620.27 444.158L627.775 366.595L630.277 324.061L631.528 266.514L630.277 265.263L622.771 287.782L616.517 315.304L605.258 387.862L597.752 420.389L590.246 442.907L587.744 447.911H583.991L577.736 430.397L573.983 411.631L572.732 394.117V374.101L573.983 346.579V296.539L568.979 275.271L561.474 255.255L552.717 242.745L547.713 240.243L541.458 241.494L535.203 247.749L526.446 266.514L525.195 271.518L532.701 290.284L538.956 312.802L543.96 345.328L548.964 414.133L552.717 455.417L557.721 486.692L561.474 499.202L567.729 500.453L573.983 495.449L578.987 497.951L588.995 515.465L595.25 534.23L597.752 550.493V575.514L593.999 601.785L586.493 628.056L578.987 648.072L568.979 668.088L558.972 681.849L551.466 690.606L541.458 696.861L530.199 698.112L522.693 693.108L515.188 684.351L508.933 669.339L503.929 645.57L498.925 603.036L497.674 581.769L496.423 435.401L487.666 392.866L481.411 370.348L472.654 350.332L468.901 360.34L462.646 390.364L461.396 399.121V465.425L458.894 515.465L457.643 530.477L456.392 534.23L452.639 532.979L448.886 520.469L447.635 522.971L435.125 630.558L428.87 666.837L422.615 691.857L415.109 711.874L406.353 725.635L398.847 730.639H388.839L380.082 725.635L372.576 716.878L367.572 703.117L365.07 691.857L346.306 710.623L336.298 718.129H332.545L325.039 703.117L320.035 684.351L317.533 658.08V654.327L312.529 653.076L303.772 643.068L293.765 623.052L287.51 603.036L283.757 581.769L282.506 569.259L272.498 589.275L261.239 604.287L252.482 613.044L234.969 624.303L219.957 630.558H217.455L213.702 641.817L209.949 649.323L211.2 666.837L218.706 720.631L219.957 748.153L217.455 769.42L212.451 784.432L207.447 789.436H198.69L188.683 783.181L176.173 770.671L166.165 756.91L158.659 759.412L138.644 766.918L113.624 771.922L86.1025 774.424H73.5928L49.8242 771.922L33.5615 766.918L22.3027 760.663L13.5459 753.157L6.04004 738.145L4.78906 733.141V714.376L9.79297 695.61L19.8008 675.594L32.3105 658.08L48.5732 638.064L64.8359 616.797L83.6006 586.773L89.8555 578.016H68.5889L53.5771 573.012L49.8242 570.51V600.534L46.0713 618.048L41.0674 630.558L36.0635 631.809L29.8086 611.793L27.3066 594.279V550.493L14.7969 532.979L-0.214844 501.704L-15.2266 456.668L-22.7324 426.644L-25.2344 410.38V381.607L-21.4814 369.097L-17.7285 362.842L-16.4775 332.818L-11.4736 310.3L-3.96777 291.535L6.04004 272.769L21.0518 252.753L34.8125 237.741L47.3223 226.482L64.8359 215.223L77.3457 210.219L87.3535 208.968L83.6006 196.458V186.45L89.8555 171.438L102.365 156.426L119.879 142.665L142.396 130.154L171.169 118.895L197.439 110.138L209.949 88.8712L224.961 67.604L238.722 51.3409L249.98 38.8308L258.737 30.0738L275 18.8147L288.761 13.8106L301.271 10.0576Z" fill="#302745"/>
<path d="M751.619 191.454L764.129 193.956L774.137 202.713L781.643 213.972L789.148 231.486L795.403 254.005L804.16 299.041V309.049L794.152 334.069L786.646 359.089L780.392 390.365L775.388 430.397L767.882 506.708L764.129 534.231L755.372 549.243L742.862 565.506L731.604 578.016L721.596 586.773L706.584 598.032H704.082L700.329 574.263L695.325 529.226L691.572 481.688L689.07 427.895V271.519L699.078 245.247L709.086 225.231L717.843 212.721L726.6 202.713L740.36 193.956L751.619 191.454Z" fill="#1E102C"/>
<path d="M521.438 277.773H523.939L531.445 300.292L537.7 331.567L541.453 362.842L546.457 436.652L550.21 469.178L556.465 499.202L560.218 510.461L565.222 507.959L571.477 504.206L577.731 505.457L582.735 511.712L588.99 526.724L592.743 549.242V578.016L588.99 603.036L582.735 626.805L572.728 651.825L561.469 671.841L547.708 686.853L540.202 691.857L532.696 693.108L525.19 689.355L518.936 681.849L512.681 666.837L507.677 646.821L503.924 613.044L501.422 571.761V522.971H502.673L508.928 564.254L512.681 565.505L510.179 514.214L505.175 466.676L502.673 447.911V431.648L505.175 384.109L508.928 344.077L516.434 297.79L521.438 277.773Z" fill="#1E102C"/>
<path d="M106.115 566.757L108.617 569.259L114.872 610.542L122.378 645.57L131.135 676.846L139.892 701.866L149.899 724.384L163.66 751.906L148.648 759.412L129.884 765.667L112.37 769.42L103.613 770.671H68.5859L48.5703 766.918L33.5586 760.663L23.5508 753.157L16.0449 744.4L9.79004 730.639L8.53906 714.376L12.292 699.364L22.2998 679.348L37.3115 659.331L52.3232 641.817L64.833 625.554L84.8486 594.279L99.8604 573.012L106.115 566.757Z" fill="#1E102C"/>
<path d="M197.44 335.32H199.942L214.954 364.094L227.464 394.118H232.468L246.229 382.859L257.487 369.098L262.491 374.102L263.742 376.604V390.365L254.985 449.162L244.978 502.956L237.472 535.482L228.715 563.004L221.209 581.769L212.452 598.032L204.946 605.538H202.444L199.942 595.53L187.433 516.717L172.421 434.15V431.648L168.668 435.401L164.915 446.66H163.664L164.915 420.389L169.919 386.612L174.923 366.596L178.676 359.089L194.938 339.073L197.44 335.32Z" fill="#1E102C"/>
<path d="M192.433 116.394L193.684 120.147L192.433 123.9V135.159L199.938 150.171L212.448 166.434L222.456 183.948L229.962 203.964L233.715 222.729V250.251L219.954 261.511L206.193 279.025L202.44 282.778L187.429 266.515L171.166 252.754L158.656 245.247L143.645 242.745L136.139 227.733L128.633 218.976L113.621 211.47L92.3545 207.717L88.6016 198.96V186.45L93.6055 172.689L103.613 158.928L118.625 146.418L138.641 135.159L163.66 125.151L192.433 116.394Z" fill="#1E102C"/>
<path d="M410.105 141.414L413.858 145.167L418.862 162.681L421.364 180.195L425.117 238.993V267.766L415.109 272.77L402.6 284.029L391.341 300.292L390.09 302.794H387.588L380.082 271.519L376.329 261.511L368.823 262.762L356.313 271.519L348.808 277.774L336.298 294.037L325.039 314.053L315.031 335.32L310.027 346.58L305.023 340.324L295.016 322.81L302.521 269.017L305.023 256.507L317.533 233.989L333.796 207.718L350.059 183.948L351.31 182.697H381.333L392.592 177.693L401.349 170.187L406.353 160.179L408.854 151.422L410.105 141.414Z" fill="#1E102C"/>
<path d="M417.613 276.522H423.868L426.37 279.024L427.621 300.292V411.631L423.868 424.142L408.856 460.421L393.845 505.457L383.837 542.987L373.829 590.526L368.825 621.801L366.323 648.072L365.072 684.351L350.061 701.865L337.551 711.874H333.798L328.794 700.614L323.79 675.594L322.539 654.327L332.547 643.068L342.555 621.801L352.562 589.275L358.817 563.003L362.57 535.481L363.821 499.202L376.331 501.704L382.586 497.951L388.841 487.943L393.845 466.676L395.096 456.668L396.347 430.397V405.376L393.845 359.089L388.841 312.802L398.849 295.288L407.605 284.029L415.111 277.773L417.613 276.522Z" fill="#1E102C"/>
<path d="M1028.09 432.898L1036.85 436.651L1044.35 449.162L1055.61 477.935L1066.87 514.214L1076.88 549.242V557.999L1073.13 564.254L1064.37 571.76L1051.86 576.764L1040.6 579.266H1021.84L1006.82 575.513L994.314 568.007L984.307 556.748L976.801 540.485L973.048 526.724L971.797 514.214L983.056 494.198L999.318 465.425L1011.83 446.66L1020.58 436.651L1028.09 432.898Z" fill="#1E102C"/>
<path d="M685.322 285.279H686.573V445.408L690.326 510.461L695.33 560.501L700.334 596.781L699.083 601.785L689.075 606.789L684.071 608.04H674.063L664.056 603.036L656.55 594.278L650.295 581.768L645.291 561.752L642.789 534.23L651.546 462.923L659.052 386.611L669.06 341.575L680.318 300.291L685.322 285.279Z" fill="#1E102C"/>
<path d="M84.8506 212.721H92.3564L104.866 225.231L124.882 237.741L137.392 245.247L136.141 250.251L129.886 260.259L123.631 279.024L119.878 301.542L103.615 312.801L101.113 311.55L93.6074 291.534L86.1016 279.024L74.8428 266.514L71.0898 264.012L66.0859 265.263L57.3291 282.777L51.0742 302.793L47.3213 325.312L44.8193 360.34L43.5684 384.109L38.5645 379.105L29.8076 367.846L26.0547 364.093L32.3096 332.818V317.805L28.5566 310.299H21.0508L12.2939 316.554L4.78809 331.567L1.03516 351.583L-2.71777 355.336L-12.7256 359.089L-13.9766 357.838L-12.7256 337.822L-7.72168 315.303L-1.4668 297.789L7.29004 280.275L18.5488 264.012L29.8076 250.251L47.3213 232.737L64.835 220.227L78.5957 213.972L84.8506 212.721Z" fill="#1E102C"/>
<path d="M305.021 12.5596H320.032L335.044 17.5636L348.805 26.3207L361.314 37.5797L372.573 50.0898L385.083 68.855L397.593 92.6241L403.848 111.389L406.35 126.401H393.84L383.832 131.405L372.573 142.664L360.063 161.43L350.056 177.693L333.793 182.697L316.279 191.454H313.777L315.028 180.195L321.283 137.66L325.036 101.381V58.8469L321.283 40.0818L315.028 27.5717L305.021 18.8146L298.766 15.0616V13.8106L305.021 12.5596Z" fill="#1E102C"/>
<path d="M307.528 23.8184L315.034 33.8271L320.038 51.3408L321.289 62.5996V107.637L317.536 143.916L310.03 191.454L307.528 196.458H305.026L298.771 165.183L292.517 148.92L283.76 133.907L273.752 122.648L259.991 113.892L243.729 108.888L231.219 107.637L233.721 93.875L241.227 75.1104L252.485 53.8428L264.995 37.5801L276.254 26.3213L287.513 18.8145H297.521L307.528 23.8184Z" fill="#1E102C"/>
<path d="M436.372 406.628H438.874L440.125 446.66L443.878 486.692L445.129 495.45L443.878 517.968L433.87 605.538L427.615 648.073L420.109 681.85L411.353 708.121L405.098 719.38L397.592 725.635L388.835 726.886L382.58 723.133L375.074 711.874L370.07 693.109V683.101L380.078 669.34L392.588 645.571L402.596 619.299L411.353 589.275L417.607 559.251L422.611 524.223L426.364 484.19L430.117 419.138L436.372 406.628Z" fill="#1E102C"/>
<path d="M292.512 417.887L296.265 421.64L308.774 440.405L321.284 456.668L336.296 474.182L335.045 487.943L326.288 547.992L321.284 598.032L318.782 646.821H313.778L305.021 636.813L297.516 620.55L291.261 596.781L287.508 566.757V549.243L291.261 529.227L293.763 505.457V469.178L290.01 441.656V430.397L292.512 417.887Z" fill="#1E102C"/>
<path d="M229.963 110.139L247.477 111.39L262.488 116.394L273.747 125.151L283.755 136.41L292.512 153.924L298.767 177.693L301.269 200.211L281.253 216.474L264.99 231.487L253.731 242.746L248.728 237.742L237.469 207.717L231.214 186.45L227.461 162.681V125.151L229.963 110.139Z" fill="#1E102C"/>
<path d="M123.635 549.242H126.137L141.148 594.279L152.407 624.303L168.67 660.582L183.682 691.857L188.686 711.873L187.435 726.885L181.18 739.396L171.172 748.153L166.168 749.404L156.16 731.889L142.399 699.363L128.639 658.08L119.882 623.052L112.376 578.015L111.125 561.752L123.635 549.242Z" fill="#1E102C"/>
<path d="M1259.52 470.429L1268.28 471.68L1273.28 476.684L1288.29 511.712L1294.55 519.218V521.72L1299.55 524.222L1309.56 526.724L1319.57 522.971L1332.08 511.712L1340.83 501.704L1352.09 491.696L1363.35 485.441H1375.86L1403.38 499.202L1435.91 511.712L1474.69 522.971L1499.71 527.975L1514.72 529.226H1528.48L1556 526.724L1617.3 516.716L1666.09 511.712L1704.87 509.21L1792.44 506.708L1878.75 505.457H2199L2501.74 509.21L2516.75 510.461V514.214L2170.23 510.461H1888.76L1778.68 511.712L1703.62 514.214L1653.58 517.967L1603.54 524.222L1554.75 531.728L1543.49 532.979H1498.46L1472.19 527.975L1424.65 512.963L1398.38 502.955L1372.11 490.445L1360.85 491.696L1349.59 499.202L1335.83 514.214L1327.07 524.222L1317.07 531.728L1305.81 532.979L1297.05 529.226L1288.29 521.72L1280.79 509.21L1270.78 486.692L1265.78 480.437L1263.27 479.186H1254.52L1244.51 486.692L1234.5 497.951L1216.99 521.72L1206.98 534.23L1200.72 541.736L1186.96 551.744L1180.71 554.246H1165.7L1154.44 546.74L1153.19 542.987L1158.19 532.979L1161.94 530.477V542.987L1166.95 549.242H1178.21L1186.96 545.489L1198.22 536.732L1210.73 521.72L1223.24 504.206L1234.5 490.445L1249.51 475.433L1259.52 470.429Z" fill="#302745"/>
<path d="M276.247 409.13L278.749 411.632L285.004 434.15V447.911L282.502 490.445V554.247L276.247 571.761L266.239 590.526L252.479 605.538L241.22 615.546L222.455 625.554H219.953L223.706 611.793L249.977 509.211L274.996 411.632L276.247 409.13Z" fill="#1E102C"/>
<path d="M367.573 266.515H373.828L378.832 279.025L385.087 307.798L383.836 314.053L373.828 337.822L358.816 382.858L348.809 419.138L346.307 421.64L333.797 391.616L318.785 362.842L313.781 355.336L315.032 345.328L332.546 310.3L345.056 290.284L360.067 272.77L367.573 266.515Z" fill="#1E102C"/>
<path d="M64.833 444.158L69.8369 445.409L81.0957 469.178L103.613 525.474L104.864 529.227L106.115 546.741V559.251L97.3584 568.008L84.8486 574.263L74.8408 575.514L59.8291 571.761L49.8213 565.506L48.5703 524.223V474.182L58.5781 451.664L64.833 444.158Z" fill="#1E102C"/>
<path d="M385.083 320.308L387.585 322.81L391.338 356.587L392.589 377.854V450.413L388.836 476.684L383.832 490.445L378.828 495.449H367.569L362.565 491.696L356.311 456.668L348.805 429.145L353.809 407.878L365.067 370.348L378.828 334.069L385.083 320.308Z" fill="#1E102C"/>
<path d="M425.114 429.146H426.365L425.114 457.919L420.11 510.461L413.855 554.246L406.35 589.275L397.593 619.299L387.585 644.319L377.577 664.335L370.071 676.845H368.82V643.068L373.824 606.789L382.581 561.752L395.091 511.712L410.103 466.676L423.863 431.648L425.114 429.146Z" fill="#1E102C"/>
<path d="M166.168 374.102L168.67 375.353L158.662 415.385L154.909 441.656L152.407 484.19L142.399 509.211L129.89 532.98L126.137 535.482L116.129 501.704L111.125 482.939L112.376 471.68L116.129 460.421L118.631 444.158L119.882 410.381L127.388 379.106L137.396 386.612H149.905L158.662 381.608L164.917 376.604L166.168 374.102Z" fill="#1E102C"/>
<path d="M152.406 610.542L158.661 616.797L168.669 625.554L183.681 633.06L193.688 650.574L199.943 658.08L203.696 659.331L204.947 656.829L206.198 658.08L211.202 696.862L213.704 728.137V761.914L209.951 779.428L206.198 784.432H197.441L184.932 774.424L171.171 756.91L169.92 751.906L182.43 740.647L187.434 733.141L191.187 720.631V709.372L187.434 694.36L174.924 665.586L159.912 633.06L152.406 614.295V610.542Z" fill="#1E102C"/>
<path d="M-15.2314 370.349L-12.7295 371.6L-7.72559 382.859L1.03125 392.867L4.78418 425.393L9.78809 446.66L18.5449 464.174L23.5488 469.178H26.0508L37.3096 454.166L42.3135 445.409H43.5645L44.8154 461.672V474.182L37.3096 502.956L31.0547 539.235L28.5527 542.988L16.043 524.223L6.03516 505.458L-5.22363 475.433L-13.9805 441.656L-17.7334 421.64L-18.9844 407.879V390.365L-16.4824 374.102L-15.2314 370.349Z" fill="#1E102C"/>
<path d="M805.412 315.304H806.663L815.42 360.34L816.671 365.344V376.603L811.667 409.129L804.161 440.405L796.655 465.425L784.146 496.7L774.138 517.967L769.134 526.724L767.883 522.971L776.64 455.417L784.146 396.619L792.902 351.583L801.659 322.81L805.412 315.304Z" fill="#1E102C"/>
<path d="M338.802 477.935L347.559 485.441L357.566 494.198L358.817 500.453V537.983L355.064 566.756L347.559 596.78L337.551 626.805L330.045 641.817L325.041 646.821H322.539V628.056L326.292 569.258L332.547 514.214L337.551 481.688L338.802 477.935Z" fill="#1E102C"/>
<path d="M885.478 395.368L890.481 396.619L896.736 416.635L902.991 456.668L905.493 484.19V551.744L899.238 545.489L889.23 525.473L881.725 502.955L875.47 475.433L874.219 464.174V430.396L877.972 411.631L884.227 396.619L885.478 395.368Z" fill="#1E102C"/>
<path d="M249.977 254.005L253.729 257.758L268.741 286.531L271.243 290.284V322.81L269.992 335.32L258.733 357.839H256.231L228.71 316.555L219.953 304.045L222.455 296.539L228.71 282.778L233.714 271.519L242.471 262.762L249.977 254.005Z" fill="#1E102C"/>
<path d="M156.153 297.79H168.663L179.922 305.296L187.428 315.304L172.416 360.34L167.412 367.847L154.902 380.357L147.396 384.11H139.891L131.134 376.604L129.883 370.349L142.393 317.806L144.895 305.296L151.149 300.292L156.153 297.79Z" fill="#1E102C"/>
<path d="M310.027 357.838L313.78 361.591L327.541 387.862L341.302 420.388L345.055 431.647L343.804 441.655L338.8 467.927L333.796 465.425L317.533 446.66L302.521 425.392L295.016 412.882L296.267 399.121L305.023 370.348L310.027 357.838Z" fill="#1E102C"/>
<path d="M168.668 441.656L171.17 442.907L186.182 529.227L197.44 601.785V608.04L189.935 606.789L183.68 601.785L174.923 588.024L169.919 561.753L166.166 530.478L163.664 497.952V459.17L168.668 441.656Z" fill="#1E102C"/>
<path d="M151.15 491.696L153.652 492.947L157.405 529.227L163.66 559.251L169.915 588.024L176.17 613.044L181.174 626.805V629.307L173.668 626.805L162.409 616.797L154.903 604.287L146.146 578.016L138.641 542.988L136.139 540.486L128.633 541.737L131.135 535.482L147.397 501.704L151.15 491.696Z" fill="#1E102C"/>
<path d="M82.3457 372.851L84.8477 376.604L88.6006 402.875L97.3574 440.405L104.863 470.429V477.935L98.6084 479.186L91.1025 474.182L84.8477 464.174L69.8359 436.652L63.5811 421.64L59.8281 407.879V399.122L63.5811 387.863L79.8438 375.353L82.3457 372.851Z" fill="#1E102C"/>
<path d="M759.128 547.991H760.379L759.128 560.501L751.622 586.772L742.865 610.542L730.355 634.311L720.348 646.821L716.595 650.574L712.842 649.323L706.587 618.048L705.336 601.785L722.85 589.275L737.861 575.513L749.12 563.003L759.128 547.991Z" fill="#1E102C"/>
<path d="M216.206 309.049H218.708L234.971 331.567L254.986 361.591L246.229 375.352L234.971 387.862L229.967 390.364L221.21 371.599L207.449 342.826L202.445 334.069L203.696 326.563L212.453 314.053L216.206 309.049Z" fill="#1E102C"/>
<path d="M68.585 269.017L74.8398 271.519L83.5967 281.527L93.6045 301.543L98.6084 317.806L89.8516 331.567L86.0986 344.077L83.5967 367.846L71.0869 379.105L64.832 381.607L71.0869 350.332L72.3379 340.324V321.559L68.585 304.045L62.3301 292.786L59.8281 286.531L64.832 272.77L68.585 269.017Z" fill="#1E102C"/>
<path d="M6.03906 396.619L16.0469 399.121H29.8076L43.5684 397.87V432.898L29.8076 459.17L26.0547 462.923L21.0508 461.672L14.7959 449.162L8.54102 426.643L6.03906 410.38V396.619Z" fill="#1E102C"/>
<path d="M300.015 206.466H301.266V232.737L291.258 272.769L283.752 297.789L281.25 300.291L273.744 286.53L269.991 262.761L264.987 250.251L261.234 245.247L262.485 241.494L272.493 232.737L293.76 211.47L300.015 206.466Z" fill="#1E102C"/>
<path d="M146.148 246.498L157.407 247.749L169.917 255.255L182.427 266.514L192.435 276.522L199.94 286.53L197.438 294.036L189.933 310.299L183.678 304.044L173.67 296.538L169.917 295.287H156.156L148.65 299.04H146.148L147.399 289.032L157.407 281.526H159.909L157.407 267.765L151.152 255.255L146.148 249V246.498Z" fill="#1E102C"/>
<path d="M104.863 349.081L107.365 350.332L112.369 381.607L113.62 392.866V420.389L107.365 452.915L104.863 456.668L94.8555 410.38L89.8516 376.603V366.595L98.6084 356.587L104.863 349.081Z" fill="#1E102C"/>
<path d="M395.093 130.154L403.85 131.405L406.352 133.907V148.919L402.599 161.43L395.093 171.438L387.587 177.693L380.081 180.195H368.822L356.312 178.944V173.94L371.324 151.421L382.583 138.911L391.34 131.405L395.093 130.154Z" fill="#1E102C"/>
<path d="M224.962 110.139H226.213L224.962 125.151V165.183L226.213 182.697L222.46 177.693L213.703 163.932L202.444 150.171L194.938 136.41L193.688 133.908V126.402L199.942 115.143L214.954 111.39L224.962 110.139Z" fill="#1E102C"/>
<path d="M871.719 479.186H872.97L877.974 506.708L884.229 527.975L892.985 545.489L900.491 555.497L905.495 559.25L902.993 589.274L900.491 594.278L895.487 591.776L887.981 579.266L880.476 559.25L874.221 527.975L871.719 501.704V479.186Z" fill="#1E102C"/>
<path d="M58.584 294.037L63.5879 299.041L68.5918 319.057V341.575L64.8389 367.847L59.835 386.612L56.082 387.863L53.5801 379.106L51.0781 359.09V327.814L56.082 299.041L58.584 294.037Z" fill="#1E102C"/>
<path d="M271.249 23.8184L273.751 25.0694L262.492 36.3284L248.731 55.0936L238.724 73.8587L231.218 93.8749L227.465 106.385L226.214 107.636L202.445 110.138L209.951 95.1259L227.465 68.8547L239.975 52.5916L253.735 37.5795L267.496 26.3204L271.249 23.8184Z" fill="#1E102C"/>
<path d="M343.804 182.697H346.306L343.804 188.952L325.039 220.228L307.525 250.252L305.023 252.754V238.993L307.525 217.726L312.529 197.709L330.043 187.701L343.804 182.697Z" fill="#1E102C"/>
<path d="M677.816 221.479L680.318 225.232L685.322 261.511V275.272L674.063 310.3L664.056 349.081H662.805L665.307 316.555L670.311 269.017L676.565 231.487L677.816 221.479Z" fill="#1E102C"/>
<path d="M293.767 330.316L298.771 336.571L307.527 351.584L306.276 359.09L293.767 396.62L291.265 402.875L288.763 399.122L282.508 382.859L292.516 332.818L293.767 330.316Z" fill="#1E102C"/>
<path d="M428.867 285.279L431.369 289.032L435.122 305.295L437.624 327.814V397.87L431.369 407.878H430.118L428.867 331.567V285.279Z" fill="#1E102C"/>
<path d="M4.78906 356.587L9.79297 357.838L12.2949 382.858L16.0479 381.607L23.5537 367.846L32.3105 375.352L43.5693 391.615V394.117L33.5615 396.619H17.2988L6.04004 394.117L4.78906 392.866V356.587Z" fill="#1E102C"/>
<path d="M453.892 385.36H455.143V416.636L447.637 479.186H446.386L443.884 457.919L442.633 439.154V397.87L451.39 387.862L453.892 385.36Z" fill="#1E102C"/>
<path d="M22.3027 312.802L27.3066 315.304V334.069L22.3027 359.089L16.0479 357.838L4.78906 354.085L6.04004 339.073L11.0439 325.312L16.0479 317.806L22.3027 312.802Z" fill="#1E102C"/>
<path d="M32.3125 556.749L42.3203 564.255L46.0732 568.008V595.53L42.3203 616.797L38.5674 625.555L36.0654 621.801L32.3125 600.534V556.749Z" fill="#1E102C"/>
<path d="M138.644 250.251H142.396L143.647 259.008V282.777L141.146 290.283L127.385 297.789H124.883V287.781L129.887 265.263L134.891 255.255L138.644 250.251Z" fill="#1E102C"/>
<path d="M117.373 334.069H118.624L122.377 360.341L124.879 370.349V379.106L119.875 396.62L117.373 397.871L109.867 349.081V342.826L117.373 334.069Z" fill="#1E102C"/>
<path d="M43.5703 490.445H44.8213L46.0723 560.502L41.0684 558L33.5625 549.243L36.0645 526.725L42.3193 495.449L43.5703 490.445Z" fill="#1E102C"/>
<path d="M108.617 490.445L111.119 495.449L121.127 532.98L122.378 544.239L112.37 552.996H109.868V531.729L108.617 529.227V490.445Z" fill="#1E102C"/>
<path d="M513.938 269.017H517.691L515.189 281.527L510.186 307.798L503.931 359.089H502.68V320.308L505.182 292.786L510.186 274.021L513.938 269.017Z" fill="#1E102C"/>
<path d="M54.8262 416.636L58.5791 420.389L64.834 432.899L63.583 439.154L54.8262 451.664L49.8223 461.672H48.5713L47.3203 454.166V434.15L54.8262 416.636Z" fill="#1E102C"/>
<path d="M138.645 310.3L139.896 314.053L133.641 344.077L128.637 364.093L126.135 360.34L123.633 326.563L138.645 310.3Z" fill="#1E102C"/>
<path d="M96.1094 212.721H107.368L122.38 218.976L133.639 228.984L138.643 237.741L137.392 241.494L109.87 225.231L96.1094 213.972V212.721Z" fill="#1E102C"/>
<path d="M346.302 440.404L348.804 444.157L355.059 470.429L356.31 486.692L346.302 479.186L340.047 471.68L342.549 455.416L346.302 440.404Z" fill="#1E102C"/>
<path d="M224.962 586.772L226.213 590.525L217.456 620.55L213.703 628.056L204.946 629.307L203.695 611.793L212.452 605.538L221.209 593.028L224.962 586.772Z" fill="#1E102C"/>
<path d="M282.503 312.802L287.507 317.806L290.009 322.81L288.758 336.571L281.252 370.348L278.75 365.344V331.567L282.503 312.802Z" fill="#1E102C"/>
<path d="M178.672 600.534L184.927 606.789L193.684 611.793L198.688 613.044L201.189 625.554V630.558H187.429L182.425 618.048L178.672 604.287V600.534Z" fill="#1E102C"/>
<path d="M287.51 454.166H288.761L291.263 480.437V497.951L288.761 525.474L287.51 532.98L285.008 531.729V480.437L287.51 454.166Z" fill="#1E102C"/>
<path d="M116.127 306.547H118.629V327.814L109.872 337.822L107.37 335.32L103.617 317.806L109.872 311.551L116.127 306.547Z" fill="#1E102C"/>
<path d="M268.745 390.364L272.498 395.368L273.749 402.874L256.235 474.182H254.984L256.235 460.421L266.243 405.376L268.745 390.364Z" fill="#1E102C"/>
<path d="M-3.96973 356.587H-0.216797L1.03418 390.364L-6.47168 384.109L-11.4756 374.101L-12.7266 364.093L-3.96973 356.587Z" fill="#1E102C"/>
<path d="M98.6084 322.81L101.11 325.312L104.863 340.324L103.612 345.328L92.3535 359.089H89.8516L91.1025 341.575L96.1064 326.563L98.6084 322.81Z" fill="#1E102C"/>
<path d="M455.137 440.404H456.388V490.445L453.886 521.72H452.635L450.133 505.457V486.692L455.137 440.404Z" fill="#1E102C"/>
<path d="M139.896 292.786H142.397L141.146 304.045L128.637 315.304L123.633 320.308V302.794L134.892 295.288L139.896 292.786Z" fill="#1E102C"/>
<path d="M296.267 274.021H297.518V284.029L292.514 315.304H290.012L285.008 305.296L292.514 282.778L296.267 274.021Z" fill="#1E102C"/>
<path d="M229.962 260.26L231.213 265.264L227.46 274.021L212.448 292.786L208.695 290.284L211.197 284.029L223.707 267.766L229.962 260.26Z" fill="#1E102C"/>
<path d="M189.93 633.061H201.188L203.69 641.818V650.575L199.938 651.826L194.934 646.822L189.93 636.814V633.061Z" fill="#1E102C"/>
<path d="M92.3594 480.438L103.618 482.94V509.211L101.116 506.709L92.3594 480.438Z" fill="#1E102C"/>
<path d="M131.141 547.991L136.145 550.493L139.897 559.25L143.65 580.517L142.399 585.521L131.141 551.744V547.991Z" fill="#1E102C"/>
<path d="M810.415 306.547H812.917L815.419 314.053L817.921 334.069V349.081L815.419 344.077L809.164 310.3L810.415 306.547Z" fill="#1E102C"/>
<path d="M147.398 256.507L151.151 261.511L156.155 274.021L153.653 280.276L149.9 284.029H147.398V256.507Z" fill="#1E102C"/>
<path d="M280.001 394.117L283.754 399.121L290.009 412.882L287.507 424.141L285.005 421.639L278.75 402.874V395.368L280.001 394.117Z" fill="#1E102C"/>
<path d="M209.947 301.543L213.7 302.794L212.449 307.798L203.692 321.559L198.688 326.563L197.438 321.559L209.947 301.543Z" fill="#1E102C"/>
<path d="M272.494 359.089H273.745L277.498 381.607L276.247 392.866L272.494 387.862L269.992 382.858L272.494 359.089Z" fill="#1E102C"/>
<path d="M254.984 249L259.988 250.251L266.243 260.259L268.745 270.267L267.494 275.271L256.235 254.004L254.984 249Z" fill="#1E102C"/>
<path d="M237.469 223.98L239.971 225.231L246.226 241.495V243.997L237.469 246.499V223.98Z" fill="#1E102C"/>
<path d="M204.947 294.037L207.449 295.288L206.198 301.543L194.939 317.806L192.438 315.304L202.445 297.79L204.947 294.037Z" fill="#1E102C"/>
<path d="M266.238 354.085H267.489L266.238 370.348L262.485 369.097L261.234 361.591L266.238 354.085Z" fill="#1E102C"/>
<path d="M275 299.041L280.004 305.296L277.502 316.555L275 319.057V299.041Z" fill="#1E102C"/>
<path d="M13.5469 361.591L18.5508 362.842L19.8018 365.344L14.7979 376.603H13.5469V361.591Z" fill="#1E102C"/>
<path d="M246.227 247.749L248.729 249L237.47 261.51H236.219V255.255L243.725 249L246.227 247.749Z" fill="#1E102C"/>
<path d="M47.3203 401.623L52.3242 407.878L48.5713 420.388H47.3203V401.623Z" fill="#1E102C"/>
<path d="M47.3203 376.604L49.8223 379.106L51.0732 391.616H47.3203V376.604Z" fill="#1E102C"/>
</svg>
