<svg width="209" height="209" viewBox="0 0 209 209" fill="none" xmlns="http://www.w3.org/2000/svg">
<g clip-path="url(#clip0_52712_38116)">
<path d="M104.5 0L111.059 21.1577L120.847 1.28657L124.016 23.2099L136.792 5.11459L136.492 27.2637L151.942 11.3898L148.181 33.2193L165.924 19.9577L158.794 40.9301L178.393 30.6073L168.07 50.2061L189.042 43.0764L175.781 60.8191L197.61 57.058L181.736 72.5077L203.885 72.2077L185.79 84.984L207.713 88.1526L187.842 97.9408L209 104.5L187.842 111.059L207.713 120.847L185.79 124.016L203.885 136.792L181.736 136.492L197.61 151.942L175.781 148.181L189.042 165.924L168.07 158.794L178.393 178.393L158.794 168.07L165.924 189.042L148.181 175.781L151.942 197.61L136.492 181.736L136.792 203.885L124.016 185.79L120.847 207.713L111.059 187.842L104.5 209L97.9408 187.842L88.1526 207.713L84.984 185.79L72.2077 203.885L72.5077 181.736L57.058 197.61L60.8191 175.781L43.0764 189.042L50.2061 168.07L30.6073 178.393L40.9301 158.794L19.9577 165.924L33.2193 148.181L11.3898 151.942L27.2637 136.492L5.11459 136.792L23.2099 124.016L1.28657 120.847L21.1577 111.059L0 104.5L21.1577 97.9408L1.28657 88.1526L23.2099 84.984L5.11459 72.2077L27.2637 72.5077L11.3898 57.058L33.2193 60.8191L19.9577 43.0764L40.9301 50.2061L30.6073 30.6073L50.2061 40.9301L43.0764 19.9577L60.8191 33.2193L57.058 11.3898L72.5077 27.2637L72.2077 5.11459L84.984 23.2099L88.1526 1.28657L97.9408 21.1577L104.5 0Z" fill="#CEFC00"/>
<path d="M110.582 21.3057L110.953 22.5039L111.508 21.3789L120.583 2.9541L123.521 23.2812L123.701 24.5234L124.425 23.498L136.27 6.72168L135.992 27.2568L135.976 28.5117L136.851 27.6123L151.175 12.8945L147.688 33.1348L147.475 34.3711L148.48 33.6201L164.931 21.3232L158.32 40.7695L157.917 41.957L159.027 41.3721L177.197 31.8018L167.628 49.9727L167.043 51.083L168.23 50.6797L187.676 44.0684L175.38 60.5195L174.629 61.5254L175.865 61.3115L196.104 57.8242L181.388 72.1494L180.488 73.0244L181.743 73.0078L202.277 72.7295L185.502 84.5752L184.477 85.2988L185.719 85.4785L206.045 88.416L187.621 97.4922L186.495 98.0469L187.694 98.418L207.311 104.5L187.694 110.582L186.495 110.953L187.621 111.508L206.045 120.583L185.719 123.521L184.477 123.701L185.502 124.425L202.277 136.27L181.743 135.992L180.488 135.976L181.388 136.851L196.104 151.175L175.865 147.688L174.629 147.475L175.38 148.48L187.676 164.931L168.23 158.32L167.043 157.917L167.628 159.027L177.197 177.197L159.027 167.628L157.917 167.043L158.32 168.23L164.931 187.676L148.48 175.38L147.475 174.629L147.688 175.865L151.175 196.104L136.851 181.388L135.976 180.488L135.992 181.743L136.27 202.277L124.425 185.502L123.701 184.477L123.521 185.719L120.583 206.045L111.508 187.621L110.953 186.495L110.582 187.694L104.5 207.311L98.418 187.694L98.0469 186.495L97.4922 187.621L88.416 206.045L85.4785 185.719L85.2988 184.477L84.5752 185.502L72.7295 202.277L73.0078 181.743L73.0244 180.488L72.1494 181.388L57.8242 196.104L61.3115 175.865L61.5254 174.629L60.5195 175.38L44.0684 187.676L50.6797 168.23L51.083 167.043L49.9727 167.628L31.8018 177.197L41.3721 159.027L41.957 157.917L40.7695 158.32L21.3232 164.931L33.6201 148.48L34.3711 147.475L33.1348 147.688L12.8945 151.175L27.6123 136.851L28.5117 135.976L27.2568 135.992L6.72168 136.27L23.498 124.425L24.5234 123.701L23.2812 123.521L2.9541 120.583L21.3789 111.508L22.5039 110.953L21.3057 110.582L1.68848 104.5L21.3057 98.418L22.5039 98.0469L21.3789 97.4922L2.9541 88.416L23.2812 85.4785L24.5234 85.2988L23.498 84.5752L6.72168 72.7295L27.2568 73.0078L28.5117 73.0244L27.6123 72.1494L12.8945 57.8242L33.1348 61.3115L34.3711 61.5254L33.6201 60.5195L21.3232 44.0684L40.7695 50.6797L41.957 51.083L41.3721 49.9727L31.8018 31.8018L49.9727 41.3721L51.083 41.957L50.6797 40.7695L44.0684 21.3232L60.5195 33.6201L61.5254 34.3711L61.3115 33.1348L57.8242 12.8945L72.1494 27.6123L73.0244 28.5117L73.0078 27.2568L72.7295 6.72168L84.5752 23.498L85.2988 24.5234L85.4785 23.2812L88.416 2.9541L97.4922 21.3789L98.0469 22.5039L98.418 21.3057L104.5 1.68848L110.582 21.3057Z" stroke="black" stroke-opacity="0.05"/>
<path d="M72.7424 114.052C72.4856 113.827 72.2174 113.642 71.9378 113.497C71.6582 113.352 71.3644 113.262 71.0563 113.227C70.7482 113.191 70.432 113.22 70.1075 113.312C69.7858 113.389 69.4531 113.545 69.1094 113.779C68.607 114.122 68.2399 114.521 68.0079 114.976C67.7848 115.425 67.6758 115.899 67.681 116.399C67.6802 116.89 67.7697 117.391 67.9495 117.901C68.1382 118.405 68.3857 118.882 68.6922 119.331C68.9986 119.781 69.3519 120.185 69.7521 120.545C70.1611 120.899 70.5973 121.169 71.0608 121.357C71.5183 121.535 71.9968 121.603 72.4963 121.559C73.0047 121.51 73.5101 121.314 74.0124 120.971C74.3826 120.719 74.6666 120.435 74.8645 120.119C75.0564 119.795 75.1786 119.453 75.2311 119.095C75.2776 118.727 75.256 118.355 75.1662 117.977C75.0765 117.599 74.9321 117.226 74.733 116.859L76.3459 115.759C76.6952 116.347 76.9233 116.947 77.0302 117.558C77.146 118.163 77.1447 118.758 77.0265 119.342C76.9023 119.917 76.6654 120.46 76.3156 120.969C75.9659 121.479 75.5046 121.929 74.9317 122.32C74.2267 122.8 73.505 123.105 72.7667 123.234C72.0312 123.348 71.3163 123.313 70.6221 123.128C69.9279 122.942 69.2707 122.622 68.6506 122.167C68.0393 121.706 67.5023 121.136 67.0397 120.458C66.583 119.788 66.2518 119.084 66.0459 118.347C65.8488 117.603 65.7909 116.875 65.8723 116.161C65.9536 115.447 66.1818 114.768 66.5568 114.125C66.9406 113.476 67.485 112.912 68.1901 112.431C68.7189 112.07 69.2679 111.806 69.8371 111.637C70.4004 111.46 70.9544 111.392 71.4992 111.434C72.0468 111.46 72.566 111.597 73.0567 111.843C73.5474 112.09 73.9935 112.451 74.3949 112.926L72.7424 114.052ZM73.865 108.891L75.5175 107.765L80.9793 115.776L85.7782 112.504L86.7516 113.932L80.3002 118.33L73.865 108.891ZM81.4561 103.716L83.1086 102.589L89.5439 112.028L87.8914 113.155L81.4561 103.716ZM93.5535 99.8641C93.2967 99.6389 93.0285 99.4538 92.7489 99.3088C92.4693 99.1638 92.1755 99.0736 91.8674 99.0384C91.5593 99.0031 91.2431 99.0315 90.9186 99.1237C90.5969 99.201 90.2642 99.3568 89.9205 99.5911C89.4181 99.9336 89.051 100.332 88.819 100.787C88.5959 101.237 88.4869 101.711 88.4921 102.211C88.4913 102.702 88.5808 103.203 88.7606 103.713C88.9493 104.217 89.1968 104.693 89.5033 105.143C89.8097 105.592 90.163 105.997 90.5632 106.357C90.9722 106.71 91.4084 106.981 91.8719 107.168C92.3294 107.347 92.8079 107.415 93.3074 107.371C93.8158 107.321 94.3212 107.125 94.8235 106.783C95.1937 106.53 95.4777 106.246 95.6756 105.931C95.8675 105.606 95.9897 105.265 96.0422 104.906C96.0887 104.539 96.0671 104.166 95.9773 103.789C95.8876 103.411 95.7432 103.038 95.5441 102.67L97.157 101.571C97.5063 102.159 97.7344 102.759 97.8413 103.37C97.9571 103.975 97.9559 104.57 97.8377 105.154C97.7135 105.729 97.4765 106.272 97.1267 106.781C96.777 107.291 96.3157 107.741 95.7428 108.131C95.0378 108.612 94.3161 108.917 93.5778 109.046C92.8423 109.16 92.1274 109.124 91.4332 108.939C90.739 108.754 90.0818 108.434 89.4617 107.979C88.8504 107.518 88.3134 106.948 87.8508 106.269C87.3941 105.6 87.0629 104.896 86.857 104.158C86.6599 103.415 86.6021 102.686 86.6834 101.972C86.7647 101.258 86.9929 100.58 87.3679 99.9371C87.7517 99.2882 88.2961 98.7234 89.0012 98.2427C89.53 97.8822 90.079 97.6176 90.6483 97.449C91.2115 97.2715 91.7655 97.2036 92.3103 97.2453C92.8579 97.2722 93.3771 97.4088 93.8678 97.6552C94.3585 97.9016 94.8046 98.2623 95.206 98.7374L93.5535 99.8641ZM94.6761 94.7029L96.3286 93.5763L99.2578 97.8728L100.533 90.7102L102.568 89.3222L101.369 95.6586L109.268 98.581L107.206 99.987L101.039 97.588L100.601 99.8426L102.764 103.015L101.111 104.142L94.6761 94.7029ZM107.379 86.0425L109.706 84.4562L117.348 90.0706L117.375 90.0526L114.875 80.9322L117.175 79.3639L123.61 88.803L122.037 89.8755L117.071 82.5913L117.045 82.6093L119.393 91.6781L118.031 92.6064L110.448 87.1068L110.421 87.1248L115.387 94.409L113.814 95.4815L107.379 86.0425ZM119.154 78.0149L125.949 73.3823L126.922 74.81L121.78 78.3161L123.465 80.7882L128.224 77.5436L129.143 78.892L124.384 82.1366L126.268 84.8996L131.503 81.3305L132.477 82.7583L125.589 87.454L119.154 78.0149ZM59.2786 143.042L60.9311 141.915L67.3664 151.354L65.7139 152.481L59.2786 143.042ZM64.9901 143.485C65.2774 143.225 65.3988 142.949 65.3543 142.656C65.3127 142.349 65.1927 142.05 64.9944 141.759L64.188 142.309L62.9712 140.524L64.6237 139.397L65.8405 141.182C66.189 141.693 66.3366 142.232 66.2833 142.797C66.2328 143.348 65.976 143.833 65.5129 144.252L64.9901 143.485ZM66.611 138.043L68.9377 136.456L76.5802 142.071L76.6067 142.053L74.1067 132.932L76.407 131.364L82.8422 140.803L81.269 141.876L76.3029 134.591L76.2764 134.609L78.625 143.678L77.2634 144.607L69.6797 139.107L69.6532 139.125L74.6194 146.409L73.0462 147.482L66.611 138.043ZM84.59 125.785L86.3483 124.586L96.419 131.547L94.6475 132.755L92.0583 130.86L88.2906 133.429L89.1083 136.531L87.403 137.694L84.59 125.785ZM87.8839 131.866L90.7658 129.901L86.5843 126.807L86.5447 126.834L87.8839 131.866ZM94.562 118.987L99.07 115.913C100.11 115.204 101.043 114.897 101.87 114.992C102.696 115.087 103.383 115.536 103.929 116.338C104.236 116.787 104.425 117.207 104.497 117.596C104.563 117.977 104.571 118.321 104.521 118.626C104.465 118.922 104.376 119.17 104.254 119.37C104.14 119.563 104.053 119.7 103.992 119.781L104.01 119.807C104.163 119.729 104.343 119.671 104.549 119.633C104.765 119.589 104.997 119.599 105.246 119.661C105.49 119.715 105.739 119.835 105.996 120.022C106.261 120.202 106.52 120.478 106.772 120.848C107.151 121.403 107.536 121.883 107.928 122.287C108.322 122.677 108.674 122.908 108.982 122.982L107.211 124.19C106.949 124.071 106.721 123.897 106.526 123.669C106.34 123.434 106.169 123.202 106.013 122.973C105.719 122.541 105.44 122.189 105.177 121.916C104.907 121.635 104.633 121.441 104.354 121.335C104.069 121.219 103.77 121.197 103.457 121.268C103.153 121.334 102.811 121.496 102.432 121.754L99.9999 123.412L102.65 127.299L100.997 128.426L94.562 118.987ZM99.1437 122.156L101.854 120.309C102.383 119.948 102.699 119.551 102.804 119.118C102.903 118.677 102.782 118.204 102.439 117.702C102.235 117.402 102.026 117.19 101.811 117.065C101.591 116.931 101.365 116.866 101.135 116.868C100.913 116.864 100.688 116.914 100.462 117.017C100.244 117.114 100.029 117.235 99.8174 117.379L97.1338 119.208L99.1437 122.156ZM103.87 112.641L110.665 108.008L111.639 109.436L106.496 112.942L108.181 115.414L112.941 112.169L113.86 113.518L109.101 116.762L110.985 119.525L116.22 115.956L117.193 117.384L110.305 122.08L103.87 112.641ZM114.722 105.242L116.48 104.043L126.551 111.004L124.78 112.211L122.191 110.317L118.423 112.885L119.241 115.988L117.535 117.151L114.722 105.242ZM118.016 111.323L120.898 109.358L116.717 106.264L116.677 106.291L118.016 111.323ZM121.015 100.952L122.667 99.8253L128.129 107.837L132.928 104.565L133.901 105.993L127.45 110.391L121.015 100.952ZM134.81 91.5466L136.569 90.3479L146.639 97.3084L144.868 98.5161L142.279 96.6214L138.511 99.1901L139.329 102.292L137.623 103.455L134.81 91.5466ZM138.104 97.6277L140.986 95.6629L136.805 92.5688L136.765 92.5958L138.104 97.6277ZM141.103 87.2565L145.267 84.4174C145.937 83.9608 146.55 83.6852 147.105 83.5907C147.66 83.4961 148.151 83.5162 148.579 83.6508C149.006 83.7854 149.377 83.9975 149.69 84.2872C150.013 84.5708 150.273 84.8581 150.472 85.1489C150.67 85.4397 150.842 85.7871 150.988 86.1909C151.137 86.5798 151.196 86.9979 151.165 87.4449C151.135 87.892 150.974 88.3567 150.683 88.839C150.386 89.3125 149.903 89.7775 149.233 90.2342L146.721 91.9467L149.191 95.5689L147.538 96.6955L141.103 87.2565ZM145.802 90.5982L148.221 88.9489C148.406 88.8227 148.578 88.6671 148.735 88.482C148.893 88.2969 149.012 88.093 149.093 87.8703C149.176 87.6327 149.2 87.384 149.165 87.124C149.133 86.8492 149.014 86.5619 148.81 86.2623C148.6 85.9538 148.381 85.7283 148.155 85.5857C147.929 85.443 147.702 85.3655 147.474 85.3531C147.24 85.3319 147.011 85.3653 146.787 85.4534C146.563 85.5415 146.341 85.6607 146.12 85.8109L143.675 87.4783L145.802 90.5982ZM149.921 81.2449L154.085 78.4059C154.755 77.9492 155.367 77.6736 155.922 77.5791C156.478 77.4846 156.969 77.5046 157.396 77.6393C157.824 77.7739 158.194 77.986 158.508 78.2756C158.83 78.5593 159.091 78.8465 159.289 79.1373C159.487 79.4282 159.66 79.7755 159.806 80.1793C159.955 80.5683 160.014 80.9863 159.983 81.4334C159.952 81.8804 159.791 82.3451 159.501 82.8274C159.204 83.3009 158.72 83.766 158.051 84.2227L155.539 85.9351L158.008 89.5574L156.356 90.684L149.921 81.2449ZM154.619 84.5867L157.039 82.9373C157.224 82.8111 157.395 82.6555 157.553 82.4704C157.711 82.2854 157.83 82.0815 157.911 81.8587C157.994 81.6212 158.018 81.3724 157.983 81.1124C157.95 80.8376 157.832 80.5504 157.628 80.2507C157.417 79.9423 157.199 79.7167 156.973 79.5741C156.746 79.4315 156.519 79.354 156.291 79.3415C156.057 79.3203 155.828 79.3537 155.604 79.4419C155.381 79.53 155.158 79.6492 154.938 79.7994L152.492 81.4668L154.619 84.5867Z" fill="#1E102C"/>
</g>
<defs>
<clipPath id="clip0_52712_38116">
<rect width="209" height="209" fill="white"/>
</clipPath>
</defs>
</svg>
