<svg width="209" height="209" viewBox="0 0 209 209" fill="none" xmlns="http://www.w3.org/2000/svg">
<g clip-path="url(#clip0_52712_38116)">
<path d="M104.5 0L111.059 21.1577L120.847 1.28657L124.016 23.2099L136.792 5.11459L136.492 27.2637L151.942 11.3898L148.181 33.2193L165.924 19.9577L158.794 40.9301L178.393 30.6073L168.07 50.2061L189.042 43.0764L175.781 60.8191L197.61 57.058L181.736 72.5077L203.885 72.2077L185.79 84.984L207.713 88.1526L187.842 97.9408L209 104.5L187.842 111.059L207.713 120.847L185.79 124.016L203.885 136.792L181.736 136.492L197.61 151.942L175.781 148.181L189.042 165.924L168.07 158.794L178.393 178.393L158.794 168.07L165.924 189.042L148.181 175.781L151.942 197.61L136.492 181.736L136.792 203.885L124.016 185.79L120.847 207.713L111.059 187.842L104.5 209L97.9408 187.842L88.1526 207.713L84.984 185.79L72.2077 203.885L72.5077 181.736L57.058 197.61L60.8191 175.781L43.0764 189.042L50.2061 168.07L30.6073 178.393L40.9301 158.794L19.9577 165.924L33.2193 148.181L11.3898 151.942L27.2637 136.492L5.11459 136.792L23.2099 124.016L1.28657 120.847L21.1577 111.059L0 104.5L21.1577 97.9408L1.28657 88.1526L23.2099 84.984L5.11459 72.2077L27.2637 72.5077L11.3898 57.058L33.2193 60.8191L19.9577 43.0764L40.9301 50.2061L30.6073 30.6073L50.2061 40.9301L43.0764 19.9577L60.8191 33.2193L57.058 11.3898L72.5077 27.2637L72.2077 5.11459L84.984 23.2099L88.1526 1.28657L97.9408 21.1577L104.5 0Z" fill="#CEFC00"/>
<path d="M48.0254 126.508L49.6779 125.381L55.1397 133.392L59.9386 130.121L60.912 131.549L54.4606 135.947L48.0254 126.508ZM60.4015 119.716C59.8992 120.059 59.532 120.457 59.3 120.912C59.0769 121.362 58.9679 121.836 58.9731 122.336C58.9723 122.827 59.0618 123.328 59.2416 123.838C59.4303 124.342 59.6779 124.818 59.9843 125.268C60.2907 125.717 60.644 126.122 61.0442 126.482C61.4532 126.835 61.8895 127.106 62.3529 127.293C62.8104 127.472 63.2889 127.54 63.7885 127.496C64.2968 127.446 64.8022 127.25 65.3045 126.908C65.8069 126.565 66.1697 126.17 66.3928 125.72C66.6248 125.265 66.7411 124.792 66.742 124.301C66.7368 123.801 66.6399 123.299 66.4512 122.795C66.2713 122.285 66.0282 121.806 65.7218 121.356C65.4153 120.907 65.0576 120.505 64.6486 120.151C64.2484 119.792 63.8196 119.522 63.3621 119.344C62.8986 119.156 62.4127 119.087 61.9044 119.137C61.4048 119.181 60.9039 119.374 60.4015 119.716ZM59.4822 118.368C60.1873 117.887 60.9075 117.59 61.643 117.475C62.3873 117.355 63.1066 117.388 63.8008 117.573C64.4951 117.758 65.1478 118.081 65.7591 118.542C66.3792 118.997 66.9176 119.56 67.3743 120.23C67.8369 120.908 68.1668 121.619 68.3638 122.363C68.5697 123.1 68.632 123.826 68.5506 124.54C68.4693 125.254 68.2367 125.935 67.8529 126.584C67.4719 127.218 66.9289 127.776 66.2239 128.256C65.5188 128.737 64.7971 129.042 64.0588 129.171C63.3233 129.285 62.6085 129.249 61.9142 129.064C61.22 128.879 60.5628 128.559 59.9427 128.104C59.3314 127.643 58.7945 127.073 58.3318 126.394C57.8751 125.725 57.5439 125.021 57.338 124.283C57.1409 123.54 57.0831 122.811 57.1644 122.097C57.2458 121.384 57.4739 120.705 57.8489 120.062C58.2327 119.413 58.7771 118.848 59.4822 118.368ZM80.3319 118.309L79.2743 119.03L78.266 118.09C78.1678 118.893 77.9645 119.542 77.656 120.036C77.3476 120.53 76.9069 120.973 76.334 121.363C75.629 121.844 74.9073 122.149 74.169 122.278C73.4335 122.392 72.7186 122.357 72.0244 122.172C71.3302 121.986 70.673 121.666 70.0529 121.211C69.4416 120.75 68.9046 120.18 68.442 119.502C67.9853 118.832 67.654 118.128 67.4482 117.391C67.2511 116.647 67.1932 115.918 67.2746 115.205C67.3559 114.491 67.5841 113.812 67.9591 113.169C68.3429 112.52 68.8873 111.956 69.5924 111.475C70.1035 111.126 70.6363 110.866 71.1908 110.695C71.748 110.509 72.3004 110.429 72.848 110.456C73.3896 110.474 73.9176 110.605 74.432 110.848C74.9463 111.091 75.4146 111.456 75.8368 111.943L74.224 113.042C73.9696 112.764 73.6894 112.561 73.3834 112.434C73.0801 112.292 72.7643 112.217 72.4358 112.209C72.1073 112.2 71.7794 112.25 71.4521 112.357C71.1248 112.463 70.8113 112.619 70.5117 112.823C70.0093 113.166 69.6422 113.565 69.4102 114.02C69.1871 114.469 69.0781 114.943 69.0833 115.443C69.0824 115.934 69.172 116.435 69.3518 116.945C69.5405 117.449 69.788 117.926 70.0945 118.375C70.4009 118.824 70.7542 119.229 71.1544 119.589C71.5634 119.943 71.9996 120.213 72.4631 120.401C72.9206 120.579 73.3991 120.647 73.8986 120.603C74.407 120.554 74.9124 120.358 75.4147 120.015C75.8438 119.735 76.1823 119.427 76.4303 119.09C76.6722 118.745 76.8283 118.386 76.8984 118.016C76.9713 117.631 76.9539 117.236 76.8462 116.832C76.7384 116.427 76.5537 116.024 76.2922 115.621L73.7804 117.334L72.9242 116.078L76.943 113.338L80.3319 118.309ZM79.3712 105.137L81.0237 104.011L87.4589 113.45L85.8064 114.576L79.3712 105.137ZM82.9844 102.674L84.7295 101.484L93.78 105.5L93.8064 105.482L89.0656 98.5279L90.6388 97.4554L97.074 106.894L95.329 108.084L86.3007 104.073L86.2611 104.1L90.9928 111.04L89.4197 112.113L82.9844 102.674ZM95.3715 94.2288L103.013 89.0193L103.986 90.4471L100.985 92.493L106.447 100.504L104.794 101.631L99.3327 93.6196L96.3449 95.6565L95.3715 94.2288ZM108.892 86.6571C108.39 86.9995 108.022 87.3983 107.79 87.8534C107.567 88.3025 107.458 88.777 107.463 89.2769C107.463 89.768 107.552 90.2686 107.732 90.7785C107.921 91.2825 108.168 91.7592 108.475 92.2087C108.781 92.6582 109.134 93.0628 109.535 93.4225C109.944 93.7763 110.38 94.0469 110.843 94.2344C111.301 94.4131 111.779 94.4806 112.279 94.4369C112.787 94.3873 113.293 94.1912 113.795 93.8487C114.297 93.5062 114.66 93.1104 114.883 92.6614C115.115 92.2063 115.232 91.7332 115.232 91.2421C115.227 90.7421 115.13 90.2402 114.942 89.7362C114.762 89.2263 114.519 88.7466 114.212 88.2971C113.906 87.8476 113.548 87.446 113.139 87.0923C112.739 86.7325 112.31 86.4633 111.853 86.2846C111.389 86.0971 110.903 86.0282 110.395 86.0778C109.895 86.1215 109.394 86.3146 108.892 86.6571ZM107.973 85.3086C108.678 84.8279 109.398 84.5305 110.133 84.4164C110.878 84.2962 111.597 84.3287 112.291 84.5138C112.985 84.6989 113.638 85.022 114.25 85.4831C114.87 85.9382 115.408 86.5007 115.865 87.1705C116.327 87.8491 116.657 88.5602 116.854 89.3037C117.06 90.0412 117.122 90.7669 117.041 91.4807C116.96 92.1946 116.727 92.876 116.343 93.5249C115.962 94.1591 115.419 94.7165 114.714 95.1971C114.009 95.6778 113.288 95.9827 112.549 96.1116C111.814 96.2258 111.099 96.1903 110.405 96.0052C109.71 95.8201 109.053 95.5 108.433 95.0449C107.822 94.5838 107.285 94.0139 106.822 93.3353C106.366 92.6655 106.034 91.9618 105.828 91.2243C105.631 90.4808 105.573 89.7521 105.655 89.0383C105.736 88.3244 105.964 87.646 106.339 87.0031C106.723 86.3541 107.268 85.7893 107.973 85.3086ZM116.931 79.53L124.573 74.3205L125.546 75.7483L122.545 77.7942L128.007 85.8055L126.354 86.9321L120.893 78.9208L117.905 80.9577L116.931 79.53ZM125.627 73.6015L127.28 72.4749L129.839 76.2294L134.136 73.3002L131.576 69.5457L133.229 68.4191L139.664 77.8581L138.011 78.9848L135.109 74.7279L130.813 77.6571L133.715 81.914L132.062 83.0406L125.627 73.6015ZM135.207 67.07L136.86 65.9434L143.295 75.3825L141.643 76.5091L135.207 67.07ZM144.261 70.1152C144.507 70.4766 144.779 70.743 145.077 70.9144C145.375 71.0859 145.691 71.1802 146.025 71.1975C146.354 71.2059 146.686 71.1536 147.022 71.0407C147.361 70.9129 147.698 70.7349 148.033 70.5065C148.394 70.2602 148.676 70.0102 148.877 69.7566C149.073 69.4943 149.205 69.2429 149.273 69.0025C149.342 68.7622 149.354 68.5342 149.31 68.3187C149.261 68.0944 149.176 67.8941 149.056 67.7178C148.809 67.3565 148.545 67.1492 148.264 67.0959C147.985 67.0278 147.724 67.0245 147.482 67.0862C147.063 67.1912 146.593 67.344 146.072 67.5447C145.553 67.7305 144.907 67.9576 144.135 68.226C143.657 68.3966 143.225 68.4914 142.838 68.5102C142.453 68.5142 142.109 68.4645 141.806 68.3611C141.504 68.2578 141.236 68.1111 141.003 67.9212C140.779 67.7253 140.583 67.504 140.415 67.2572C140.09 66.7813 139.908 66.3054 139.867 65.8295C139.83 65.3388 139.896 64.8677 140.066 64.4162C140.236 63.9647 140.492 63.5449 140.834 63.1567C141.17 62.7598 141.549 62.4171 141.972 62.1287C142.466 61.7922 142.974 61.5428 143.496 61.3806C144.021 61.2036 144.533 61.1317 145.033 61.1649C145.543 61.1922 146.023 61.3292 146.476 61.576C146.922 61.814 147.313 62.1797 147.65 62.6733L145.997 63.7999C145.539 63.2218 145.04 62.9356 144.502 62.9412C143.957 62.9379 143.399 63.1316 142.826 63.5222C142.632 63.6544 142.449 63.8116 142.276 63.9938C142.097 64.1673 141.957 64.3596 141.856 64.5707C141.748 64.773 141.692 64.9925 141.685 65.2293C141.688 65.46 141.77 65.6944 141.932 65.9323C142.16 66.2672 142.442 66.4625 142.777 66.5182C143.115 66.5591 143.484 66.5138 143.885 66.3824C143.926 66.3672 144.09 66.3138 144.376 66.222C144.665 66.1155 144.986 65.9997 145.34 65.8747C145.693 65.7498 146.038 65.6308 146.374 65.5179C146.713 65.3901 146.957 65.3018 147.104 65.2529C147.479 65.1395 147.837 65.0885 148.181 65.0997C148.524 65.1109 148.846 65.1756 149.146 65.2938C149.449 65.3972 149.719 65.5482 149.958 65.7469C150.206 65.9396 150.414 66.1594 150.582 66.4061C150.942 66.9349 151.142 67.4639 151.18 67.9931C151.221 68.5075 151.146 69.0038 150.956 69.4821C150.765 69.9604 150.481 70.4057 150.104 70.8179C149.733 71.2389 149.313 71.6086 148.846 71.9271C148.309 72.2936 147.757 72.573 147.191 72.7652C146.625 72.9575 146.072 73.0372 145.534 73.0043C144.995 72.9715 144.475 72.8156 143.975 72.5368C143.47 72.2491 143.014 71.8175 142.608 71.2418L144.261 70.1152ZM61.5018 144.043C61.8191 143.827 62.1095 143.59 62.3731 143.333C62.6367 143.076 62.8455 142.804 62.9993 142.519C63.1619 142.227 63.2609 141.927 63.2962 141.619C63.3402 141.305 63.2926 140.989 63.1532 140.671L64.3826 139.833L70.6917 149.087L69.0392 150.213L64.5868 143.683L62.313 145.233L61.5018 144.043ZM70.6505 135.289C71.3115 134.838 71.9542 134.626 72.5788 134.652C73.2061 134.663 73.7966 134.828 74.3502 135.148C74.9066 135.453 75.4167 135.86 75.8806 136.37C76.3533 136.874 76.7699 137.391 77.1304 137.92C77.4909 138.448 77.8194 139.025 78.1158 139.649C78.4211 140.267 78.6169 140.895 78.7034 141.533C78.7927 142.157 78.731 142.767 78.5183 143.364C78.3084 143.946 77.8729 144.462 77.2119 144.913C76.5509 145.363 75.9067 145.583 75.2794 145.572C74.6549 145.546 74.0644 145.38 73.508 145.075C72.9544 144.756 72.4412 144.344 71.9685 143.84C71.5047 143.33 71.0925 142.811 70.732 142.282C70.3714 141.753 70.0386 141.18 69.7333 140.561C69.4369 139.937 69.2441 139.314 69.1547 138.69C69.0682 138.052 69.13 137.442 69.3399 136.86C69.5526 136.263 69.9895 135.739 70.6505 135.289ZM76.3557 143.657C76.6818 143.434 76.8919 143.156 76.986 142.82C77.0742 142.476 77.0718 142.104 76.9789 141.702C76.8887 141.286 76.7229 140.844 76.4814 140.376C76.2398 139.908 75.9538 139.432 75.6233 138.947C75.2929 138.462 74.957 138.026 74.6157 137.639C74.2684 137.244 73.9175 136.928 73.563 136.692C73.2173 136.45 72.8711 136.311 72.5246 136.277C72.1721 136.233 71.8328 136.322 71.5067 136.544C71.1718 136.773 70.9603 137.059 70.8721 137.403C70.7868 137.732 70.7892 138.105 70.8793 138.521C70.9782 138.932 71.1485 139.371 71.39 139.839C71.6256 140.298 71.9086 140.77 72.239 141.254C72.5695 141.739 72.9084 142.179 73.2557 142.575C73.603 142.971 73.9495 143.29 74.2952 143.532C74.6437 143.759 74.9898 143.897 75.3335 143.947C75.68 143.982 76.0208 143.885 76.3557 143.657ZM77.9963 130.28C78.6573 129.83 79.3001 129.617 79.9246 129.644C80.552 129.655 81.1424 129.82 81.696 130.14C82.2525 130.445 82.7626 130.852 83.2265 131.362C83.6992 131.866 84.1158 132.383 84.4763 132.911C84.8368 133.44 85.1653 134.017 85.4617 134.641C85.7669 135.259 85.9628 135.887 86.0493 136.525C86.1386 137.149 86.0769 137.759 85.8641 138.356C85.6542 138.938 85.2187 139.454 84.5577 139.905C83.8967 140.355 83.2526 140.575 82.6253 140.564C82.0007 140.538 81.4103 140.372 80.8538 140.067C80.3002 139.748 79.7871 139.336 79.3144 138.832C78.8505 138.322 78.4383 137.802 78.0778 137.274C77.7173 136.745 77.3844 136.171 77.0792 135.553C76.7828 134.929 76.5899 134.305 76.5006 133.682C76.4141 133.044 76.4758 132.434 76.6857 131.852C76.8985 131.255 77.3353 130.731 77.9963 130.28ZM83.7015 138.649C84.0276 138.426 84.2377 138.148 84.3319 137.812C84.42 137.468 84.4176 137.095 84.3247 136.694C84.2346 136.278 84.0688 135.836 83.8272 135.368C83.5857 134.9 83.2997 134.424 82.9692 133.939C82.6387 133.454 82.3028 133.018 81.9615 132.631C81.6142 132.235 81.2633 131.92 80.9088 131.684C80.5631 131.442 80.217 131.303 79.8705 131.268C79.518 131.225 79.1787 131.314 78.8526 131.536C78.5177 131.765 78.3061 132.051 78.218 132.395C78.1327 132.724 78.135 133.097 78.2252 133.513C78.3241 133.923 78.4943 134.363 78.7359 134.83C78.9714 135.29 79.2544 135.761 79.5849 136.246C79.9154 136.731 80.2543 137.171 80.6016 137.567C80.9489 137.963 81.2954 138.282 81.6411 138.524C81.9896 138.751 82.3357 138.889 82.6794 138.939C83.0259 138.974 83.3666 138.877 83.7015 138.649ZM85.7345 128.858C85.9027 129.105 86.0795 129.327 86.265 129.523C86.4445 129.711 86.6279 129.857 86.8154 129.961C87.0029 130.066 87.1914 130.124 87.3809 130.137C87.5731 130.135 87.7618 130.071 87.9469 129.945C88.132 129.819 88.2606 129.667 88.3327 129.488C88.3988 129.301 88.4174 129.101 88.3886 128.889C88.3598 128.676 88.2909 128.452 88.1819 128.216C88.0758 127.966 87.9386 127.717 87.7703 127.47C87.6201 127.25 87.4553 127.046 87.2758 126.859C87.1052 126.665 86.9231 126.512 86.7296 126.398C86.5361 126.285 86.3402 126.225 86.142 126.218C85.9376 126.202 85.7341 126.264 85.5314 126.402C85.3287 126.54 85.1973 126.707 85.1372 126.903C85.0711 127.09 85.0555 127.294 85.0903 127.516C85.134 127.732 85.2147 127.954 85.3325 128.184C85.4502 128.413 85.5842 128.638 85.7345 128.858ZM88.546 130.795C88.1494 131.066 87.762 131.226 87.3838 131.278C87.0057 131.329 86.6473 131.296 86.3088 131.178C85.9703 131.06 85.6533 130.87 85.3576 130.606C85.062 130.343 84.791 130.031 84.5447 129.67C84.3043 129.317 84.1156 128.955 83.9787 128.584C83.8445 128.198 83.7844 127.825 83.7984 127.467C83.8213 127.103 83.9212 126.757 84.0983 126.43C84.2842 126.097 84.571 125.798 84.9588 125.534C85.3466 125.269 85.7252 125.114 86.0945 125.069C86.4727 125.018 86.831 125.051 87.1695 125.169C87.5168 125.281 87.8413 125.473 88.1429 125.745C88.4474 126.002 88.7198 126.307 88.9601 126.659C89.2065 127.021 89.3981 127.387 89.5351 127.758C89.6721 128.13 89.7336 128.494 89.7196 128.853C89.7055 129.211 89.6056 129.556 89.4197 129.89C89.2338 130.223 88.9426 130.525 88.546 130.795ZM95.3451 128.697C95.5134 128.943 95.6902 129.165 95.8757 129.361C96.0552 129.549 96.2386 129.695 96.4261 129.799C96.6136 129.904 96.8021 129.962 96.9915 129.975C97.1838 129.973 97.3725 129.909 97.5576 129.783C97.7427 129.657 97.8713 129.505 97.9434 129.326C98.0095 129.139 98.0281 128.939 97.9993 128.727C97.9704 128.514 97.9015 128.29 97.7926 128.054C97.6864 127.804 97.5493 127.555 97.381 127.309C97.2308 127.088 97.066 126.884 96.8865 126.697C96.7159 126.503 96.5338 126.35 96.3403 126.236C96.1468 126.123 95.9509 126.063 95.7526 126.056C95.5483 126.041 95.3448 126.102 95.1421 126.24C94.9394 126.378 94.808 126.545 94.7479 126.741C94.6818 126.928 94.6662 127.133 94.701 127.354C94.7447 127.57 94.8254 127.792 94.9432 128.022C95.0609 128.251 95.1949 128.476 95.3451 128.697ZM98.1566 130.633C97.76 130.904 97.3727 131.065 96.9945 131.116C96.6163 131.167 96.258 131.134 95.9195 131.016C95.581 130.898 95.2639 130.708 94.9683 130.444C94.6727 130.181 94.4017 129.869 94.1553 129.508C93.915 129.155 93.7263 128.793 93.5893 128.422C93.4552 128.036 93.3951 127.664 93.4091 127.305C93.432 126.941 93.5319 126.596 93.709 126.268C93.8949 125.935 94.1817 125.636 94.5695 125.372C94.9573 125.107 95.3359 124.953 95.7052 124.907C96.0834 124.856 96.4417 124.889 96.7802 125.007C97.1275 125.119 97.452 125.311 97.7536 125.583C98.0581 125.84 98.3305 126.145 98.5708 126.497C98.8172 126.859 99.0088 127.225 99.1458 127.596C99.2828 127.968 99.3443 128.333 99.3303 128.691C99.3162 129.049 99.2163 129.394 99.0304 129.728C98.8445 130.061 98.5532 130.363 98.1566 130.633ZM90.1567 121.796L91.1614 121.111L92.7869 134.488L91.7558 135.191L90.1567 121.796ZM99.5711 115.571L101.224 114.445L106.685 122.456L111.484 119.184L112.458 120.612L106.006 125.011L99.5711 115.571ZM107.162 110.396L108.815 109.269L115.25 118.709L113.597 119.835L107.162 110.396ZM109.771 108.618L111.489 107.446L118.948 113.302L118.975 113.284L116.301 104.165L117.98 103.021L121.19 114.659L119.352 115.912L109.771 108.618ZM118.923 102.378L125.718 97.7451L126.692 99.1729L121.549 102.679L123.235 105.151L127.994 101.906L128.913 103.255L124.154 106.499L126.038 109.262L131.273 105.693L132.246 107.121L125.359 111.817L118.923 102.378ZM133.455 92.4707L135.213 91.272L145.284 98.2325L143.512 99.4403L140.923 97.5455L137.155 100.114L137.973 103.217L136.268 104.379L133.455 92.4707ZM136.749 98.5519L139.631 96.5871L135.449 93.4929L135.409 93.52L136.749 98.5519ZM139.747 88.1807L143.912 85.3416C144.581 84.8849 145.194 84.6094 145.749 84.5148C146.304 84.4203 146.796 84.4404 147.223 84.575C147.651 84.7096 148.021 84.9217 148.335 85.2114C148.657 85.495 148.918 85.7822 149.116 86.0731C149.314 86.3639 149.487 86.7112 149.633 87.115C149.782 87.504 149.841 87.922 149.81 88.3691C149.779 88.8162 149.618 89.2809 149.327 89.7632C149.031 90.2367 148.547 90.7017 147.877 91.1584L145.366 92.8708L147.835 96.4931L146.183 97.6197L139.747 88.1807ZM144.446 91.5224L146.866 89.873C147.051 89.7469 147.222 89.5912 147.38 89.4062C147.538 89.2211 147.657 89.0172 147.737 88.7945C147.821 88.5569 147.845 88.3081 147.81 88.0482C147.777 87.7733 147.659 87.4861 147.454 87.1865C147.244 86.878 147.026 86.6525 146.8 86.5098C146.573 86.3672 146.346 86.2897 146.118 86.2773C145.884 86.256 145.655 86.2895 145.431 86.3776C145.207 86.4657 144.985 86.5849 144.765 86.7351L142.319 88.4025L144.446 91.5224ZM148.565 82.1691L152.729 79.3301C153.399 78.8734 154.012 78.5978 154.567 78.5033C155.122 78.4088 155.613 78.4288 156.041 78.5634C156.468 78.698 156.839 78.9102 157.152 79.1998C157.475 79.4834 157.735 79.7707 157.934 80.0615C158.132 80.3524 158.304 80.6997 158.45 81.1035C158.599 81.4925 158.658 81.9105 158.628 82.3576C158.597 82.8046 158.436 83.2693 158.145 83.7516C157.848 84.2251 157.365 84.6902 156.695 85.1468L154.183 86.8593L156.653 90.4816L155 91.6082L148.565 82.1691ZM153.264 85.5109L155.683 83.8615C155.868 83.7353 156.04 83.5797 156.197 83.3946C156.355 83.2095 156.475 83.0056 156.555 82.7829C156.638 82.5454 156.662 82.2966 156.627 82.0366C156.595 81.7618 156.476 81.4746 156.272 81.1749C156.062 80.8665 155.843 80.6409 155.617 80.4983C155.391 80.3557 155.164 80.2781 154.936 80.2657C154.702 80.2445 154.473 80.2779 154.249 80.366C154.025 80.4542 153.803 80.5733 153.583 80.7236L151.137 82.3909L153.264 85.5109Z" fill="#1E102C"/>
</g>
<defs>
<clipPath id="clip0_52712_38116">
<rect width="209" height="209" fill="white"/>
</clipPath>
</defs>
</svg>
