<svg width="209" height="209" viewBox="0 0 209 209" fill="none" xmlns="http://www.w3.org/2000/svg">
<g clip-path="url(#clip0_52712_38116)">
<path d="M104.5 0L111.059 21.1577L120.847 1.28657L124.016 23.2099L136.792 5.11459L136.492 27.2637L151.942 11.3898L148.181 33.2193L165.924 19.9577L158.794 40.9301L178.393 30.6073L168.07 50.2061L189.042 43.0764L175.781 60.8191L197.61 57.058L181.736 72.5077L203.885 72.2077L185.79 84.984L207.713 88.1526L187.842 97.9408L209 104.5L187.842 111.059L207.713 120.847L185.79 124.016L203.885 136.792L181.736 136.492L197.61 151.942L175.781 148.181L189.042 165.924L168.07 158.794L178.393 178.393L158.794 168.07L165.924 189.042L148.181 175.781L151.942 197.61L136.492 181.736L136.792 203.885L124.016 185.79L120.847 207.713L111.059 187.842L104.5 209L97.9408 187.842L88.1526 207.713L84.984 185.79L72.2077 203.885L72.5077 181.736L57.058 197.61L60.8191 175.781L43.0764 189.042L50.2061 168.07L30.6073 178.393L40.9301 158.794L19.9577 165.924L33.2193 148.181L11.3898 151.942L27.2637 136.492L5.11459 136.792L23.2099 124.016L1.28657 120.847L21.1577 111.059L0 104.5L21.1577 97.9408L1.28657 88.1526L23.2099 84.984L5.11459 72.2077L27.2637 72.5077L11.3898 57.058L33.2193 60.8191L19.9577 43.0764L40.9301 50.2061L30.6073 30.6073L50.2061 40.9301L43.0764 19.9577L60.8191 33.2193L57.058 11.3898L72.5077 27.2637L72.2077 5.11459L84.984 23.2099L88.1526 1.28657L97.9408 21.1577L104.5 0Z" fill="#CEFC00"/>
<path d="M110.582 21.3057L110.953 22.5039L111.508 21.3789L120.583 2.9541L123.521 23.2812L123.701 24.5234L124.425 23.498L136.27 6.72168L135.992 27.2568L135.976 28.5117L136.851 27.6123L151.175 12.8945L147.688 33.1348L147.475 34.3711L148.48 33.6201L164.931 21.3232L158.32 40.7695L157.917 41.957L159.027 41.3721L177.197 31.8018L167.628 49.9727L167.043 51.083L168.23 50.6797L187.676 44.0684L175.38 60.5195L174.629 61.5254L175.865 61.3115L196.104 57.8242L181.388 72.1494L180.488 73.0244L181.743 73.0078L202.277 72.7295L185.502 84.5752L184.477 85.2988L185.719 85.4785L206.045 88.416L187.621 97.4922L186.495 98.0469L187.694 98.418L207.311 104.5L187.694 110.582L186.495 110.953L187.621 111.508L206.045 120.583L185.719 123.521L184.477 123.701L185.502 124.425L202.277 136.27L181.743 135.992L180.488 135.976L181.388 136.851L196.104 151.175L175.865 147.688L174.629 147.475L175.38 148.48L187.676 164.931L168.23 158.32L167.043 157.917L167.628 159.027L177.197 177.197L159.027 167.628L157.917 167.043L158.32 168.23L164.931 187.676L148.48 175.38L147.475 174.629L147.688 175.865L151.175 196.104L136.851 181.388L135.976 180.488L135.992 181.743L136.27 202.277L124.425 185.502L123.701 184.477L123.521 185.719L120.583 206.045L111.508 187.621L110.953 186.495L110.582 187.694L104.5 207.311L98.418 187.694L98.0469 186.495L97.4922 187.621L88.416 206.045L85.4785 185.719L85.2988 184.477L84.5752 185.502L72.7295 202.277L73.0078 181.743L73.0244 180.488L72.1494 181.388L57.8242 196.104L61.3115 175.865L61.5254 174.629L60.5195 175.38L44.0684 187.676L50.6797 168.23L51.083 167.043L49.9727 167.628L31.8018 177.197L41.3721 159.027L41.957 157.917L40.7695 158.32L21.3232 164.931L33.6201 148.48L34.3711 147.475L33.1348 147.688L12.8945 151.175L27.6123 136.851L28.5117 135.976L27.2568 135.992L6.72168 136.27L23.498 124.425L24.5234 123.701L23.2812 123.521L2.9541 120.583L21.3789 111.508L22.5039 110.953L21.3057 110.582L1.68848 104.5L21.3057 98.418L22.5039 98.0469L21.3789 97.4922L2.9541 88.416L23.2812 85.4785L24.5234 85.2988L23.498 84.5752L6.72168 72.7295L27.2568 73.0078L28.5117 73.0244L27.6123 72.1494L12.8945 57.8242L33.1348 61.3115L34.3711 61.5254L33.6201 60.5195L21.3232 44.0684L40.7695 50.6797L41.957 51.083L41.3721 49.9727L31.8018 31.8018L49.9727 41.3721L51.083 41.957L50.6797 40.7695L44.0684 21.3232L60.5195 33.6201L61.5254 34.3711L61.3115 33.1348L57.8242 12.8945L72.1494 27.6123L73.0244 28.5117L73.0078 27.2568L72.7295 6.72168L84.5752 23.498L85.2988 24.5234L85.4785 23.2812L88.416 2.9541L97.4922 21.3789L98.0469 22.5039L98.418 21.3057L104.5 1.68848L110.582 21.3057Z" stroke="black" stroke-opacity="0.05"/>
<path d="M66.8087 113.026C66.6168 113.067 66.4193 113.137 66.2162 113.236C66.0159 113.321 65.7879 113.451 65.5323 113.625C65.171 113.872 64.8591 114.181 64.5967 114.554C64.3431 114.92 64.1819 115.346 64.113 115.832C64.0528 116.312 64.1043 116.852 64.2673 117.45C64.4392 118.043 64.7654 118.692 65.2461 119.397C65.6787 120.032 66.1278 120.539 66.5933 120.919C67.0676 121.293 67.5406 121.551 68.0125 121.694C68.4932 121.831 68.9684 121.856 69.4379 121.768C69.9162 121.674 70.3801 121.474 70.8295 121.168C71.0587 121.012 71.2582 120.85 71.428 120.682C71.6007 120.5 71.7467 120.317 71.8661 120.132L70.9648 118.81L71.9431 118.143L73.1598 119.928L73.1911 119.945C73.0649 120.328 72.8472 120.728 72.5379 121.146C72.2226 121.554 71.7741 121.957 71.1924 122.353C70.6372 122.732 70.0585 122.991 69.4564 123.13C68.8571 123.255 68.2534 123.24 67.6453 123.087C67.0372 122.933 66.432 122.623 65.8295 122.156C65.2298 121.674 64.6476 121.019 64.0828 120.19C63.4939 119.327 63.101 118.523 62.9039 117.78C62.7008 117.027 62.6508 116.338 62.7537 115.713C62.8507 115.079 63.0771 114.512 63.4328 114.011C63.7974 113.504 64.2529 113.064 64.7993 112.692C65.0989 112.488 65.3679 112.324 65.6063 112.2C65.8387 112.067 66.0536 111.966 66.2511 111.896C66.4426 111.817 66.621 111.766 66.7865 111.744C66.9607 111.715 67.1366 111.699 67.3141 111.694L67.3273 111.685L68.7513 113.774L67.773 114.441L66.8087 113.026ZM69.1855 109.934L70.2828 109.186L75.9249 117.462L79.6661 114.911L78.0979 112.611L79.0762 111.944L81.3114 115.222L75.4946 119.188L69.1855 109.934ZM76.7158 104.8L83.0613 100.474L83.7283 101.452L81.0975 103.246L86.0727 110.543L88.7034 108.75L89.3704 109.728L83.0248 114.054L82.3578 113.076L84.9754 111.291L80.0003 103.994L77.3827 105.778L76.7158 104.8ZM90.5891 96.8134C90.3972 96.8539 90.1997 96.924 89.9966 97.0237C89.7963 97.1086 89.5684 97.2382 89.3128 97.4125C88.9514 97.6588 88.6396 97.9683 88.3772 98.3408C88.1236 98.7074 87.9623 99.1336 87.8934 99.6195C87.8333 100.099 87.8847 100.639 88.0478 101.238C88.2196 101.831 88.5459 102.48 89.0265 103.185C89.4592 103.819 89.9082 104.326 90.3737 104.706C90.848 105.08 91.3211 105.338 91.793 105.481C92.2737 105.618 92.7488 105.643 93.2183 105.555C93.6966 105.462 94.1605 105.262 94.61 104.955C94.8391 104.799 95.0386 104.637 95.2085 104.47C95.3811 104.287 95.5272 104.104 95.6466 103.919L94.7453 102.597L95.7235 101.93L96.9403 103.715L96.9715 103.732C96.8453 104.115 96.6276 104.515 96.3183 104.933C96.003 105.341 95.5546 105.744 94.9729 106.141C94.4176 106.519 93.839 106.778 93.2369 106.918C92.6376 107.042 92.0339 107.028 91.4258 106.874C90.8177 106.721 90.2124 106.41 89.6099 105.943C89.0102 105.461 88.428 104.806 87.8632 103.978C87.2743 103.114 86.8814 102.31 86.6843 101.567C86.4812 100.815 86.4312 100.126 86.5342 99.5005C86.6311 98.8663 86.8575 98.2989 87.2132 97.7982C87.5778 97.2914 88.0333 96.8518 88.5797 96.4793C88.8794 96.275 89.1484 96.1109 89.3867 95.9872C89.6191 95.8546 89.834 95.7532 90.0315 95.6831C90.223 95.6042 90.4015 95.5536 90.5669 95.5311C90.7412 95.5027 90.917 95.4861 91.0945 95.4813L91.1077 95.4723L92.5318 97.561L91.5535 98.228L90.5891 96.8134ZM98.4039 97.2949L97.386 97.9889L100.306 102.272L99.2089 103.02L92.8999 93.7663L93.9971 93.0182L96.8092 97.1429L97.8007 96.4669L97.9631 90.3144L99.2322 89.4491L98.9682 96.0776L105.951 98.4237L104.563 99.37L98.4039 97.2949ZM115.789 82.7117L115.065 81.3657L114.999 81.4108L115.14 82.9803L115.333 86.1602L115.002 86.3856L112.037 85.0761L110.663 84.367L110.597 84.4121L111.603 85.5466L115.803 91.7071L114.732 92.4371L108.423 83.1832L109.441 82.4892L114.033 84.5095L114.059 84.4915L113.777 79.5329L114.769 78.857L121.078 88.1109L119.98 88.859L115.789 82.7117ZM116.971 77.3553L122.405 73.651L123.072 74.6293L118.735 77.5855L120.799 80.6129L124.805 77.882L125.472 78.8603L121.466 81.5912L123.71 84.883L128.113 81.8817L128.78 82.8599L123.28 86.6093L116.971 77.3553ZM51.1846 143.992L57.5302 139.665L58.1972 140.644L55.5664 142.437L60.5415 149.735L63.1723 147.941L63.8393 148.919L57.4937 153.246L56.8267 152.267L59.4443 150.483L54.4691 143.185L51.8516 144.97L51.1846 143.992ZM61.5746 137.315C61.4123 137.077 61.3625 136.833 61.425 136.584C61.4875 136.335 61.6333 136.132 61.8624 135.976C62.1709 135.766 62.4808 135.69 62.792 135.749C63.1033 135.808 63.3851 136.022 63.6375 136.392C63.8778 136.745 64.0352 137.089 64.1097 137.426C64.187 137.748 64.2108 138.048 64.1812 138.326C64.1603 138.599 64.1067 138.842 64.0201 139.056C63.9276 139.261 63.8346 139.427 63.7413 139.556L62.9752 139.284C63.1378 138.992 63.2412 138.689 63.2853 138.375C63.3381 138.055 63.2624 137.745 63.0582 137.446C63.0289 137.479 62.979 137.519 62.9085 137.567C62.7058 137.705 62.4697 137.757 62.2001 137.721C61.9393 137.679 61.7308 137.544 61.5746 137.315ZM74.4046 132.712L73.6806 131.366L73.6145 131.411L73.755 132.98L73.9478 136.16L73.6173 136.386L70.6526 135.076L69.2783 134.367L69.2122 134.412L70.2181 135.547L74.4181 141.707L73.3473 142.437L67.0383 133.183L68.0562 132.489L72.6481 134.509L72.6746 134.491L72.3923 129.533L73.3838 128.857L79.6929 138.111L78.5956 138.859L74.4046 132.712ZM92.357 125.72L88.8009 128.145L89.7033 131.286L88.6192 132.025L85.4037 120.662L86.6992 119.779L96.1282 126.906L94.978 127.69L92.357 125.72ZM88.4956 126.958L91.404 124.976L87.0771 121.555L86.9185 121.663L88.4956 126.958ZM99.3374 111.298C99.6302 111.008 99.9806 110.698 100.388 110.369C100.805 110.033 101.194 109.742 101.555 109.496C101.961 109.219 102.374 109.002 102.796 108.844C103.226 108.679 103.647 108.606 104.058 108.622C104.478 108.632 104.883 108.744 105.273 108.956C105.663 109.167 106.017 109.507 106.335 109.974C106.582 110.335 106.739 110.699 106.808 111.065C106.88 111.417 106.897 111.754 106.859 112.077C106.823 112.385 106.755 112.664 106.654 112.913C106.553 113.163 106.455 113.359 106.359 113.502L111.797 116.224L110.514 117.098L105.557 114.513L103.905 115.64L106.681 119.712L105.583 120.46L99.3374 111.298ZM102.231 110.429C102.116 110.508 101.997 110.589 101.874 110.673C101.75 110.757 101.634 110.842 101.526 110.929C101.417 111.016 101.313 111.1 101.213 111.181C101.122 111.256 101.052 111.323 101.002 111.383L103.328 114.794L104.359 114.091C104.967 113.676 105.367 113.184 105.56 112.614C105.752 112.044 105.632 111.441 105.199 110.807C104.875 110.331 104.444 110.05 103.908 109.964C103.371 109.878 102.812 110.033 102.231 110.429ZM107.294 105.738L112.727 102.034L113.394 103.012L109.058 105.969L111.122 108.996L115.127 106.265L115.794 107.243L111.789 109.974L114.033 113.266L118.435 110.265L119.102 111.243L113.603 114.992L107.294 105.738ZM124.064 104.103L120.508 106.528L121.411 109.669L120.326 110.408L117.111 99.0453L118.406 98.162L127.835 105.289L126.685 106.073L124.064 104.103ZM120.203 105.342L123.111 103.359L118.784 99.9377L118.626 100.046L120.203 105.342ZM122.923 95.0831L124.02 94.335L129.662 102.611L133.403 100.06L131.835 97.7598L132.813 97.0929L135.048 100.371L129.232 104.337L122.923 95.0831ZM147.845 87.8906L144.289 90.315L145.191 93.4565L144.107 94.1956L140.891 82.8326L142.187 81.9493L151.616 89.0762L150.466 89.8604L147.845 87.8906ZM143.983 89.1289L146.892 87.146L142.565 83.725L142.406 83.8331L143.983 89.1289ZM146.898 78.8728C147.179 78.5652 147.504 78.266 147.874 77.9751C148.244 77.6843 148.618 77.4097 148.997 77.1514C149.403 76.875 149.84 76.6352 150.308 76.4321C150.785 76.223 151.267 76.1071 151.755 76.0843C152.243 76.0615 152.719 76.163 153.183 76.389C153.656 76.6089 154.087 77.0053 154.478 77.5782C154.863 78.1422 155.086 78.6873 155.147 79.2132C155.209 79.7392 155.156 80.2398 154.99 80.7149C154.817 81.1811 154.551 81.6144 154.191 82.0146C153.831 82.4147 153.422 82.7711 152.964 83.0835C152.92 83.1136 152.845 83.1646 152.739 83.2367C152.642 83.3028 152.537 83.3749 152.422 83.453C152.31 83.5163 152.199 83.5796 152.087 83.6429C151.975 83.7062 151.894 83.7485 151.844 83.7697L154.241 87.2862L153.144 88.0343L146.898 78.8728ZM149.673 78.0852C149.443 78.2414 149.226 78.396 149.021 78.549C148.815 78.7021 148.663 78.8383 148.563 78.9576L151.177 82.7914C151.233 82.779 151.313 82.7441 151.416 82.6869C151.513 82.6208 151.617 82.5561 151.729 82.4928C151.834 82.4207 151.936 82.3516 152.033 82.2855C152.13 82.2194 152.2 82.1713 152.244 82.1413C152.544 81.937 152.821 81.7093 153.076 81.4581C153.334 81.1921 153.53 80.9031 153.666 80.591C153.802 80.279 153.847 79.9383 153.802 79.5689C153.765 79.1936 153.603 78.7944 153.315 78.3713C153.068 78.01 152.793 77.7584 152.49 77.6166C152.19 77.4599 151.877 77.3892 151.552 77.4044C151.229 77.4048 150.906 77.4703 150.582 77.6009C150.258 77.7315 149.955 77.8929 149.673 78.0852ZM154.825 73.4686C155.106 73.161 155.431 72.8617 155.801 72.5709C156.171 72.2801 156.545 72.0055 156.924 71.7471C157.329 71.4707 157.766 71.231 158.235 71.0279C158.712 70.8188 159.194 70.7029 159.682 70.68C160.17 70.6572 160.646 70.7588 161.11 70.9847C161.583 71.2047 162.014 71.6011 162.405 72.174C162.789 72.738 163.012 73.283 163.074 73.809C163.136 74.335 163.083 74.8355 162.917 75.3106C162.744 75.7769 162.478 76.2102 162.118 76.6103C161.758 77.0105 161.349 77.3668 160.891 77.6793C160.847 77.7093 160.772 77.7604 160.666 77.8325C160.569 77.8986 160.463 77.9707 160.349 78.0488C160.237 78.1121 160.125 78.1754 160.014 78.2387C159.902 78.302 159.821 78.3442 159.771 78.3655L162.168 81.882L161.071 82.63L154.825 73.4686ZM157.599 72.6809C157.37 72.8372 157.153 72.9918 156.947 73.1448C156.742 73.2978 156.589 73.434 156.49 73.5534L159.104 77.3872C159.16 77.3748 159.239 77.3399 159.342 77.2826C159.439 77.2165 159.544 77.1518 159.656 77.0886C159.761 77.0165 159.863 76.9474 159.96 76.8813C160.057 76.8152 160.127 76.7671 160.171 76.7371C160.471 76.5328 160.748 76.305 161.003 76.0539C161.26 75.7879 161.457 75.4989 161.593 75.1868C161.729 74.8747 161.774 74.534 161.729 74.1647C161.692 73.7893 161.53 73.3901 161.241 72.9671C160.995 72.6057 160.72 72.3542 160.417 72.2123C160.117 72.0557 159.804 71.985 159.478 72.0002C159.156 72.0006 158.833 72.0661 158.509 72.1967C158.185 72.3272 157.881 72.4887 157.599 72.6809Z" fill="#1E102C"/>
</g>
<defs>
<clipPath id="clip0_52712_38116">
<rect width="209" height="209" fill="white"/>
</clipPath>
</defs>
</svg>
