<svg width="209" height="209" viewBox="0 0 209 209" fill="none" xmlns="http://www.w3.org/2000/svg">
<g clip-path="url(#clip0_55692_26658)">
<path d="M104.5 0L111.059 21.1577L120.847 1.28657L124.016 23.2099L136.792 5.11459L136.492 27.2637L151.942 11.3898L148.181 33.2193L165.924 19.9577L158.794 40.9301L178.393 30.6073L168.07 50.2061L189.042 43.0764L175.781 60.8191L197.61 57.058L181.736 72.5077L203.885 72.2077L185.79 84.984L207.713 88.1526L187.842 97.9408L209 104.5L187.842 111.059L207.713 120.847L185.79 124.016L203.885 136.792L181.736 136.492L197.61 151.942L175.781 148.181L189.042 165.924L168.07 158.794L178.393 178.393L158.794 168.07L165.924 189.042L148.181 175.781L151.942 197.61L136.492 181.736L136.792 203.885L124.016 185.79L120.847 207.713L111.059 187.842L104.5 209L97.9408 187.842L88.1526 207.713L84.984 185.79L72.2077 203.885L72.5077 181.736L57.058 197.61L60.8191 175.781L43.0764 189.042L50.2061 168.07L30.6073 178.393L40.9301 158.794L19.9577 165.924L33.2193 148.181L11.3898 151.942L27.2637 136.492L5.11459 136.792L23.2099 124.016L1.28657 120.847L21.1577 111.059L0 104.5L21.1577 97.9408L1.28657 88.1526L23.2099 84.984L5.11459 72.2077L27.2637 72.5077L11.3898 57.058L33.2193 60.8191L19.9577 43.0764L40.9301 50.2061L30.6073 30.6073L50.2061 40.9301L43.0764 19.9577L60.8191 33.2193L57.058 11.3898L72.5077 27.2637L72.2077 5.11459L84.984 23.2099L88.1526 1.28657L97.9408 21.1577L104.5 0Z" fill="#FCDA00"/>
<path d="M110.582 21.3057L110.953 22.5039L111.508 21.3789L120.583 2.9541L123.521 23.2812L123.701 24.5234L124.425 23.498L136.27 6.72168L135.992 27.2568L135.976 28.5117L136.851 27.6123L151.175 12.8945L147.688 33.1348L147.475 34.3711L148.48 33.6201L164.931 21.3232L158.32 40.7695L157.917 41.957L159.027 41.3721L177.197 31.8018L167.628 49.9727L167.043 51.083L168.23 50.6797L187.676 44.0684L175.38 60.5195L174.629 61.5254L175.865 61.3115L196.104 57.8242L181.388 72.1494L180.488 73.0244L181.743 73.0078L202.277 72.7295L185.502 84.5752L184.477 85.2988L185.719 85.4785L206.045 88.416L187.621 97.4922L186.495 98.0469L187.694 98.418L207.311 104.5L187.694 110.582L186.495 110.953L187.621 111.508L206.045 120.583L185.719 123.521L184.477 123.701L185.502 124.425L202.277 136.27L181.743 135.992L180.488 135.976L181.388 136.851L196.104 151.175L175.865 147.688L174.629 147.475L175.38 148.48L187.676 164.931L168.23 158.32L167.043 157.917L167.628 159.027L177.197 177.197L159.027 167.628L157.917 167.043L158.32 168.23L164.931 187.676L148.48 175.38L147.475 174.629L147.688 175.865L151.175 196.104L136.851 181.388L135.976 180.488L135.992 181.743L136.27 202.277L124.425 185.502L123.701 184.477L123.521 185.719L120.583 206.045L111.508 187.621L110.953 186.495L110.582 187.694L104.5 207.311L98.418 187.694L98.0469 186.495L97.4922 187.621L88.416 206.045L85.4785 185.719L85.2988 184.477L84.5752 185.502L72.7295 202.277L73.0078 181.743L73.0244 180.488L72.1494 181.388L57.8242 196.104L61.3115 175.865L61.5254 174.629L60.5195 175.38L44.0684 187.676L50.6797 168.23L51.083 167.043L49.9727 167.628L31.8018 177.197L41.3721 159.027L41.957 157.917L40.7695 158.32L21.3232 164.931L33.6201 148.48L34.3711 147.475L33.1348 147.688L12.8945 151.175L27.6123 136.851L28.5117 135.976L27.2568 135.992L6.72168 136.27L23.498 124.425L24.5234 123.701L23.2812 123.521L2.9541 120.583L21.3789 111.508L22.5039 110.953L21.3057 110.582L1.68848 104.5L21.3057 98.418L22.5039 98.0469L21.3789 97.4922L2.9541 88.416L23.2812 85.4785L24.5234 85.2988L23.498 84.5752L6.72168 72.7295L27.2568 73.0078L28.5117 73.0244L27.6123 72.1494L12.8945 57.8242L33.1348 61.3115L34.3711 61.5254L33.6201 60.5195L21.3232 44.0684L40.7695 50.6797L41.957 51.083L41.3721 49.9727L31.8018 31.8018L49.9727 41.3721L51.083 41.957L50.6797 40.7695L44.0684 21.3232L60.5195 33.6201L61.5254 34.3711L61.3115 33.1348L57.8242 12.8945L72.1494 27.6123L73.0244 28.5117L73.0078 27.2568L72.7295 6.72168L84.5752 23.498L85.2988 24.5234L85.4785 23.2812L88.416 2.9541L97.4922 21.3789L98.0469 22.5039L98.418 21.3057L104.5 1.68848L110.582 21.3057Z" stroke="black" stroke-opacity="0.05"/>
<path d="M52.601 135.043C52.4091 135.083 52.2116 135.154 52.0085 135.253C51.8082 135.338 51.5803 135.468 51.3247 135.642C50.9633 135.888 50.6515 136.198 50.3891 136.57C50.1355 136.937 49.9742 137.363 49.9053 137.849C49.8452 138.329 49.8967 138.868 50.0597 139.467C50.2315 140.06 50.5578 140.709 51.0385 141.414C51.4711 142.049 51.9201 142.556 52.3856 142.936C52.8599 143.31 53.333 143.568 53.8049 143.711C54.2856 143.848 54.7607 143.873 55.2302 143.785C55.7085 143.691 56.1724 143.491 56.6219 143.185C56.851 143.028 57.0505 142.867 57.2204 142.699C57.3931 142.517 57.5391 142.333 57.6585 142.149L56.7572 140.827L57.7355 140.16L58.9522 141.945L58.9834 141.962C58.8572 142.345 58.6395 142.745 58.3302 143.163C58.0149 143.571 57.5665 143.974 56.9848 144.37C56.4295 144.749 55.8509 145.008 55.2488 145.147C54.6495 145.272 54.0458 145.257 53.4377 145.104C52.8296 144.95 52.2243 144.64 51.6218 144.173C51.0222 143.691 50.4399 143.036 49.8751 142.207C49.2863 141.344 48.8933 140.54 48.6962 139.797C48.4932 139.044 48.4431 138.355 48.5461 137.73C48.6431 137.096 48.8694 136.529 49.2252 136.028C49.5897 135.521 50.0452 135.081 50.5916 134.709C50.8913 134.505 51.1603 134.341 51.3986 134.217C51.631 134.084 51.8459 133.983 52.0434 133.913C52.2349 133.834 52.4134 133.783 52.5788 133.761C52.7531 133.732 52.9289 133.716 53.1064 133.711L53.1196 133.702L54.5437 135.791L53.5654 136.458L52.601 135.043ZM54.9779 131.951L56.0751 131.203L61.7172 139.478L65.4585 136.928L63.8902 134.628L64.8685 133.961L67.1037 137.239L61.2869 141.205L54.9779 131.951ZM62.5081 126.817L68.8537 122.491L69.5206 123.469L66.8899 125.263L71.865 132.56L74.4958 130.767L75.1627 131.745L68.8171 136.071L68.1502 135.093L70.7677 133.308L65.7926 126.011L63.1751 127.795L62.5081 126.817ZM76.3814 118.83C76.1896 118.871 75.9921 118.941 75.789 119.041C75.5887 119.126 75.3607 119.255 75.1051 119.429C74.7438 119.676 74.4319 119.985 74.1695 120.358C73.9159 120.724 73.7547 121.151 73.6857 121.636C73.6256 122.116 73.6771 122.656 73.8401 123.255C74.0119 123.848 74.3382 124.496 74.8189 125.202C75.2515 125.836 75.7006 126.343 76.166 126.723C76.6403 127.097 77.1134 127.355 77.5853 127.498C78.066 127.635 78.5411 127.66 79.0106 127.572C79.4889 127.479 79.9528 127.278 80.4023 126.972C80.6315 126.816 80.831 126.654 81.0008 126.486C81.1735 126.304 81.3195 126.121 81.4389 125.936L80.5376 124.614L81.5159 123.947L82.7326 125.732L82.7639 125.749C82.6377 126.132 82.4199 126.532 82.1107 126.95C81.7954 127.358 81.3469 127.761 80.7652 128.158C80.21 128.536 79.6313 128.795 79.0292 128.934C78.4299 129.059 77.8262 129.045 77.2181 128.891C76.61 128.738 76.0047 128.427 75.4023 127.96C74.8026 127.478 74.2203 126.823 73.6555 125.995C73.0667 125.131 72.6737 124.327 72.4767 123.584C72.2736 122.832 72.2235 122.143 72.3265 121.517C72.4235 120.883 72.6498 120.316 73.0056 119.815C73.3702 119.308 73.8256 118.869 74.3721 118.496C74.6717 118.292 74.9407 118.128 75.1791 118.004C75.4114 117.871 75.6264 117.77 75.8239 117.7C76.0153 117.621 76.1938 117.57 76.3593 117.548C76.5335 117.52 76.7094 117.503 76.8868 117.498L76.9001 117.489L78.3241 119.578L77.3458 120.245L76.3814 118.83ZM84.1963 119.312L83.1783 120.006L86.0985 124.289L85.0013 125.037L78.6922 115.783L79.7895 115.035L82.6015 119.16L83.593 118.484L83.7555 112.331L85.0246 111.466L84.7606 118.094L91.7434 120.441L90.3554 121.387L84.1963 119.312ZM93.951 105.38L100.825 100.694L102.475 103.113L101.496 103.78L100.514 102.339L98.5971 103.646L103.572 110.943L105.026 109.952L105.693 110.93L101.688 113.661L101.021 112.683L102.475 111.691L97.4999 104.394L95.5962 105.692L96.5786 107.133L95.6003 107.8L93.951 105.38ZM105.138 104.531C104.093 102.997 103.556 101.633 103.529 100.438C103.511 99.2373 104.065 98.2522 105.194 97.4831C105.811 97.0625 106.409 96.8226 106.988 96.7633C107.576 96.698 108.146 96.7868 108.699 97.0296C109.246 97.2635 109.778 97.6367 110.295 98.1491C110.806 98.6527 111.308 99.2658 111.801 99.9885C112.846 101.522 113.378 102.889 113.397 104.09C113.424 105.285 112.865 106.273 111.719 107.054C111.111 107.469 110.517 107.706 109.938 107.765C109.359 107.824 108.796 107.737 108.249 107.503C107.696 107.26 107.164 106.887 106.653 106.384C106.136 105.871 105.631 105.254 105.138 104.531ZM106.301 103.738C106.65 104.249 107.011 104.713 107.385 105.129C107.768 105.539 108.164 105.863 108.571 106.102C108.973 106.331 109.383 106.459 109.8 106.484C110.212 106.501 110.629 106.365 111.052 106.076C111.81 105.559 112.15 104.875 112.074 104.024C112.005 103.167 111.527 102.086 110.638 100.782C110.295 100.279 109.932 99.823 109.549 99.4128C109.169 98.9877 108.778 98.6604 108.376 98.4309C107.969 98.1925 107.555 98.0681 107.134 98.0577C106.708 98.0384 106.284 98.173 105.861 98.4614C105.111 98.9721 104.778 99.6575 104.861 100.518C104.938 101.369 105.418 102.442 106.301 103.738ZM123.942 86.405C123.75 86.4454 123.553 86.5155 123.35 86.6153C123.15 86.7002 122.922 86.8298 122.666 87.004C122.305 87.2504 121.993 87.5598 121.73 87.9324C121.477 88.2989 121.316 88.7251 121.247 89.211C121.186 89.691 121.238 90.2304 121.401 90.8293C121.573 91.4221 121.899 92.0711 122.38 92.7762C122.812 93.4107 123.261 93.9179 123.727 94.2977C124.201 94.6715 124.674 94.9299 125.146 95.0729C125.627 95.2099 126.102 95.2346 126.572 95.1469C127.05 95.0531 127.514 94.8531 127.963 94.5466C128.192 94.3904 128.392 94.2286 128.562 94.0611C128.734 93.8788 128.88 93.6954 129 93.5107L128.098 92.1887L129.077 91.5218L130.293 93.3065L130.325 93.3239C130.199 93.7068 129.981 94.107 129.672 94.5244C129.356 94.933 128.908 95.3356 128.326 95.7322C127.771 96.1107 127.192 96.3697 126.59 96.5091C125.991 96.6336 125.387 96.6192 124.779 96.4657C124.171 96.3123 123.566 96.002 122.963 95.5349C122.363 95.053 121.781 94.3978 121.216 93.5693C120.628 92.7056 120.235 91.902 120.038 91.1585C119.834 90.4062 119.784 89.7173 119.887 89.092C119.984 88.4579 120.211 87.8904 120.566 87.3897C120.931 86.883 121.387 86.4433 121.933 86.0708C122.233 85.8665 122.502 85.7025 122.74 85.5787C122.972 85.4461 123.187 85.3448 123.385 85.2747C123.576 85.1958 123.755 85.1451 123.92 85.1227C124.094 85.0942 124.27 85.0776 124.448 85.0728L124.461 85.0638L125.885 87.1526L124.907 87.8195L123.942 86.405ZM126.319 83.3128L127.416 82.5647L133.059 90.8404L136.8 88.2897L135.232 85.9895L136.21 85.3225L138.445 88.6011L132.628 92.5668L126.319 83.3128ZM136.845 82.9141C135.8 81.3806 135.263 80.0163 135.236 78.8213C135.218 77.6204 135.773 76.6353 136.901 75.8662C137.518 75.4456 138.116 75.2057 138.695 75.1464C139.283 75.0811 139.854 75.1699 140.406 75.4127C140.953 75.6466 141.485 76.0198 142.002 76.5322C142.514 77.0357 143.015 77.6489 143.508 78.3716C144.554 79.9051 145.086 81.2723 145.104 82.4733C145.131 83.6683 144.572 84.6563 143.426 85.4375C142.818 85.8521 142.224 86.089 141.645 86.1483C141.066 86.2075 140.503 86.1202 139.956 85.8862C139.403 85.6434 138.871 85.2703 138.36 84.7667C137.843 84.2543 137.338 83.6368 136.845 82.9141ZM138.009 82.1209C138.357 82.6321 138.718 83.0958 139.093 83.512C139.476 83.9223 139.871 84.2466 140.279 84.4849C140.681 84.7145 141.09 84.8419 141.508 84.8671C141.919 84.8836 142.336 84.7476 142.759 84.4592C143.517 83.9424 143.858 83.2584 143.781 82.4072C143.713 81.5499 143.234 80.4691 142.345 79.1647C142.002 78.6623 141.64 78.2061 141.257 77.7958C140.876 77.3708 140.486 77.0435 140.084 76.8139C139.676 76.5756 139.262 76.4512 138.842 76.4407C138.415 76.4215 137.991 76.5561 137.568 76.8445C136.819 77.3552 136.486 78.0406 136.568 78.9007C136.645 79.752 137.125 80.8254 138.009 82.1209ZM148.383 79.9087C148.743 79.8695 149.12 79.7872 149.512 79.6618C149.907 79.5216 150.272 79.3374 150.607 79.109C150.898 78.9107 151.153 78.698 151.372 78.4709C151.586 78.235 151.743 77.9922 151.844 77.7426C151.948 77.4783 151.986 77.2131 151.96 76.9471C151.942 76.6751 151.843 76.4069 151.663 76.1425C151.417 75.7811 151.092 75.57 150.689 75.5091C150.295 75.4422 149.857 75.4438 149.376 75.5138C148.894 75.5839 148.385 75.6795 147.848 75.8004C147.31 75.9214 146.783 75.9905 146.265 76.0077C145.748 76.0249 145.254 75.9546 144.785 75.7967C144.319 75.624 143.912 75.2821 143.563 74.7709C143.317 74.4096 143.165 74.0354 143.108 73.6485C143.059 73.2555 143.098 72.8675 143.224 72.4845C143.351 72.1016 143.563 71.731 143.861 71.3729C144.162 71 144.541 70.6573 144.999 70.3448C145.528 69.9843 146.036 69.6965 146.522 69.4814C147.002 69.2575 147.411 69.1201 147.751 69.0692L147.768 69.038L147.786 69.0644L147.8 69.0554L147.814 69.1041L149.256 71.2193L148.277 71.8862L147.313 70.4717C147.057 70.569 146.784 70.6902 146.496 70.8352C146.207 70.9802 145.913 71.1549 145.614 71.3591C145.323 71.5574 145.082 71.7729 144.892 72.0057C144.711 72.2324 144.579 72.4645 144.496 72.7021C144.415 72.9248 144.385 73.1456 144.405 73.3643C144.425 73.583 144.495 73.7805 144.615 73.9568C144.85 74.3005 145.164 74.5058 145.558 74.5727C145.961 74.6336 146.406 74.6334 146.894 74.5722C147.375 74.5021 147.888 74.411 148.431 74.2988C148.974 74.1867 149.508 74.1264 150.031 74.118C150.549 74.1008 151.038 74.1741 151.498 74.338C151.967 74.4958 152.367 74.8171 152.697 75.3019C152.968 75.6985 153.136 76.1065 153.203 76.5259C153.278 76.9393 153.257 77.3537 153.14 77.7691C153.032 78.1785 152.822 78.5801 152.509 78.9739C152.205 79.3617 151.807 79.7238 151.313 80.0603C150.978 80.2886 150.643 80.4785 150.307 80.6299C149.972 80.7813 149.649 80.9045 149.339 80.9994C149.039 81.0883 148.757 81.1578 148.494 81.2079C148.24 81.2519 148.035 81.2822 147.878 81.2986L147.864 81.2499L146.404 79.1083L147.382 78.4413L148.383 79.9087ZM150.324 66.9469L155.758 63.2426L156.425 64.2208L152.089 67.1771L154.153 70.2044L158.158 67.4735L158.825 68.4518L154.819 71.1827L157.064 74.4745L161.466 71.4732L162.133 72.4515L156.633 76.2008L150.324 66.9469Z" fill="#1E102C"/>
</g>
<defs>
<clipPath id="clip0_55692_26658">
<rect width="209" height="209" fill="white"/>
</clipPath>
</defs>
</svg>
